<?xml version="1.0" standalone="no"?>
<!DOCTYPE svg PUBLIC "-//W3C//DTD SVG 1.1//EN" "http://www.w3.org/Graphics/SVG/1.1/DTD/svg11.dtd" >
<svg xmlns="http://www.w3.org/2000/svg">
<metadata></metadata>
<defs>
<font id="calibriregular" horiz-adv-x="1038" >
<font-face units-per-em="2048" ascent="1536" descent="-512" />
<missing-glyph horiz-adv-x="463" />
<glyph horiz-adv-x="0" />
<glyph horiz-adv-x="0" />
<glyph unicode="&#xd;" horiz-adv-x="0" />
<glyph unicode=" "  horiz-adv-x="463" />
<glyph unicode="&#x09;" horiz-adv-x="463" />
<glyph unicode="&#xa0;" horiz-adv-x="463" />
<glyph unicode="!" horiz-adv-x="667" d="M266 104q0 33 4.5 55.5t16.5 35t32.5 18t51.5 5.5t51 -5.5t32.5 -18t17 -35t4.5 -55.5t-4.5 -54.5t-17 -35t-32.5 -19t-51 -5.5t-51.5 5.5t-32.5 19t-16.5 35t-4.5 54.5zM280 1327q-1 12 3 21t14.5 15t28 8.5t45.5 2.5q27 0 44.5 -3t28 -9t14.5 -14.5t4 -20.5l-17 -954 q0 -8 -3.5 -14t-12.5 -10t-23 -6t-35 -2t-35 2t-23 6t-12.5 10t-3.5 14z" />
<glyph unicode="&#x22;" horiz-adv-x="821" d="M139 1365q0 8 5 14t15 10t26.5 6t39.5 2q48 0 67 -8t19 -24l-23 -463q0 -8 -3 -14t-11 -10t-19.5 -6t-29.5 -2t-30 2t-19.5 6t-10.5 10t-3 14zM494 1365q0 8 5 14t15 10t26.5 6t39.5 2q24 0 40.5 -2t26.5 -6t14.5 -10t3.5 -14l-22 -463q0 -8 -3 -14t-11 -10t-19.5 -6 t-29.5 -2t-30 2t-19.5 6t-10.5 10t-3 14z" />
<glyph unicode="#" horiz-adv-x="1020" d="M36 427q0 17 3 29t7 19.5t10 11.5t14 4h134l41 332h-121q-15 0 -24.5 15t-9.5 47q0 35 9.5 50t24.5 15h136l41 321q1 7 4.5 12.5t12 9t23.5 5.5t38 2q24 0 38 -2t21.5 -5.5t9.5 -9t2 -11.5l-42 -322h278l39 321q1 7 5 12.5t12 9t23 5.5t39 2q23 0 37.5 -2t21.5 -5.5 t9.5 -9t1.5 -11.5l-40 -322h115q15 0 24.5 -15.5t9.5 -48.5q0 -17 -2.5 -29t-7 -19.5t-11 -11t-13.5 -3.5h-131l-40 -332h116q15 0 24.5 -15t9.5 -49q0 -17 -3 -29t-7 -19.5t-10.5 -11t-13.5 -3.5h-133l-42 -342q-1 -7 -4 -12.5t-11 -9t-22 -5t-37 -1.5t-38 1.5t-23 5t-11 9 t-2 12.5l42 342h-278l-42 -342q-2 -7 -4.5 -12.5t-10 -9t-21.5 -5t-37 -1.5q-24 0 -39 1.5t-23 5t-11 9t-2 12.5l41 342h-116q-15 0 -24.5 14.5t-9.5 48.5zM352 491h277l42 332h-279z" />
<glyph unicode="$" d="M96 160q0 22 2 36.5t6 24t10.5 13t15.5 3.5q13 0 37 -14.5t63.5 -32t96.5 -32.5t137 -15q142 0 215.5 56t73.5 152q0 59 -27 98.5t-71.5 68t-101 49t-115 41.5t-115 48t-100.5 67t-71 97.5t-27 141.5q0 67 23 125t69 101.5t116 71t163 33.5l20 202q1 6 3.5 11.5t9.5 9.5 t19 5.5t33 1.5q22 0 36.5 -2t22 -6.5t9.5 -10.5t2 -14l-22 -200q30 -3 62.5 -10.5t61 -17t51.5 -21t31.5 -19.5t12 -15t5.5 -16t3.5 -21t1.5 -27q0 -19 -1.5 -33t-4.5 -22t-8 -12t-12 -4q-11 0 -35 13t-60.5 28t-84.5 28t-107 13q-67 0 -114.5 -13t-77 -36.5t-43 -56.5 t-13.5 -72q0 -60 27.5 -100t72 -68t101.5 -48t116.5 -41.5t116.5 -47.5t101.5 -66t72 -97.5t27.5 -141.5q0 -80 -30.5 -145.5t-86.5 -112.5t-137 -75t-181 -33l-22 -217q-1 -6 -3.5 -11.5t-9.5 -9t-19.5 -5.5t-32.5 -2q-23 0 -36.5 2.5t-21.5 6t-10.5 10t-0.5 14.5l23 216 q-48 6 -89 15.5t-73 20.5t-54.5 23t-33 22.5t-14.5 27.5t-4 47z" />
<glyph unicode="%" horiz-adv-x="1464" d="M72 970q0 73 16.5 135t50.5 107t87.5 71t126.5 26q79 0 132.5 -27t85.5 -72.5t45 -106.5t13 -129q0 -77 -17 -140t-52 -107.5t-88.5 -69.5t-125.5 -25q-73 0 -125 23t-85 66.5t-48.5 106t-15.5 142.5zM200.5 -5.5q1.5 9.5 9.5 21.5l900 1289q5 8 12 13.5t17.5 8.5t24 4.5 t34.5 1.5t34.5 -3.5t19.5 -10.5t4.5 -17t-9.5 -21l-901 -1289q-5 -9 -12 -13.5t-17 -8t-24 -5t-34 -1.5q-22 0 -35.5 4t-19 10.5t-4 16zM213 976q0 -68 9.5 -113.5t27 -72t44 -37t60.5 -10.5q40 0 65.5 15t41 44.5t22 71t6.5 95.5q0 56 -8 99.5t-24.5 72.5t-43.5 43.5 t-64 14.5q-35 0 -61 -14t-42.5 -42t-24.5 -69.5t-8 -97.5zM835 323q0 73 16.5 135t50.5 107t87.5 71t126.5 26q79 0 132.5 -27t85.5 -72.5t45 -106.5t13 -129q0 -77 -17 -140t-52 -107.5t-88.5 -69.5t-125.5 -25q-73 0 -125 23t-85 66.5t-48.5 106t-15.5 142.5zM976 329 q0 -68 9.5 -113.5t27 -72t44 -37t60.5 -10.5q40 0 65.5 15t41 44.5t22 71t6.5 95.5q0 56 -8 99.5t-24.5 72.5t-43.5 43.5t-64 14.5q-35 0 -61 -14t-42.5 -42t-24.5 -69.5t-8 -97.5z" />
<glyph unicode="&#x26;" horiz-adv-x="1397" d="M0 1294zM108 341q0 55 15 104.5t47 96t83.5 90t124.5 87.5q-40 54 -68.5 98t-47 82t-26.5 72.5t-8 69.5q0 62 21 118.5t67.5 100t119.5 69t177 25.5q88 0 152.5 -19t107 -54t64 -84.5t21.5 -110.5q0 -59 -19 -108t-61 -95t-107.5 -91.5t-158.5 -95.5q34 -41 74 -85.5 t83.5 -89.5t89 -88.5t89.5 -83.5q20 27 36 61.5t28 73t18 78.5t6 81v36q0 10 3.5 16.5t11.5 11t23.5 6.5t40.5 2q22 0 37.5 -1t25.5 -4.5t14.5 -11t4.5 -20.5v-25q0 -56 -9.5 -110t-26 -105.5t-41 -98.5t-54.5 -87q45 -36 78.5 -60t57 -39t39 -21t25.5 -6t19 1t14.5 -3 t8.5 -16t3 -37t-1 -40t-3.5 -22.5t-8.5 -12.5t-22 -9t-42 -4q-20 0 -44 7t-56 24.5t-74.5 47.5t-99.5 76q-42 -34 -88.5 -63t-99 -49.5t-110 -32t-124.5 -11.5q-63 0 -119.5 11t-104.5 31.5t-86 51.5t-64.5 70.5t-41 88.5t-14.5 106zM287 358q0 -52 17.5 -95t51.5 -74.5 t85 -49t118 -17.5q41 0 80 8.5t74.5 23t67.5 35t59 43.5q-52 45 -103.5 93.5t-99.5 97.5t-92.5 97.5t-81.5 94.5q-50 -32 -83.5 -63.5t-54 -63t-29.5 -63.5t-9 -67zM403 1054q0 -27 7.5 -55t23 -58.5t38 -65.5t53.5 -78q73 41 122.5 75.5t79.5 66.5t43.5 64t13.5 68 q0 29 -10.5 55.5t-33.5 47t-58 32.5t-84 12q-53 0 -89.5 -13.5t-60 -36t-34.5 -52.5t-11 -62z" />
<glyph unicode="'" horiz-adv-x="452" d="M139 1365q0 8 5 14t15.5 10t27 6t39.5 2q24 0 40.5 -1.5t27 -6t15 -10.5t3.5 -14l-22 -463q0 -8 -3.5 -14t-11 -10t-19.5 -6t-30 -2t-30.5 2t-19.5 6t-10.5 10t-3.5 14z" />
<glyph unicode="(" horiz-adv-x="621" d="M133 537q0 113 15.5 223t44 218.5t69.5 213.5t92 208q1 4 5.5 7t12.5 6t22 4.5t36 1.5q23 0 37 -3t22 -8t9 -13t-3 -17q-95 -201 -141.5 -412.5t-46.5 -425.5q0 -215 47.5 -426t138.5 -414q5 -12 5.5 -20.5t-6.5 -14t-21.5 -8t-39.5 -2.5q-18 0 -31 1t-22.5 4t-15.5 7 t-9 9q-54 102 -95 206.5t-69 212.5t-42 218.5t-14 223.5z" />
<glyph unicode=")" horiz-adv-x="621" d="M122.5 -320.5q0.5 8.5 5.5 20.5q92 202 139 413.5t47 426.5q0 214 -47 425.5t-141 412.5q-4 9 -3 17t9 13t22 8t37 3q21 0 35 -1.5t22.5 -4.5t12.5 -6t6 -7q103 -205 161.5 -421.5t58.5 -441.5q0 -113 -14 -223.5t-42 -218.5t-68.5 -212.5t-94.5 -206.5q-3 -5 -9 -9 t-15.5 -7t-22.5 -4t-31 -1q-26 0 -40.5 2.5t-21 8t-6 14z" />
<glyph unicode="*" horiz-adv-x="1020" d="M158.5 911.5q-0.5 17.5 13.5 23.5l241 107l-241 106q-14 7 -13.5 24.5t23.5 56.5t38 48t27 0l212 -154l-28 261q-3 16 13 24t62 8t62 -8t13 -24l-28 -261l213 154q12 9 26.5 0t37.5 -49q23 -38 24 -55.5t-13 -24.5l-241 -106l241 -107q14 -6 13 -23.5t-24 -56.5 q-23 -40 -37.5 -49t-26.5 0l-213 155l28 -262q3 -15 -13 -23t-62 -8t-62 8t-13 23l28 262l-212 -155q-12 -9 -27 0t-38 49q-23 39 -23.5 56.5z" />
<glyph unicode="+" horiz-adv-x="1020" d="M70 576q0 18 3 31.5t8 22.5t11.5 13t14.5 4h329v364q0 8 4 14.5t12.5 11t23 7t34.5 2.5q21 0 35 -2.5t22.5 -7t12.5 -11t4 -14.5v-364h329q8 0 14.5 -4t12 -13t8 -22.5t2.5 -31.5q0 -19 -3 -32.5t-8 -22.5t-12 -13t-15 -4h-328v-364q0 -8 -4 -13.5t-12.5 -9.5t-22.5 -6.5 t-35 -2.5q-20 0 -34.5 2.5t-23 6.5t-12.5 9.5t-4 13.5v364h-328q-9 0 -15.5 4t-11.5 13t-8 22.5t-3 32.5z" />
<glyph unicode="," horiz-adv-x="511" d="M42.5 -274q-0.5 6 3.5 14l133 275v128q0 27 5.5 43t17.5 24t30 11t44 3q25 0 43 -3t29.5 -11t17 -24t5.5 -43q0 -31 -3 -57t-10 -49t-18.5 -45.5t-28.5 -47.5l-137 -206q-5 -7 -11.5 -12t-16 -9t-22 -5.5t-31.5 -1.5q-17 0 -28.5 1.5t-16.5 5t-5.5 9.5z" />
<glyph unicode="-" horiz-adv-x="627" d="M69 505q0 38 9 53t27 15h418q8 0 14.5 -3t11 -11.5t7 -21.5t2.5 -32q0 -39 -9 -54t-26 -15h-418q-18 0 -27 15.5t-9 53.5z" />
<glyph unicode="." horiz-adv-x="517" d="M151 106q0 71 23.5 94.5t85.5 23.5q60 0 83 -23t23 -92q0 -71 -23.5 -94.5t-85.5 -23.5q-60 0 -83 23t-23 92z" />
<glyph unicode="/" horiz-adv-x="791" d="M3 -251.5q-2 9.5 4 22.5l605 1659q4 13 10.5 20.5t16 12t24.5 6t36 1.5q25 0 41 -3.5t25 -9.5t11 -16t-3 -23l-605 -1659q-4 -13 -10.5 -20.5t-16.5 -11.5t-24.5 -6t-35.5 -2q-25 0 -41.5 3.5t-25.5 10t-11 16z" />
<glyph unicode="0" d="M72 644q0 148 24 271.5t78 212t142 137t216 48.5q123 0 206.5 -43.5t134.5 -128t72.5 -208t21.5 -283.5q0 -149 -23.5 -272t-78 -211.5t-142.5 -137t-217 -48.5q-122 0 -205.5 43.5t-134.5 128t-72.5 208t-21.5 283.5zM248 656q0 -145 15 -246.5t47.5 -165.5t83 -93 t122.5 -29q56 0 98.5 18t73 51.5t50.5 80.5t32 104t16.5 123.5t4.5 138.5q0 97 -7 174t-20.5 136t-35 101.5t-51.5 70t-68.5 40t-86.5 12.5q-85 0 -138 -40t-83.5 -110t-41.5 -164t-11 -202z" />
<glyph unicode="1" d="M174 1025q0 17 1.5 29t4.5 20t8.5 14t14.5 12l298 191q4 3 10 5t15 4t21 2.5t30 0.5q24 0 40 -2t25 -5.5t12 -9t3 -11.5v-1137h234q8 0 15 -4.5t11.5 -13t7 -21.5t2.5 -31q0 -19 -3 -32t-8 -21t-11.5 -11.5t-13.5 -3.5h-676q-7 0 -13 3.5t-11.5 11.5t-8.5 21t-3 32 q0 18 3 31t7.5 21.5t11 13t14.5 4.5h270v984l-250 -149q-19 -10 -30.5 -12t-18.5 4.5t-9.5 21.5t-2.5 38z" />
<glyph unicode="2" d="M114 75q0 20 1.5 35t6.5 26.5t12.5 23t19.5 24.5l251 266q87 92 139.5 165t81 133t37.5 109t9 92t-14 81.5t-40.5 67.5t-66.5 46t-92 17q-61 0 -109.5 -17t-85 -37t-61 -37t-36.5 -17q-7 0 -12.5 4t-9 13t-5.5 24t-2 36q0 15 1 26t3.5 19t6.5 15t16 17.5t41.5 28.5 t74 35.5t98 29.5t112.5 12q94 0 164.5 -26.5t117 -72.5t69.5 -107t23 -130q0 -62 -11 -123.5t-46.5 -133t-102.5 -159t-178 -201.5l-205 -214h563q8 0 15.5 -4.5t13 -13.5t8 -22.5t2.5 -31.5t-2.5 -32t-7 -23.5t-12 -14t-16.5 -4.5h-715q-14 0 -24.5 3.5t-18 11.5t-11 23 t-3.5 37z" />
<glyph unicode="3" d="M103 160q0 36 7 50t20 14q9 0 35.5 -16t68 -34.5t97 -34.5t123.5 -16q66 0 116 17t84 48t51 73.5t17 92.5q0 55 -21.5 99t-63 76t-102 49t-137.5 17h-123q-8 0 -15.5 3.5t-13 11.5t-9 21t-3.5 34q0 19 3 31.5t8.5 20t12.5 11t16 3.5h113q66 0 118.5 17t89 49t56 76.5 t19.5 99.5q0 40 -13 76.5t-39 63.5t-66.5 42.5t-93.5 15.5q-58 0 -106.5 -17.5t-86.5 -37.5t-63 -37.5t-35 -17.5q-7 0 -12.5 2.5t-9 10t-5 21t-1.5 35.5q0 15 1 26.5t4 20t7 15.5t13.5 16.5t38.5 27.5t71.5 35.5t98 29.5t119.5 12q90 0 158 -23t113.5 -65t68 -100.5 t22.5 -129.5q0 -61 -16 -113.5t-47 -93t-76 -69t-104 -39.5v-2q67 -7 122.5 -33.5t95.5 -66.5t62.5 -93.5t22.5 -114.5q0 -89 -31 -160.5t-89 -122.5t-143 -78.5t-192 -27.5q-65 0 -121.5 10.5t-100.5 25t-73 30t-36.5 22.5t-11.5 14t-7 17t-4.5 24.5t-1.5 35.5z" />
<glyph unicode="4" d="M48 373q0 19 1 34t4 27.5t8 24t12 24.5l466 786q5 8 14.5 14t24.5 10t37 5.5t52 1.5q33 0 57.5 -2.5t39.5 -6.5t23 -10.5t8 -15.5v-826h146q17 0 27.5 -17.5t10.5 -53.5q0 -33 -10 -52t-28 -19h-146v-272q0 -8 -4 -13.5t-14 -9.5t-26 -6t-41 -2q-24 0 -40 2t-25.5 6 t-13 9.5t-3.5 13.5v272h-534q-12 0 -20 3t-14.5 11t-9 23t-2.5 39zM205 439h423v710h-2z" />
<glyph unicode="5" d="M101 134q0 17 1.5 30.5t5.5 22t9.5 12.5t12.5 4q10 0 31 -12.5t56.5 -27t88 -27.5t124.5 -13q67 0 123 16t96.5 50t63.5 85.5t23 125.5q0 62 -19.5 109.5t-60 79t-102.5 47t-148 15.5q-61 0 -105 -6t-82 -6q-28 0 -40 13t-12 50v527q0 33 15.5 49t44.5 16h573 q8 0 15.5 -4.5t12.5 -13.5t7.5 -23t2.5 -33q0 -36 -10 -56t-28 -20h-483v-363q35 5 71.5 6t84.5 1q111 0 194 -26.5t138.5 -75t84 -117.5t28.5 -153q0 -104 -35 -185t-99 -136.5t-152.5 -84.5t-196.5 -29q-60 0 -114 8.5t-96 21t-69 24.5t-34.5 19t-10.5 13t-5.5 14.5 t-3.5 21.5t-1 31z" />
<glyph unicode="6" d="M107 599q0 83 9 168t32 164t62.5 148.5t99 121t142.5 81.5t193 30q37 0 75 -4.5t70 -12t54 -16.5t29 -14.5t10.5 -12t5.5 -14t3 -17t1 -23.5q0 -18 -0.5 -31t-4 -21t-9 -12t-14.5 -4q-11 0 -30 7t-46 15.5t-65.5 15.5t-89.5 7q-93 0 -160 -38t-109.5 -102t-63 -148.5 t-23.5 -176.5q26 15 58.5 30t71 27t81.5 19.5t92 7.5q105 0 177 -28.5t116.5 -79t63.5 -119t19 -148.5q0 -85 -26 -164.5t-80 -140t-137 -97t-196 -36.5q-81 0 -143 20t-108 57t-76.5 91t-49 123t-26.5 151t-8 176zM281 573q0 -129 16.5 -216t48 -139.5t78.5 -75t110 -22.5 q64 0 111 24t78 64.5t45.5 91t14.5 103.5q0 58 -11.5 105.5t-38.5 80.5t-72 51t-111 18q-37 0 -74 -6.5t-71.5 -18t-66 -27t-57.5 -33.5z" />
<glyph unicode="7" d="M99 1219q0 19 2.5 33t7.5 23.5t12 14t16 4.5h754q14 0 24.5 -3t16 -12t8.5 -23t3 -36q0 -18 -1.5 -32.5t-4 -28t-7 -26t-10.5 -26.5l-466 -1074q-5 -12 -12.5 -19.5t-19 -12t-29.5 -6t-44 -1.5q-34 0 -53 3t-27.5 9.5t-7.5 16t7 22.5l490 1098h-621q-19 0 -28.5 20 t-9.5 56z" />
<glyph unicode="8" d="M82 302q0 61 20 112t57.5 94t92.5 80.5t124 71.5q-60 31 -106 65.5t-78 75t-48.5 86.5t-16.5 100q0 68 24.5 127.5t74 103.5t126 69.5t178.5 25.5q98 0 169.5 -23.5t118 -64t68.5 -95.5t22 -118q0 -51 -16.5 -98t-48.5 -89t-78.5 -78.5t-106.5 -68.5q71 -35 126.5 -72 t93 -79.5t57 -90t19.5 -104.5q0 -84 -30 -149.5t-86.5 -110.5t-139.5 -68t-190 -23q-100 0 -179 21t-134 62t-84 101t-29 137zM256 318q0 -97 66.5 -150t198.5 -53q128 0 193.5 53.5t65.5 145.5q0 46 -17 83.5t-51.5 70t-86 63t-119.5 63.5q-63 -31 -110.5 -62t-78 -64 t-46 -69.5t-15.5 -80.5zM298 996q0 -39 13.5 -72.5t42 -63.5t72 -58.5t103.5 -59.5q101 52 155 115t54 139q0 42 -14.5 76t-42.5 58t-69.5 36.5t-94.5 12.5q-108 0 -163.5 -49t-55.5 -134z" />
<glyph unicode="9" d="M82 884q0 86 25 163.5t78 136.5t135 94t196 35q81 0 143.5 -20.5t108.5 -59t78 -93t51.5 -123.5t28 -149.5t8.5 -169.5q0 -84 -10 -170t-34 -165.5t-64.5 -149t-102 -121.5t-146 -81.5t-196.5 -29.5q-43 0 -83.5 5.5t-73 13.5t-54.5 17t-32 18t-14.5 24.5t-4.5 41.5 q0 22 1.5 35t4.5 20t8.5 9.5t13.5 2.5q11 0 31 -7.5t50.5 -16.5t71.5 -16.5t92 -7.5q97 0 166.5 37.5t113.5 100.5t66 146t24 175q-53 -31 -127 -55t-170 -24q-108 0 -181.5 29.5t-118 80.5t-64 121t-19.5 153zM256 897q0 -59 12.5 -108t40.5 -83t73 -52.5t111 -18.5 q75 0 145 22.5t121 59.5q0 128 -17 215.5t-50 141.5t-81 78t-111 24q-65 0 -111 -23.5t-75.5 -63t-43.5 -89.5t-14 -103z" />
<glyph unicode=":" horiz-adv-x="548" d="M187 106q0 33 4.5 55.5t16.5 35.5t32 19t52 6q31 0 51 -6t32.5 -19t17 -35.5t4.5 -55.5t-4.5 -55t-17 -35.5t-32.5 -19t-51 -5.5q-32 0 -52 5.5t-32 19t-16.5 35.5t-4.5 55zM187 800q0 34 4.5 56.5t16.5 36t32 19t52 5.5q31 0 51 -5.5t32.5 -19t17 -36t4.5 -56.5 q0 -32 -4.5 -54t-17 -35.5t-32.5 -19t-51 -5.5q-32 0 -52 5.5t-32 19t-16.5 35.5t-4.5 54z" />
<glyph unicode=";" horiz-adv-x="548" d="M72.5 -272.5q-0.5 5.5 3.5 14.5l131 273v128q0 27 6 43t17.5 24t29.5 11t43 3q24 0 42 -3t29.5 -11t17 -24t5.5 -43q0 -31 -3 -57t-9.5 -49t-18 -45.5t-28.5 -47.5l-136 -204q-5 -8 -11.5 -13t-15.5 -8.5t-21.5 -5.5t-30.5 -2q-17 0 -28.5 1.5t-16.5 5.5t-5.5 9.5z M187 800q0 34 4.5 56.5t16.5 36t32 19t52 5.5q31 0 51 -5.5t32.5 -19t17 -36t4.5 -56.5q0 -32 -4.5 -54t-17 -35.5t-32.5 -19t-51 -5.5q-32 0 -52 5.5t-32 19t-16.5 35.5t-4.5 54z" />
<glyph unicode="&#x3c;" horiz-adv-x="1020" d="M69 578q0 16 1.5 30t5 23t8 15.5t10.5 8.5l785 396q23 11 31.5 -1t8.5 -59q0 -29 -1.5 -46t-5 -27.5t-10 -16t-18.5 -11.5l-644 -315l640 -310q13 -7 20.5 -12.5t11.5 -16t5.5 -28t1.5 -46.5q0 -25 -2 -40.5t-7 -22t-12.5 -5.5t-18.5 7l-788 398q-10 5 -16 24t-6 55z" />
<glyph unicode="=" horiz-adv-x="1020" d="M94 382q0 37 10 54t27 17h756q18 0 28 -17t10 -54q0 -40 -11.5 -55t-26.5 -15h-756q-15 0 -26 15t-11 55zM94 771q0 36 10 53t27 17h756q18 0 28 -17t10 -53q0 -40 -11.5 -55.5t-26.5 -15.5h-756q-15 0 -26 15.5t-11 55.5z" />
<glyph unicode="&#x3e;" horiz-adv-x="1020" d="M101 160q0 28 1 45t4.5 27.5t10.5 16.5t18 11l645 317l-641 309q-13 6 -20.5 11.5t-11.5 16.5t-5 28.5t-1 46.5q0 26 2 40.5t6.5 21t12.5 5.5t19 -7l788 -397q10 -5 16.5 -24.5t6.5 -53.5q0 -17 -2 -30.5t-5 -23.5t-8 -15.5t-11 -8.5l-785 -396q-11 -5 -19 -5.5 t-12.5 6.5t-6.5 21.5t-2 37.5z" />
<glyph unicode="?" horiz-adv-x="949" d="M133 1231q0 24 3 36.5t13 22t38.5 25t69 28.5t89 22t100.5 9q107 0 184 -30.5t127 -82.5t74 -122t24 -148q0 -88 -25 -156t-70 -116t-108 -75t-140 -32l-7 -241q0 -15 -17.5 -22.5t-56.5 -7.5q-21 0 -36 1.5t-24 5t-13 9.5t-4 14l-6 277q-1 23 3.5 37.5t13.5 24t23 13 t32 3.5h22q65 0 111 20.5t74.5 54.5t41.5 80t13 96q0 57 -16 104.5t-48 82t-80.5 53.5t-114.5 19q-58 0 -101.5 -12.5t-75.5 -27.5t-52.5 -27t-30.5 -12q-7 0 -12.5 3t-9.5 11.5t-6 23t-2 36.5zM329 104q0 33 4.5 55.5t17 35t32.5 18t52 5.5q30 0 50.5 -5.5t32.5 -18 t16.5 -35t4.5 -55.5t-4.5 -54.5t-16.5 -35t-32.5 -19t-50.5 -5.5q-32 0 -52 5.5t-32.5 19t-17 35t-4.5 54.5z" />
<glyph unicode="@" horiz-adv-x="1831" d="M0 1294zM170 381q0 52 5.5 119.5t21 144t43.5 156t72.5 155.5t108 143.5t150 118t198 79.5t252.5 29q164 0 283.5 -39.5t197.5 -111.5t116 -175.5t38 -230.5q0 -68 -8.5 -139t-27.5 -138t-50 -126.5t-76 -104.5t-104.5 -70.5t-136.5 -25.5q-41 0 -76 9.5t-62 27.5 t-45.5 46.5t-25.5 65.5q-40 -40 -77.5 -68.5t-73.5 -46.5t-70.5 -26t-67.5 -8q-43 0 -76 8.5t-58.5 25t-43.5 40.5t-30 54t-17 66t-5 78q0 43 7 98.5t23 114.5t44 115.5t69.5 101t98.5 72t133 27.5q32 0 61.5 -7.5t56.5 -23.5t52 -40t51 -57l17 88q4 14 18 21t52 7 q18 0 30.5 -2t19.5 -5.5t9.5 -8.5t0.5 -12l-89 -460q-16 -87 8 -128.5t91 -41.5q41 0 74 20.5t58 55.5t42 81.5t28 98t16 105.5t5 104q0 87 -23.5 165.5t-80.5 138t-152.5 95t-239.5 35.5q-118 0 -210 -26t-162 -70.5t-120 -102.5t-84.5 -123.5t-55.5 -134t-32 -132 t-14.5 -119.5t-3.5 -95q0 -111 25.5 -203t88.5 -159t169 -104t267 -37q73 0 132 8.5t102.5 18t70.5 18t37 8.5q6 0 10.5 -3.5t7 -11t3.5 -19t1 -28.5q0 -14 -0.5 -23t-2.5 -16.5t-5.5 -13.5t-9.5 -11t-34.5 -15t-77 -20t-113.5 -17t-143 -7q-187 0 -316.5 44t-211 126 t-117.5 197t-36 257zM681 450q0 -74 26.5 -114t89.5 -40q24 0 49 8.5t53 26t59.5 46t69.5 67.5l48 260q-38 64 -78 98t-91 34q-42 0 -76 -20.5t-59 -53t-42.5 -73.5t-28.5 -84t-15.5 -83.5t-4.5 -71.5z" />
<glyph unicode="A" horiz-adv-x="1185" d="M44 62l434 1202q4 11 10.5 18t19 11t32 5.5t49.5 1.5q32 0 53 -1.5t34 -5.5t20 -11.5t11 -18.5l434 -1202q9 -21 9 -35v-2q0 -12 -8 -19t-26.5 -9t-49.5 -2t-49.5 1.5t-28 5t-14 9.5t-8.5 15l-111 315h-538l-106 -311q-3 -9 -8 -15.5t-14.5 -11t-27 -6.5t-45.5 -2 q-29 0 -47.5 2.5t-26.5 9.5q-7 7 -7 19q0 14 9 37zM360 477h450l-226 645h-1z" />
<glyph unicode="B" horiz-adv-x="1114" d="M172 70v1154q0 39 20.5 54.5t43.5 15.5h294q116 0 190 -22t123.5 -64t74.5 -103t25 -138q0 -46 -11 -88t-32.5 -77.5t-54 -63.5t-74.5 -46q53 -10 99 -36.5t80.5 -67.5t54.5 -96t20 -121q0 -61 -15.5 -112.5t-43.5 -92.5t-67.5 -72t-89 -52t-106 -31.5t-129.5 -10.5h-338 q-23 0 -43.5 15.5t-20.5 54.5zM342 142h250q59 0 103 14t77.5 41.5t52.5 68.5t19 95q0 58 -18.5 102t-54 74t-89 45.5t-134.5 15.5h-206v-456zM342 735h196q67 0 108 17.5t68 47t39.5 69t12.5 81.5q0 47 -13 85t-41 64.5t-73 40.5t-119 14h-178v-419z" />
<glyph unicode="C" horiz-adv-x="1092" d="M97 630q0 161 41.5 287t116.5 213.5t179.5 133.5t231.5 46q56 0 109 -10.5t98 -26.5t80 -37t48.5 -34.5t17.5 -20.5t6.5 -16.5t4 -22.5t1.5 -31q0 -20 -2 -34t-6 -23.5t-9.5 -14t-13.5 -4.5q-14 0 -39 19.5t-64.5 43t-96 43t-135.5 19.5q-86 0 -156.5 -34.5 t-120.5 -101.5t-77.5 -163.5t-27.5 -220.5q0 -123 26.5 -217.5t76 -158t121.5 -96t163 -32.5q77 0 134.5 19t98 42.5t66.5 42.5t41 19q7 0 12 -3t8 -11.5t4.5 -23.5t1.5 -38q0 -16 -1 -28t-3.5 -21t-6.5 -16t-14 -17t-42 -30.5t-79.5 -40t-109 -33t-134.5 -13.5 q-126 0 -227.5 42t-173 124t-110 202.5t-38.5 277.5z" />
<glyph unicode="D" horiz-adv-x="1260" d="M172 70v1154q0 39 20.5 54.5t43.5 15.5h293q168 0 284 -43.5t194.5 -125t119 -197.5t40.5 -262q0 -168 -43 -293.5t-125.5 -208t-202.5 -123.5t-286 -41h-274q-23 0 -43.5 15.5t-20.5 54.5zM344 144h177q124 0 209 31t142 95t85.5 160.5t28.5 228.5q0 105 -26 195.5 t-81.5 156.5t-140.5 103t-219 37h-175v-1007z" />
<glyph unicode="E" horiz-adv-x="1000" d="M172 70v1154q0 39 20.5 54.5t43.5 15.5h614q8 0 14.5 -4t10.5 -13t6.5 -22.5t2.5 -33.5q0 -18 -2.5 -31.5t-6.5 -22t-10.5 -12.5t-14.5 -4h-506v-406h434q8 0 14.5 -4.5t11 -12.5t6.5 -22t2 -33q0 -18 -2 -31t-6.5 -21t-11 -11.5t-14.5 -3.5h-434v-463h513q8 0 14.5 -4 t11.5 -12.5t7 -22t2 -33.5q0 -18 -2 -31.5t-7 -22.5t-11.5 -13t-14.5 -4h-621q-23 0 -43.5 15.5t-20.5 54.5z" />
<glyph unicode="F" horiz-adv-x="941" d="M172 26v1198q0 39 20.5 54.5t43.5 15.5h582q7 0 13.5 -4t11.5 -13t7 -23.5t2 -33.5t-2 -33t-7 -22.5t-11.5 -12.5t-13.5 -4h-474v-440h448q7 0 13.5 -3.5t11.5 -11.5t7 -21.5t2 -34.5q0 -19 -2 -32.5t-7 -22t-11.5 -13t-13.5 -4.5h-448v-539q0 -7 -4 -13.5t-14 -10 t-26 -6t-42 -2.5q-24 0 -41 2.5t-27 6t-14 10t-4 13.5z" />
<glyph unicode="G" horiz-adv-x="1292" d="M91 635q0 154 46.5 279t131 213t203 136.5t262.5 48.5q74 0 139 -13t115.5 -30.5t85 -38t47.5 -33.5t18 -30t5 -49q0 -19 -2 -33.5t-6 -24t-10 -13.5t-13 -4q-12 0 -40 19t-75 42t-112.5 42t-155.5 19q-107 0 -192 -39t-144 -108t-90.5 -164t-31.5 -206q0 -124 34.5 -220 t95.5 -162t145.5 -100t185.5 -34q60 0 121.5 14.5t114.5 43.5v377h-300q-17 0 -25.5 17t-8.5 53q0 19 2 32.5t6.5 22t10.5 12.5t15 4h411q11 0 22 -4t20 -12t14 -22t5 -32v-493q0 -26 -9 -45t-38 -33.5t-75 -31.5t-95 -29t-99 -18t-99 -6q-150 0 -268 46.5t-199.5 132.5 t-124.5 206t-43 268z" />
<glyph unicode="H" horiz-adv-x="1276" d="M172 26v1242q0 8 4 14t14 9.5t27 6t41 2.5q25 0 41.5 -2.5t26.5 -6t14 -9.5t4 -14v-518h589v518q0 8 4 14t14 9.5t26 6t42 2.5q24 0 40.5 -2.5t26.5 -6t14 -9.5t4 -14v-1242q0 -8 -4 -14t-14 -9.5t-26.5 -6t-40.5 -2.5q-26 0 -42 2.5t-26 6t-14 9.5t-4 14v574h-589v-574 q0 -8 -4 -14t-14 -9.5t-26.5 -6t-41.5 -2.5q-24 0 -41 2.5t-27 6t-14 9.5t-4 14z" />
<glyph unicode="I" horiz-adv-x="516" d="M172 26v1242q0 8 4.5 14t15 9.5t27 6t39.5 2.5q25 0 41.5 -2.5t26.5 -6t14 -9.5t4 -14v-1242q0 -8 -4 -14t-14 -9.5t-26.5 -6t-41.5 -2.5q-24 0 -41 2.5t-27 6t-14 9.5t-4 14z" />
<glyph unicode="J" horiz-adv-x="653" d="M7 107q0 22 1.5 36.5t5.5 23t9.5 12t13.5 3.5t20.5 -7.5t30 -16.5t40.5 -16.5t54 -7.5q34 0 58 8.5t40 31.5t24 63.5t8 105.5v926q0 7 4 13t14 10t26.5 6t41.5 2q24 0 41 -2t26.5 -6t14 -10t4.5 -13v-943q0 -77 -14 -141t-48 -109t-89.5 -69.5t-137.5 -24.5 q-28 0 -55.5 4.5t-50.5 12t-40 16t-22.5 14.5t-9 12t-6 14.5t-3.5 21t-1 30.5z" />
<glyph unicode="K" horiz-adv-x="1064" d="M172 26v1242q0 8 4 14t14 9.5t27 6t41 2.5q25 0 41.5 -2.5t26.5 -6t14 -9.5t4 -14v-575l458 575q6 9 14 15t19.5 9.5t28 5.5t42.5 2t42 -2.5t25.5 -6.5t13 -10t3.5 -13q0 -13 -6.5 -26t-24.5 -36l-429 -513l462 -614q17 -26 20.5 -35.5t3.5 -15.5q0 -8 -3.5 -14.5 t-13.5 -10.5t-27 -6.5t-44 -2.5q-35 0 -57 3t-33 11t-18 18l-476 647v-647q0 -7 -4 -13.5t-14 -10t-26.5 -6t-41.5 -2.5q-24 0 -41 2.5t-27 6t-14 10t-4 13.5z" />
<glyph unicode="L" horiz-adv-x="861" d="M172 70v1198q0 8 4 14t14 9.5t27 6t41 2.5q25 0 41.5 -2.5t26.5 -6t14 -9.5t4 -14v-1119h464q9 0 15.5 -4.5t11 -13t6.5 -22.5t2 -34t-2 -33.5t-6.5 -23t-11 -14t-15.5 -4.5h-572q-23 0 -43.5 15.5t-20.5 54.5z" />
<glyph unicode="M" horiz-adv-x="1751" d="M172 26v1190q0 42 22 60t49 18h104q32 0 56 -6t42 -19t30 -33t21 -47l375 -937h5l390 934q11 30 24 51t28.5 33.5t34.5 18t44 5.5h109q15 0 28.5 -4.5t23 -14t15.5 -24t6 -35.5v-1190q0 -8 -4 -14t-14 -9.5t-25.5 -6t-40.5 -2.5q-23 0 -39.5 2.5t-26 6t-13.5 9.5t-4 14 v1127h-2l-461 -1132q-3 -7 -8.5 -12t-16 -8.5t-25 -5t-34.5 -1.5q-21 0 -36 2t-25 5.5t-15.5 8.5t-7.5 11l-441 1132h-1v-1127q0 -8 -4 -14t-14 -9.5t-26 -6t-41 -2.5q-24 0 -40 2.5t-25.5 6t-13 9.5t-3.5 14z" />
<glyph unicode="N" horiz-adv-x="1322" d="M172 26v1194q0 40 22 57t48 17h82q29 0 48.5 -5t35 -16.5t30 -32t31.5 -51.5l314 -568q29 -52 56 -101.5t52 -97.5t49.5 -94.5t48.5 -93.5h1q-2 79 -2.5 164.5t-0.5 164.5v702q0 7 4 13t13.5 10.5t25 6.5t40.5 2q22 0 38 -2t25 -6.5t13 -10.5t4 -13v-1194q0 -20 -6.5 -34 t-17 -23t-23.5 -13t-26 -4h-55q-26 0 -45.5 5.5t-37 20t-35 39.5t-38.5 64l-408 736q-32 57 -64.5 119.5t-60.5 121.5h-2q2 -72 3 -147t1 -149v-781q0 -7 -4 -13.5t-13.5 -10t-25 -6t-39.5 -2.5t-39.5 2.5t-24.5 6t-13 10t-4 13.5z" />
<glyph unicode="O" horiz-adv-x="1356" d="M99 640q0 153 37 278t111 212.5t185 135t259 47.5q143 0 249 -43t176.5 -125.5t105 -204t34.5 -278.5t-37 -283t-110.5 -214.5t-184.5 -136t-259 -47.5q-146 0 -252.5 43.5t-176 126.5t-103.5 206t-34 283zM281 652q0 -114 19 -210t64 -165.5t120.5 -108t189.5 -38.5 q113 0 190 42t124 113.5t67 165.5t20 199q0 110 -19.5 204.5t-65 164t-121.5 108.5t-188 39t-188 -42t-123.5 -112t-68 -163.5t-20.5 -196.5z" />
<glyph unicode="P" horiz-adv-x="1058" d="M172 26v1194q0 40 21 57t47 17h277q42 0 80.5 -3.5t91 -15t107 -43t92.5 -77.5t58.5 -106.5t20.5 -133.5q0 -97 -32 -175t-91.5 -133t-146 -85t-206.5 -30h-147v-466q0 -8 -4.5 -14t-14 -9.5t-26 -6t-41.5 -2.5t-41.5 2.5t-26.5 6t-14 9.5t-4 14zM344 633h155 q78 0 129.5 20t86.5 55.5t53 85t18 107.5q0 79 -29.5 132t-73 79t-90 33t-90.5 7h-159v-519z" />
<glyph unicode="Q" horiz-adv-x="1378" d="M99 640q0 154 37 278.5t111 212t185 135t259 47.5q139 0 244.5 -43t177 -125.5t107.5 -203.5t36 -278q0 -81 -9.5 -155t-30 -140t-51.5 -122t-73 -101q73 -60 128 -93.5t91 -50.5t56 -24.5t30 -17t14 -27t4 -46.5q0 -23 -2.5 -38.5t-7.5 -24t-11 -11.5t-12 -3 q-20 0 -64.5 16.5t-102.5 48t-124 76.5t-128 105q-49 -30 -124 -52t-174 -22q-146 0 -252.5 43t-176 126t-103.5 206.5t-34 283.5zM281 652q0 -114 19 -209.5t64 -165.5t120.5 -108.5t189.5 -38.5q113 0 190 42t124 113.5t67 166t20 199.5q0 110 -19.5 204t-65 163.5 t-121.5 108.5t-188 39t-188 -41.5t-123.5 -112t-68 -163.5t-20.5 -197z" />
<glyph unicode="R" horiz-adv-x="1112" d="M172 26v1198q0 39 20.5 54.5t43.5 15.5h275q49 0 81.5 -2.5t58.5 -5.5q75 -13 132.5 -41t96.5 -71t58.5 -98.5t19.5 -122.5q0 -65 -17.5 -116.5t-50.5 -91t-79 -68.5t-103 -49q32 -14 58 -35.5t48.5 -51.5t42.5 -69t40 -88l116 -285q14 -36 18 -50.5t4 -22.5t-3 -14 t-13 -10t-28 -6t-48 -2q-26 0 -42.5 2t-26.5 6.5t-15.5 12.5t-9.5 20l-119 305q-21 52 -43.5 95.5t-53.5 75t-73 49t-101 17.5h-115v-551q0 -8 -4.5 -14t-14 -9.5t-26 -6t-41.5 -2.5t-41.5 2.5t-26.5 6t-14 9.5t-4 14zM344 716h168q68 0 117.5 16.5t82.5 46t48.5 69.5 t15.5 87q0 76 -34 128.5t-114 75.5q-25 7 -56.5 10t-82.5 3h-145v-436z" />
<glyph unicode="S" horiz-adv-x="941" d="M71 161q0 22 2 36.5t6 23.5t10 12.5t14 3.5q14 0 39.5 -17t65.5 -37t96.5 -37.5t130.5 -17.5q56 0 102.5 15t80 42.5t51.5 67.5t18 91q0 55 -25 94t-66 68.5t-93.5 54t-107.5 50t-107 56.5t-93 73t-66.5 98.5t-25.5 135.5q0 81 29.5 144.5t82 106.5t125 65.5t156.5 22.5 q43 0 86.5 -7.5t82 -20t68.5 -28t39.5 -25t12.5 -15t5 -14t3 -20.5t1 -31q0 -18 -1.5 -32t-4.5 -23.5t-8.5 -14t-12.5 -4.5q-11 0 -34.5 14t-57.5 31.5t-80.5 32t-104.5 14.5q-54 0 -94 -14.5t-66 -38.5t-39 -57t-13 -70q0 -54 25 -93t66.5 -69t94.5 -55t108 -50.5t108 -56 t94.5 -72t67 -98t25.5 -133.5q0 -91 -33.5 -162t-93 -120.5t-140 -74.5t-173.5 -25q-65 0 -120.5 11t-99 27t-73 33t-41 29t-17 30.5t-5.5 49.5z" />
<glyph unicode="T" horiz-adv-x="998" d="M15 1220q0 19 2.5 33.5t6.5 23.5t10.5 13t14.5 4h900q8 0 14.5 -4t11 -13t6.5 -23.5t2 -33.5t-2 -33t-6.5 -22.5t-11 -12.5t-14.5 -4h-364v-1122q0 -8 -4 -14t-14 -9.5t-26.5 -6t-41.5 -2.5q-24 0 -41 2.5t-27 6t-14 9.5t-4 14v1122h-364q-8 0 -14.5 4t-10.5 12.5 t-6.5 22.5t-2.5 33z" />
<glyph unicode="U" horiz-adv-x="1314" d="M170 465v803q0 8 4 14t14 9.5t26 6t42 2.5q24 0 41 -2.5t26.5 -6t13.5 -9.5t4 -14v-782q0 -90 22 -157t63.5 -111.5t100 -67t131.5 -22.5q75 0 133.5 22t99 66t62 109t21.5 152v791q0 8 4 14t14 9.5t26.5 6t41.5 2.5q24 0 40.5 -2.5t26 -6t14 -9.5t4.5 -14v-790 q0 -118 -34.5 -210.5t-98.5 -156.5t-156 -97t-209 -33q-107 0 -195 31t-151 91.5t-97 151.5t-34 210z" />
<glyph unicode="V" horiz-adv-x="1162" d="M34 1270q0 12 9 19t29 9t54 2q28 0 44.5 -1.5t25.5 -5.5t13.5 -10.5t8.5 -16.5l371 -1089h1l361 1087q3 11 7 18t14 11t28 5.5t48 1.5q31 0 49 -2q19 -3 25 -10q5 -6 5 -16q-1 -2 -1 -4q-2 -14 -9 -36l-422 -1202q-4 -11 -11 -18t-19.5 -11t-32 -5.5t-48.5 -1.5 q-22 0 -38.5 0.5t-28.5 2.5t-20.5 4.5t-14.5 6.5t-9.5 9.5t-6.5 13.5l-423 1202q-9 24 -9 37z" />
<glyph unicode="W" horiz-adv-x="1822" d="M61 1270q1 12 9 19t27 9t51 2q31 0 49 -1.5t27.5 -5.5t13 -11t5.5 -18l291 -1084h1l276 1082q3 11 7.5 18.5t14.5 11.5t28.5 6t48.5 2q28 0 44.5 -2t26.5 -6t14.5 -11.5t7.5 -18.5l297 -1082h2l285 1083q3 10 6 17.5t12.5 11.5t27 6t46.5 2q30 0 47.5 -2.5t25.5 -9.5 t8 -18v-2q0 -13 -6 -36l-343 -1194q-4 -14 -12 -22.5t-22 -13t-34.5 -6.5t-50.5 -2q-31 0 -52.5 2t-35.5 6.5t-21 13t-11 22.5l-271 977h-2l-250 -977q-3 -14 -10 -22.5t-20 -13t-33.5 -6.5t-52.5 -2q-33 0 -55 2t-36 6.5t-21.5 13t-10.5 22.5l-342 1195q-7 25 -7 37z" />
<glyph unicode="X" horiz-adv-x="1063" d="M50 27q2 13 16 35l353 595l-337 575q-12 22 -15.5 35.5t4.5 21t28 9.5t55 2q30 0 49 -1.5t30 -5t16 -10t11 -14.5l278 -484l276 484q5 8 10 14.5t14.5 10t26.5 5t46 1.5q31 0 50.5 -2.5t28 -9.5t6.5 -20.5t-14 -35.5l-336 -571l350 -599q14 -22 16 -35q1 -3 0 -5 q0 -10 -7 -16q-9 -8 -29.5 -10t-54.5 -2q-32 0 -50 1.5t-28.5 5.5t-16 9.5t-9.5 14.5l-288 515l-291 -515q-5 -9 -11 -15t-16.5 -9.5t-28.5 -5t-48 -1.5q-33 0 -52 2q-18 2 -26 10q-6 6 -6 15q-1 3 0 6z" />
<glyph unicode="Y" horiz-adv-x="998" d="M32 1269v6q0 9 6 14q7 7 26.5 9t52.5 2q30 0 48.5 -2t29.5 -5.5t16.5 -10t10.5 -16.5l179 -372q25 -53 50 -111t51 -117h2q23 57 47.5 113.5t49.5 111.5l180 374q3 10 8.5 17t15 10.5t26.5 5.5t43 2q36 0 56.5 -2.5t28.5 -9.5q6 -5 6 -14q0 -3 -1 -6q-2 -13 -13 -35 l-366 -730v-477q0 -8 -4 -14t-14 -9.5t-27 -6t-41 -2.5q-25 0 -41.5 2.5t-27 6t-14.5 9.5t-4 14v477l-366 730q-11 23 -14 36z" />
<glyph unicode="Z" horiz-adv-x="959" d="M59 67v37q0 13 1.5 24t6.5 23.5t14 28t22 36.5l597 934h-590q-10 0 -17 4t-11.5 12.5t-6.5 22t-2 31.5q0 20 2 34t6.5 23t11.5 13t17 4h720q27 0 42.5 -15.5t15.5 -47.5v-39q0 -16 -2 -28.5t-7 -25.5t-13.5 -28t-22.5 -35l-594 -930h632q17 0 26 -17t9 -56 q0 -19 -2 -32.5t-6.5 -22.5t-11 -13t-15.5 -4h-764q-26 0 -42 16t-16 51z" />
<glyph unicode="[" horiz-adv-x="628" d="M191 -250v1579q0 19 5.5 32.5t14.5 22t20 12t23 3.5h256q6 0 11.5 -3t9.5 -11t6 -19.5t2 -28.5q0 -32 -7.5 -46t-21.5 -14h-163v-1476h163q6 0 11.5 -3t9.5 -10.5t6 -19t2 -28.5q0 -33 -7.5 -46.5t-21.5 -13.5h-256q-12 0 -23 3.5t-20 11.5t-14.5 21.5t-5.5 33.5z" />
<glyph unicode="\" horiz-adv-x="791" d="M11 1440q0 10 8 15t24.5 6.5t43.5 1.5q26 0 42 -1t26 -4.5t14.5 -8.5t7.5 -13l606 -1659q6 -17 6 -27t-8 -15t-24.5 -7t-43.5 -2q-26 0 -42 1.5t-25.5 4t-14.5 8.5t-8 14l-605 1659q-7 17 -7 27z" />
<glyph unicode="]" horiz-adv-x="628" d="M90 -260q0 17 1.5 28.5t5.5 19t9.5 10.5t12.5 3h163v1476h-163q-14 0 -21.5 14t-7.5 46q0 17 1.5 28.5t5.5 19.5t9.5 11t12.5 3h255q12 0 23.5 -3.5t20.5 -12t14.5 -22t5.5 -32.5v-1579q0 -20 -5.5 -33.5t-14.5 -21.5t-20.5 -11.5t-23.5 -3.5h-255q-14 0 -21.5 13.5 t-7.5 46.5z" />
<glyph unicode="^" horiz-adv-x="1020" d="M106.5 594q0.5 11 8.5 30l284 648q3 9 11 15.5t20.5 10.5t30.5 6t42 2q26 0 44 -2t30 -6t20 -10.5t12 -15.5l291 -648q8 -19 9 -30.5t-7 -17.5t-25.5 -7.5t-46.5 -1.5q-26 0 -43.5 1.5t-28.5 5.5t-16.5 10t-9.5 14l-232 551l-3 -3l-219 -548q-3 -8 -8.5 -14t-16.5 -10 t-27.5 -5.5t-42.5 -1.5q-29 0 -45.5 1.5t-24 8t-7 17.5z" />
<glyph unicode="_" horiz-adv-x="1020" d="M-7 -300q0 34 9 51t26 17h963q16 0 24.5 -16t8.5 -50q0 -35 -8 -51t-25 -16h-963q-17 0 -26 15t-9 50z" />
<glyph unicode="`" horiz-adv-x="596" d="M0 951zM132 1373.5q-1 8.5 6 15t24.5 10t45.5 3.5q24 0 40.5 -2t27.5 -6t19 -11t16 -18l144 -231q7 -11 9 -19t-3.5 -13t-18 -8t-34.5 -3q-20 0 -33 1.5t-22.5 5t-16.5 9.5t-14 16l-181 233q-8 9 -9 17.5z" />
<glyph unicode="a" horiz-adv-x="981" d="M92 255q0 76 31 132t89 93t142 55.5t189 18.5h124v70q0 52 -11 92t-35.5 66.5t-63.5 40t-96 13.5q-61 0 -109.5 -14.5t-85 -32t-61 -32t-36.5 -14.5q-8 0 -14 4t-10.5 12t-6.5 20.5t-2 27.5q0 25 3.5 39.5t17 27.5t46.5 30.5t76 32t94 24t103 9.5q97 0 165 -22t110 -64.5 t61 -105.5t19 -147v-607q0 -12 -8 -18t-22 -9t-41 -3q-26 0 -41.5 3t-22.5 9t-7 18v90q-59 -63 -131.5 -98t-153.5 -35q-71 0 -128.5 18.5t-98 53.5t-63 86t-22.5 116zM261 263q0 -70 44.5 -111.5t124.5 -41.5q65 0 120.5 33t116.5 101v191h-141q-68 0 -118 -11.5t-83 -34 t-48.5 -54t-15.5 -72.5z" />
<glyph unicode="b" horiz-adv-x="1076" d="M153 25v1336q0 8 3.5 14t13 10t25.5 6t40 2q25 0 41 -2t25 -6t13 -10t4 -14v-539q40 41 77.5 69t73.5 45.5t72 25.5t76 8q98 0 167.5 -39t113 -104.5t63.5 -153.5t20 -186q0 -117 -25.5 -210.5t-75 -159.5t-121.5 -101t-165 -35q-43 0 -79.5 8.5t-71.5 27.5t-70 48 t-74 70v-110q0 -8 -4 -14t-13 -9.5t-22.5 -5.5t-34.5 -2q-20 0 -34 2t-23 5.5t-12 9.5t-3 14zM318 293q68 -83 130 -126.5t129 -43.5q62 0 106 30t71.5 79.5t40 111t12.5 124.5q0 69 -10.5 134t-36.5 115t-69 80.5t-107 30.5q-32 0 -63 -9t-63 -30t-66.5 -54t-73.5 -83v-359 z" />
<glyph unicode="c" horiz-adv-x="866" d="M90 464q0 133 32.5 228.5t89 156.5t133 90.5t165.5 29.5q43 0 83.5 -8t74.5 -21t60.5 -30t38.5 -29t16.5 -19t7.5 -16.5t4 -21.5t1 -30q0 -39 -9 -54.5t-22 -15.5q-15 0 -34.5 16.5t-49.5 36.5t-72.5 36.5t-100.5 16.5q-119 0 -182.5 -91.5t-63.5 -265.5 q0 -87 16.5 -152.5t48.5 -109.5t78.5 -65.5t106.5 -21.5q57 0 100 18t74.5 39.5t53 39t33.5 17.5q7 0 12 -4t8.5 -13.5t5 -24t1.5 -34.5q0 -17 -1 -29.5t-3.5 -21t-6 -15t-16 -19t-42.5 -31t-67.5 -33t-81.5 -23.5t-91 -9q-97 0 -172 32t-125.5 93.5t-77 151t-26.5 206.5z " />
<glyph unicode="d" horiz-adv-x="1076" d="M96 464q0 116 25 209.5t74 159.5t121.5 101.5t167.5 35.5q79 0 144.5 -34.5t129.5 -101.5v523q0 7 3.5 13.5t13.5 10t25.5 6t39.5 2.5q25 0 41 -2.5t25 -6t13.5 -10t4.5 -13.5v-1332q0 -8 -3.5 -14t-12 -9.5t-22.5 -5.5t-34 -2q-21 0 -35 2t-23 5.5t-13 9.5t-4 14v119 q-71 -77 -147.5 -120t-167.5 -43q-99 0 -169 38.5t-113.5 104t-63.5 154t-20 186.5zM267 482q0 -68 10.5 -133t36.5 -115.5t69 -81t108 -30.5q33 0 63.5 9t62.5 30t67 54.5t74 82.5v360q-67 83 -129.5 126.5t-130.5 43.5q-63 0 -107 -30t-71.5 -79t-40 -111t-12.5 -126z" />
<glyph unicode="e" horiz-adv-x="1019" d="M93 471q0 116 30 208.5t86.5 157t136.5 99t179 34.5q106 0 180.5 -34t122.5 -91.5t70.5 -135t22.5 -165.5v-30q0 -39 -19.5 -55.5t-44.5 -16.5h-590q0 -75 15 -135t50 -103t91 -66t137 -23q64 0 114 10.5t86.5 23.5t60 23.5t35.5 10.5q7 0 12.5 -3.5t8.5 -10.5t4.5 -19.5 t1.5 -30.5q0 -13 -1 -22.5t-2.5 -17t-5 -13.5t-9 -11.5t-32.5 -18t-70 -24.5t-99.5 -21.5t-120.5 -9.5q-111 0 -194.5 31t-140.5 92t-86 153t-29 214zM267 563h488v12q1 121 -57 192q-60 74 -180 74q-61 0 -107 -23t-77 -61t-48 -88.5t-19 -105.5z" />
<glyph unicode="f" horiz-adv-x="625" d="M37 882q0 19 2 32t6 21.5t10 12t14 3.5h127v93q0 94 17.5 161.5t53.5 110.5t90.5 63.5t128.5 20.5q35 0 68 -6.5t51 -14t24 -13.5t10 -15.5t5.5 -23t1.5 -32.5t-2 -30.5t-4.5 -18.5t-6.5 -9.5t-10 -2.5q-7 0 -17.5 4.5t-25.5 10t-35.5 10t-47.5 4.5q-37 0 -63 -12 t-42 -37.5t-23 -66t-7 -98.5v-98h201q8 0 13.5 -3.5t10 -12t7 -21.5t2.5 -32q0 -36 -9 -52t-24 -16h-201v-789q0 -8 -4 -13.5t-13.5 -9.5t-25.5 -6t-40 -2t-40 2t-25.5 6t-13.5 9.5t-4 13.5v789h-127q-16 0 -24 16t-8 52z" />
<glyph unicode="g" horiz-adv-x="964" d="M53 -123q0 33 8 64t24.5 59t41 53.5t56.5 50.5q-49 25 -72.5 63t-23.5 82q0 61 25 109t62 86q-31 37 -49 83.5t-18 112.5q0 77 26 138t72 103t110.5 64.5t140.5 22.5q41 0 76.5 -4.5t66.5 -12.5h272q17 0 25.5 -16.5t8.5 -50.5q0 -35 -9.5 -50.5t-24.5 -15.5h-129 q35 -36 49 -79.5t14 -90.5q0 -78 -25 -138t-71.5 -101.5t-110.5 -63.5t-142 -22q-55 0 -104.5 14.5t-76.5 36.5q-18 -18 -29.5 -41t-11.5 -53q0 -35 32.5 -58t86.5 -25l235 -10q67 -2 123 -18.5t97 -47t64 -75t23 -103.5q0 -62 -26 -118t-79.5 -98.5t-136.5 -67t-196 -24.5 q-109 0 -185.5 18.5t-125.5 50.5t-71 76.5t-22 96.5zM215 -107q0 -65 66 -98.5t184 -33.5q75 0 125.5 14.5t81.5 38.5t44.5 55t13.5 65q0 58 -47.5 89.5t-128.5 33.5l-233 8q-32 -25 -52.5 -47.5t-32.5 -43t-16.5 -40.5t-4.5 -41zM264 641q0 -89 50.5 -140t141.5 -51 q49 0 85 15.5t59.5 43t35 63.5t11.5 75q0 92 -50.5 143.5t-143.5 51.5q-48 0 -83.5 -16t-59 -44t-35 -64.5t-11.5 -76.5z" />
<glyph unicode="h" horiz-adv-x="1076" d="M153 25v1336q0 8 3.5 14t13 10t25.5 6t40 2q25 0 41 -2t25 -6t13 -10t4 -14v-539q71 75 143 111.5t145 36.5q90 0 151.5 -30.5t99.5 -81.5t54.5 -119.5t16.5 -165.5v-548q0 -8 -4 -13.5t-13 -9.5t-25 -6t-40 -2q-25 0 -41 2t-25 6t-13 9.5t-4 13.5v527q0 77 -12 124 t-35 81t-59.5 52t-84.5 18q-62 0 -124 -44t-130 -129v-629q0 -8 -4 -13.5t-13 -9.5t-25 -6t-41 -2q-24 0 -40 2t-25.5 6t-13 9.5t-3.5 13.5z" />
<glyph unicode="i" horiz-adv-x="470" d="M133 1227q0 58 22 79t81 21q58 0 79.5 -20.5t21.5 -77.5q0 -58 -22 -79t-81 -21q-58 0 -79.5 20.5t-21.5 77.5zM153 25v900q0 7 3.5 13t13 10t25.5 6t40 2q25 0 41 -2t25 -6t13 -10t4 -13v-900q0 -8 -4 -13.5t-13 -9.5t-25 -6t-41 -2q-24 0 -40 2t-25.5 6t-13 9.5 t-3.5 13.5z" />
<glyph unicode="j" horiz-adv-x="490" d="M-43 -286q0 18 1.5 31t5 21t8 11.5t11.5 3.5q6 0 23.5 -2.5t40.5 -2.5q33 0 56.5 10t38.5 32.5t22 58.5t7 109v939q0 7 4 13t13.5 10t25.5 6t40 2t40 -2t25.5 -6t13.5 -10t4 -13v-940q0 -100 -15 -161.5t-47 -103.5t-82 -63.5t-121 -21.5q-32 0 -54.5 4t-34.5 9 t-16.5 11.5t-6.5 15t-2.5 17.5t-0.5 22zM153 1227q0 58 21.5 79t80.5 21t80 -20.5t21 -77.5q0 -58 -22 -79t-81 -21q-58 0 -79 20.5t-21 77.5z" />
<glyph unicode="k" horiz-adv-x="931" d="M153 25v1336q0 8 3.5 14t13 10t25.5 6t40 2q25 0 41 -2t25 -6t13 -10t4 -14v-814l340 374q8 10 17 16.5t21.5 11t29.5 6t41 1.5q25 0 42 -1.5t27.5 -5t15 -9t4.5 -14.5q0 -12 -6.5 -24t-21.5 -28l-326 -326l366 -475q13 -17 18.5 -27.5t5.5 -19.5q0 -8 -4 -14t-13.5 -10 t-26.5 -6t-43 -2q-27 0 -44.5 1.5t-29.5 5t-19.5 10t-13.5 15.5l-380 498v-499q0 -8 -4 -13.5t-13 -9.5t-25 -6t-41 -2q-24 0 -40 2t-25.5 6t-13 9.5t-3.5 13.5z" />
<glyph unicode="l" horiz-adv-x="470" d="M153 25v1336q0 8 3.5 14t13 10t25.5 6t40 2q25 0 41 -2t25 -6t13 -10t4 -14v-1336q0 -8 -4 -13.5t-13 -9.5t-25 -6t-41 -2q-24 0 -40 2t-25.5 6t-13 9.5t-3.5 13.5z" />
<glyph unicode="m" horiz-adv-x="1636" d="M153 25v900q0 8 3 13.5t12 10t23 6t37 1.5q22 0 36.5 -1.5t22.5 -6t11.5 -10t3.5 -13.5v-119q76 85 147.5 124.5t144.5 39.5q56 0 100.5 -13t78.5 -36.5t58 -56t40 -72.5q45 49 85.5 83t78 55t73 30.5t71.5 9.5q87 0 146 -30.5t95.5 -81.5t52 -119.5t15.5 -144.5v-569 q0 -8 -4 -13.5t-13 -9.5t-25 -6t-40 -2q-25 0 -41 2t-25.5 6t-13.5 9.5t-4 13.5v547q0 57 -10 104t-32 81t-56 52t-80 18q-57 0 -114.5 -44t-126.5 -129v-629q0 -8 -4 -13.5t-13.5 -9.5t-25.5 -6t-40 -2q-23 0 -39.5 2t-26 6t-13 9.5t-3.5 13.5v547q0 57 -11 104t-33 81 t-55.5 52t-79.5 18q-57 0 -115 -44t-126 -129v-629q0 -8 -4 -13.5t-13 -9.5t-25 -6t-41 -2q-24 0 -40 2t-25.5 6t-13 9.5t-3.5 13.5z" />
<glyph unicode="n" horiz-adv-x="1076" d="M153 25v900q0 8 3 13.5t12 10t23 6t37 1.5q22 0 36.5 -1.5t22.5 -6t11.5 -10t3.5 -13.5v-119q76 85 151.5 124.5t152.5 39.5q90 0 151.5 -30.5t99.5 -81.5t54.5 -119.5t16.5 -164.5v-549q0 -8 -4 -13.5t-13 -9.5t-25 -6t-40 -2q-25 0 -41 2t-25 6t-13 9.5t-4 13.5v527 q0 77 -12 124t-35 81t-59.5 52t-84.5 18q-62 0 -124 -44t-130 -129v-629q0 -8 -4 -13.5t-13 -9.5t-25 -6t-41 -2q-24 0 -40 2t-25.5 6t-13 9.5t-3.5 13.5z" />
<glyph unicode="o" horiz-adv-x="1080" d="M90 467q0 110 28.5 202.5t86 159.5t143.5 104t201 37q111 0 193.5 -33t137.5 -96t82.5 -153t27.5 -203q0 -110 -29 -202.5t-86.5 -159.5t-144 -104.5t-200.5 -37.5q-111 0 -193.5 33t-137.5 96t-82 153t-27 204zM263 478q0 -74 13.5 -139t45 -113.5t84.5 -77t132 -28.5 q72 0 125 26t87 73t50 112t16 143q0 73 -13.5 138t-44.5 114t-84 77.5t-132 28.5q-73 0 -125.5 -26t-86.5 -73.5t-50.5 -112.5t-16.5 -142z" />
<glyph unicode="p" horiz-adv-x="1076" d="M153 -332v1257q0 9 3 14.5t12 9.5t23 5.5t34 1.5q21 0 34.5 -1.5t22.5 -5.5t12.5 -9.5t3.5 -14.5v-121q41 42 79 73t76.5 51.5t79 31t85.5 10.5q98 0 167 -38t112.5 -104t63.5 -153.5t20 -185.5q0 -118 -25.5 -212t-75 -159.5t-122.5 -101t-167 -35.5q-40 0 -74 8 t-66.5 25t-64.5 43t-68 61v-450q0 -8 -4 -14t-13 -10t-25 -6t-41 -2q-24 0 -40 2t-25.5 6t-13 10t-3.5 14zM318 294q68 -83 129 -127t128 -44q62 0 106.5 30t72 80t40.5 112t13 125q0 69 -10.5 133.5t-36 114.5t-68.5 80t-107 30q-32 0 -63 -9.5t-63 -30t-67 -54t-74 -82.5 v-358z" />
<glyph unicode="q" horiz-adv-x="1076" d="M96 464q0 116 25 209.5t74.5 159.5t122 101.5t167.5 35.5q40 0 75 -8.5t69.5 -27t70 -48t77.5 -70.5v109q0 9 4 14.5t13 9.5t23 5.5t35 1.5q20 0 34 -1.5t22.5 -5.5t12 -9.5t3.5 -14.5v-1257q0 -8 -4.5 -14t-13.5 -10t-25 -6t-40 -2q-25 0 -40.5 2t-25.5 6t-13.5 10 t-3.5 14v461q-41 -41 -78 -69.5t-73 -46t-72.5 -25t-75.5 -7.5q-98 0 -167 38.5t-112.5 104t-63.5 154t-20 186.5zM267 482q0 -69 10.5 -134t36.5 -115t69 -80.5t108 -30.5q33 0 63.5 9t62.5 30t67 54.5t74 82.5v360q-67 83 -129.5 126.5t-130.5 43.5q-63 0 -107 -30 t-71.5 -79t-40 -111t-12.5 -126z" />
<glyph unicode="r" horiz-adv-x="714" d="M153 25v900q0 8 3 13.5t12 10t23 6t37 1.5q22 0 36.5 -1.5t22.5 -6t11.5 -10t3.5 -13.5v-131q37 54 69.5 88t61.5 53.5t57.5 27t57.5 7.5q13 0 29.5 -1.5t34.5 -5.5t32.5 -9t20.5 -10t8 -9.5t3.5 -11.5t2 -20.5t0.5 -36.5q0 -22 -1 -37t-4 -23.5t-7.5 -13t-12.5 -4.5 t-19.5 4.5t-26 9t-32.5 8.5t-39 4q-25 0 -49 -10t-50.5 -33t-55.5 -61t-64 -93v-592q0 -8 -4 -13.5t-13 -9.5t-25 -6t-41 -2q-24 0 -40 2t-25.5 6t-13 9.5t-3.5 13.5z" />
<glyph unicode="s" horiz-adv-x="801" d="M81 131q0 19 2 32t5 21t8.5 11.5t12.5 3.5q11 0 32.5 -13.5t53 -29.5t74.5 -29.5t99 -13.5q42 0 76 9t59 26.5t38.5 44.5t13.5 64q0 38 -19.5 64t-51.5 46t-72 35.5t-82.5 32.5t-83 38.5t-72.5 52.5t-51.5 74t-19.5 103q0 53 20.5 101.5t61.5 85t102.5 58.5t143.5 22 q36 0 72 -6t65 -15t49.5 -19.5t31 -18.5t14 -14t5 -13.5t3 -18.5t1.5 -27q0 -17 -1.5 -29.5t-5 -20.5t-8.5 -11.5t-11 -3.5q-9 0 -26 11t-44 23.5t-63.5 23.5t-83.5 11q-42 0 -74 -9.5t-52.5 -27t-31 -41.5t-10.5 -52q0 -39 20 -65.5t52 -46.5t73 -36t83.5 -33t84 -38 t73.5 -51t51.5 -72t19.5 -100q0 -69 -25.5 -123t-72.5 -91t-112 -56t-143 -19q-48 0 -91.5 7.5t-78 19t-58.5 24t-35 22.5t-16 28t-5 49z" />
<glyph unicode="t" horiz-adv-x="686" d="M33 882q0 19 2.5 32t6.5 21.5t10.5 12t14.5 3.5h125v214q0 7 3.5 13t13 10.5t25.5 6.5t40 2q25 0 41 -2t25 -6.5t13 -10.5t4 -13v-214h231q8 0 14 -3.5t10.5 -12t6.5 -21.5t2 -32q0 -36 -9 -52t-24 -16h-231v-502q0 -93 27.5 -140.5t98.5 -47.5q23 0 41 4.5t32 9.5 t24 9.5t18 4.5q5 0 9.5 -2.5t7 -9.5t4.5 -19t2 -30q0 -29 -4 -46t-12 -25t-24 -15t-36.5 -11.5t-43.5 -7.5t-46 -3q-70 0 -120 18.5t-82 56t-46.5 95t-14.5 135.5v526h-126q-15 0 -24 16t-9 52z" />
<glyph unicode="u" horiz-adv-x="1076" d="M148 379v546q0 8 3.5 13.5t13.5 10t26 6t40 1.5t40 -1.5t25.5 -6t13.5 -10t4 -13.5v-524q0 -79 11.5 -126.5t35 -81t59.5 -52t84 -18.5q62 0 123.5 44t130.5 129v629q0 8 3.5 13.5t13.5 10t25.5 6t40.5 1.5q24 0 40 -1.5t25 -6t13.5 -10t4.5 -13.5v-900q0 -8 -3.5 -13.5 t-12.5 -9.5t-23.5 -6t-35.5 -2q-23 0 -37.5 2t-23 6t-11.5 9.5t-3 13.5v119q-77 -85 -152 -124t-152 -39q-90 0 -151.5 30t-99.5 81.5t-54.5 120t-16.5 166.5z" />
<glyph unicode="v" horiz-adv-x="925" d="M34 927q0 8 4 14t13.5 9.5t25 4.5t38.5 1q29 0 46.5 -1.5t27 -5.5t14 -10t8.5 -15l254 -742l4 -12l3 12l251 742q2 9 7 15t14.5 10t26 5.5t43.5 1.5q23 0 38 -1t23.5 -5t12 -9.5t3.5 -13.5q0 -4 -0.5 -8.5t-1.5 -9.5t-2.5 -11t-3.5 -13l-307 -855q-4 -11 -10.5 -18 t-19.5 -11t-33 -5.5t-50 -1.5t-50 2t-32.5 6t-19.5 11t-11 17l-306 855q-4 12 -6.5 21t-3 13.5t-0.5 7.5z" />
<glyph unicode="w" horiz-adv-x="1464" d="M53 927q0 9 4 14.5t13.5 9t25.5 4.5t39 1q28 0 45 -1.5t26 -5t13 -10t7 -15.5l217 -742l2 -9l2 9l199 742q2 9 6.5 15.5t13.5 10t24.5 5t40.5 1.5q24 0 39.5 -1.5t24.5 -5t13 -9.5t6 -14l215 -744l2 -9l1 9l214 742q2 9 6.5 15.5t14 10t26 5t42.5 1.5q24 0 38.5 -1t23 -5 t12 -9t3.5 -14q0 -7 -2 -17t-7 -25l-265 -855q-3 -11 -9.5 -18t-18 -11t-31.5 -5.5t-50 -1.5q-31 0 -52 2t-33.5 6t-18.5 11t-9 17l-189 653l-2 9l-2 -9l-175 -653q-3 -11 -9.5 -18t-19.5 -11t-33.5 -5.5t-50.5 -1.5q-31 0 -50.5 2t-32 6t-18.5 11t-9 17l-263 855 q-5 15 -7 25t-2 17z" />
<glyph unicode="x" horiz-adv-x="887" d="M51 44l280 439l-265 423q-8 14 -8.5 23.5t9 16t29 8.5t51.5 2q29 0 46.5 -1.5t27.5 -4.5t15 -8t9 -12l205 -335l208 335q4 6 9 11t13.5 8.5t24 5t42.5 1.5q29 0 47.5 -2t27.5 -7.5t8 -15.5t-10 -25l-263 -418l278 -444q8 -14 8 -23.5t-9.5 -15.5t-29 -8.5t-50.5 -2.5 q-30 0 -47.5 1.5t-28 5t-16 9t-9.5 12.5l-216 357l-215 -357q-4 -7 -9.5 -12.5t-16 -9t-27.5 -5t-45 -1.5q-29 0 -47.5 2.5t-26.5 8.5t-9 14q0 10 10 25z" />
<glyph unicode="y" horiz-adv-x="927" d="M34 925q0 12 8 19t26 9.5t48 2.5t47 -1.5t27 -5.5t14.5 -11.5t9.5 -20.5l257 -722h3l248 726q6 19 14.5 24.5t25.5 8t49 2.5q28 0 46 -2.5t26.5 -9.5t8.5 -19t-6 -30l-323 -895l-120 -331q-6 -16 -30.5 -24.5t-74.5 -8.5q-26 0 -42 2.5t-24.5 8.5t-9.5 16t5 24l124 313 q-9 4 -17 13t-11 19l-321 860q-8 21 -8 33z" />
<glyph unicode="z" horiz-adv-x="809" d="M89 61v34q0 14 2 25t6 22t11 23.5t17 28.5l397 618h-385q-16 0 -25.5 16.5t-9.5 53.5q0 18 2 31.5t6.5 22t11 12t15.5 3.5h516q11 0 19.5 -3t14.5 -10t9.5 -18t3.5 -28v-32q0 -14 -2 -26t-6 -23.5t-11 -24.5t-17 -29l-395 -618h422q8 0 14.5 -3.5t11 -11.5t7.5 -21.5 t3 -32.5t-3 -32.5t-7 -22t-11 -12t-15 -3.5h-554q-21 0 -34.5 14t-13.5 47z" />
<glyph unicode="{" horiz-adv-x="644" d="M86 565q0 16 1.5 27t5 18.5t9.5 10.5t15 5q74 8 110.5 71.5t36.5 187.5v161q0 105 9.5 169t35 107t68 64.5t108.5 21.5q19 0 31.5 -0.5t30.5 -4.5q7 0 13.5 -3.5t11 -10.5t6.5 -18.5t2 -27.5q0 -17 -2 -28.5t-6.5 -19.5t-11 -11t-14.5 -3l-41 -1q-24 0 -41 -8.5 t-27.5 -33t-16 -67.5t-5.5 -132v-146q0 -73 -8 -124.5t-28.5 -92.5t-54.5 -70.5t-86 -40.5q52 -10 86 -39.5t54.5 -71t28.5 -92.5t8 -125v-190q0 -88 5 -131t15.5 -67.5t27 -33.5t39.5 -9l42 -1q9 0 16 -3t11.5 -10.5t6.5 -19t2 -29.5q0 -16 -2 -27.5t-6.5 -18t-10.5 -10.5 t-12 -4q-18 -4 -31.5 -4.5t-32.5 -0.5q-67 0 -110 21.5t-68 64t-34 106.5t-9 170v206q0 68 -8.5 110t-26 73.5t-45 51t-66.5 23.5q-9 2 -15 5.5t-9.5 10.5t-5.5 18.5t-2 26.5z" />
<glyph unicode="|" horiz-adv-x="943" d="M394 -333v1736q0 7 3.5 13t12.5 10t24 6t37 2q23 0 38 -2t24 -6t12.5 -10t3.5 -13v-1736q0 -8 -3.5 -14t-12.5 -10t-24 -6t-38 -2q-22 0 -37 2t-24 6t-12.5 10t-3.5 14z" />
<glyph unicode="}" horiz-adv-x="644" d="M117 -257q0 17 3 28.5t7.5 19.5t10.5 11t13 3l43 1q24 0 41 9t28 33t16 67t5 132v146q0 74 8.5 132t28.5 108t54.5 86t85.5 47q-51 10 -85.5 32t-54.5 55.5t-28.5 77.5t-8.5 118v190q0 89 -5 131.5t-15.5 67t-27 33.5t-39.5 9l-40 1q-11 0 -18.5 3t-12.5 10.5t-7 19 t-2 29.5q0 16 2.5 27.5t7 18.5t11 10.5t15.5 3.5q17 4 30 4.5t32 0.5q66 0 109 -21.5t68 -64t34.5 -106.5t9.5 -170v-206q0 -68 8.5 -102.5t26 -57.5t45 -35.5t66.5 -17.5q8 0 14 -4t10 -11.5t5.5 -18t1.5 -26.5t-1.5 -27t-5 -18t-9.5 -10.5t-14 -4.5q-42 -4 -70 -29.5 t-45.5 -65.5t-24.5 -89.5t-7 -121.5v-161q0 -105 -10 -169t-35 -107t-68 -64.5t-108 -21.5q-19 0 -32 1t-33 4q-7 0 -13 4t-10 10.5t-7 18t-3 27.5z" />
<glyph unicode="~" horiz-adv-x="1020" d="M61 825v27q0 69 19 121.5t53 88t81.5 53.5t103.5 18q47 0 82.5 -10.5t62.5 -27.5t48 -38.5t39 -44.5t34.5 -43t34.5 -35.5t39 -24.5t49 -9q33 0 56.5 13t38.5 36.5t22 55.5t7 70q0 16 16.5 21.5t48.5 5.5q19 0 32 -1.5t21 -5.5t11 -10t2 -15v-33q-2 -68 -24.5 -119 t-57.5 -85.5t-81 -52t-94 -17.5t-83 10.5t-62 28t-47.5 39.5t-39 45t-35.5 43t-35 35.5t-39 24.5t-48 9q-34 0 -57.5 -14.5t-38.5 -38.5t-21.5 -55t-6.5 -66q0 -18 -17 -23.5t-49 -5.5q-20 0 -32.5 2t-20 5.5t-10 9.5t-2.5 13z" />
<glyph unicode="&#xa2;" horiz-adv-x="1020" d="M185 633q0 116 25 203.5t70 148.5t107 96.5t136 47.5v147q0 7 3.5 13t12 10t22 6t34.5 2t35.5 -2t23 -6t11.5 -10t3 -13v-144q28 -3 56.5 -11.5t55 -20t50 -27t35.5 -27.5t16.5 -19t7.5 -16t4 -21t1 -29q0 -14 -1.5 -26.5t-5.5 -22.5t-11 -16t-16 -6q-16 0 -34.5 17 t-48 36.5t-72 36.5t-104.5 17q-51 0 -95 -19t-77.5 -61.5t-53 -110t-19.5 -165.5q0 -94 19.5 -160.5t54.5 -108.5t82.5 -61t103.5 -19t97.5 17.5t71 39t49.5 39.5t32 18q8 0 12.5 -5.5t8 -16t4.5 -25t1 -32.5q0 -32 -4.5 -48.5t-15.5 -28.5t-31.5 -26.5t-47 -28t-57.5 -24 t-68 -15.5v-147q0 -7 -3 -13t-11.5 -10t-22.5 -6t-35 -2t-35 2t-22.5 6t-11.5 10t-3 13v144q-168 21 -253.5 142.5t-85.5 337.5z" />
<glyph unicode="&#xa3;" d="M83 69q0 18 2.5 31.5t7.5 22t11.5 12.5t14.5 4h123v454h-123q-7 0 -13 3.5t-11.5 11.5t-8.5 20.5t-3 32.5q0 17 2.5 30t7.5 21.5t11.5 12t14.5 3.5h123v120q0 123 28 211t79.5 144t124.5 81.5t163 25.5q42 0 82.5 -7.5t75 -20.5t62 -30t41 -30t18.5 -21t8 -18t4 -22 t1 -30q0 -17 -2 -30t-6 -21.5t-9.5 -13t-12.5 -4.5q-14 0 -33.5 17t-49.5 37t-72.5 37t-101.5 17q-60 0 -103.5 -20.5t-71.5 -60.5t-42 -99t-14 -136v-126h328q8 0 14.5 -3.5t11 -12t7 -21.5t2.5 -30q0 -20 -3 -32.5t-8 -20.5t-11 -11.5t-13 -3.5h-328v-454h504q7 0 13.5 -4 t11.5 -12.5t7.5 -22t2.5 -31.5q0 -19 -3 -32t-8 -21t-11.5 -12t-12.5 -4h-796q-7 0 -13 4t-11.5 12t-8.5 21t-3 32z" />
<glyph unicode="&#xa5;" d="M55 1267.5q-3 13.5 5 20.5t28 9.5t54 2.5q27 0 44.5 -1.5t28.5 -5t17 -9.5t11 -15l150 -268q35 -63 67.5 -128t65.5 -130q33 65 65 130t67 128l149 268q4 9 9 15t14.5 9.5t27 5t46.5 1.5q31 0 49.5 -2.5t25.5 -9.5t3.5 -20.5t-15.5 -34.5l-362 -619v-54h276 q14 0 22 -14.5t8 -45.5q0 -35 -9 -48.5t-21 -13.5h-276v-158h276q14 0 22 -14.5t8 -45.5q0 -34 -9 -47.5t-21 -13.5h-276v-135q0 -8 -4 -13.5t-14 -9t-27 -5.5t-41 -2q-25 0 -41.5 2t-26.5 5.5t-14 9t-4 13.5v135h-276q-12 0 -21 13.5t-9 47.5q0 31 9 45.5t21 14.5h276v158 h-276q-12 0 -21 13.5t-9 48.5q0 31 9 45.5t21 14.5h276v54l-362 619q-13 21 -16 34.5z" />
<glyph unicode="&#xa8;" horiz-adv-x="804" d="M0 951zM132 1214q0 56 19.5 76t73.5 20q55 0 74 -20t19 -73q0 -55 -20 -75t-74 -20t-73 19.5t-19 72.5zM486 1214q0 56 19.5 76t73.5 20q55 0 74 -20t19 -73q0 -55 -20 -75t-74 -20t-73 19.5t-19 72.5z" />
<glyph unicode="&#xa9;" horiz-adv-x="1709" d="M175 665q0 186 43.5 324t129 229t213 136.5t295.5 45.5q175 0 302 -45.5t211 -132.5t124.5 -214.5t40.5 -291.5q0 -190 -44.5 -328.5t-131.5 -229t-214 -134t-292 -43.5q-169 0 -296 43t-211.5 128.5t-127 213.5t-42.5 299zM309 675q0 -143 31 -251.5t97.5 -181 t171.5 -109t253 -36.5q155 0 258 46.5t165 128.5t88.5 193.5t26.5 239.5q0 138 -29 245.5t-95 181.5t-171.5 113t-258.5 39q-136 0 -237 -38.5t-168 -114.5t-99.5 -190t-32.5 -266zM499 682q0 117 28.5 202t79 139.5t119.5 81t149 26.5q39 0 74.5 -7.5t66 -19.5t55.5 -28 t36.5 -27t15 -17t6 -14t3.5 -19t1 -24t-2 -24t-5 -19.5t-8.5 -13t-13.5 -4.5q-17 0 -34.5 14.5t-43 32t-62 32t-91.5 14.5q-107 0 -164.5 -81t-57.5 -236q0 -81 15 -140t44.5 -98.5t72.5 -58.5t99 -19q51 0 88 15.5t63.5 34.5t44.5 34.5t32 15.5q5 0 9.5 -3t7 -11t4 -21 t1.5 -31q0 -15 -1 -26t-3.5 -19.5t-5.5 -14.5t-12.5 -15t-33.5 -25t-56 -29.5t-72 -22t-85 -8.5q-89 0 -157 28t-114 83.5t-69.5 136t-23.5 186.5z" />
<glyph unicode="&#xab;" horiz-adv-x="1049" d="M117 523q0 20 15 42l217 347q5 8 10.5 13t14.5 8t22.5 4t35.5 1q25 0 40 -3t22 -9t7 -14t-6 -19l-212 -373l213 -373q6 -10 6.5 -18.5t-6 -15t-21.5 -9.5t-41 -3q-22 0 -35.5 1t-22.5 4t-14.5 8t-10.5 13l-221 353q-13 23 -13 43zM486 522.5q0 19.5 15 41.5l214 329 q5 7 10.5 12.5t14.5 8.5t23 3.5t36 0.5q25 0 40.5 -2.5t23 -8t8 -13t-5.5 -17.5l-215 -355l219 -361q6 -10 6 -17t-7.5 -12t-23 -7.5t-40.5 -2.5q-23 0 -37 0.5t-23 3.5t-14 7t-11 13l-219 336q-14 21 -14 40.5z" />
<glyph unicode="&#xad;" horiz-adv-x="627" d="M69 505q0 38 9 53t27 15h418q8 0 14.5 -3t11 -11.5t7 -21.5t2.5 -32q0 -39 -9 -54t-26 -15h-418q-18 0 -27 15.5t-9 53.5z" />
<glyph unicode="&#xae;" d="M128 1018q0 82 30.5 153t83.5 123.5t124.5 82.5t154.5 30q85 0 156.5 -29t123 -80.5t80.5 -122.5t29 -155q0 -82 -30.5 -153.5t-83.5 -124t-125 -83t-154 -30.5q-85 0 -156.5 29.5t-123 81t-80.5 122.5t-29 156zM218 1022q0 -70 22.5 -128t62.5 -99.5t95 -64t119 -22.5 q69 0 125 24.5t95.5 66t61 97t21.5 118.5q0 71 -22.5 129t-62.5 99.5t-95 63.5t-119 22q-69 0 -124.5 -24t-95.5 -66t-61.5 -97.5t-21.5 -118.5zM361 834v359q0 22 11 34.5t33 12.5h115q40 0 70.5 -7t52 -22t32.5 -37.5t11 -53.5q0 -48 -26 -74.5t-70 -37.5q24 -8 45 -27 t36 -57l24 -64q7 -23 7 -29q0 -4 -1.5 -7.5t-7.5 -5t-17 -2.5t-30 -1q-17 0 -27.5 1t-17 3.5t-10 7t-5.5 12.5l-21 69q-12 37 -28.5 51.5t-49.5 14.5h-27v-140q0 -11 -8.5 -15t-39.5 -4t-41 4t-10 15zM460 1050h44q42 0 58 16t16 42q0 11 -3 21t-11.5 17.5t-22.5 11.5t-35 4 h-46v-112z" />
<glyph unicode="&#xb4;" horiz-adv-x="598" d="M0 951zM132.5 1115q1.5 8 8.5 19l145 231q6 11 14 18t19.5 11t28.5 6t41 2q28 0 45.5 -3.5t24.5 -10t6 -15t-9 -17.5l-181 -233q-8 -10 -14.5 -16t-15 -9.5t-22 -5t-33.5 -1.5q-22 0 -35 3t-18.5 8t-4 13z" />
<glyph unicode="&#xb8;" horiz-adv-x="629" d="M132 -293q0 31 6.5 41.5t21.5 10.5h124q32 0 50 13.5t18 40.5q0 13 -6 32.5t-16 41.5l-51 113h145l34 -74q21 -45 30.5 -74.5t9.5 -55.5q0 -38 -14 -68t-40 -50.5t-62 -31.5t-81 -11q-34 0 -65.5 4.5t-54 9.5t-31 9t-12 10t-5 15t-1.5 24z" />
<glyph unicode="&#xbb;" horiz-adv-x="1049" d="M173 895q0 7 7.5 12t23 8t41.5 3q22 0 36.5 -1t23 -4t14 -7.5t10.5 -12.5l219 -336q14 -21 14 -40.5t-15 -41.5l-214 -329q-5 -8 -10 -13t-14 -7.5t-23 -3.5t-37 -1q-26 0 -41.5 2.5t-23 8t-7.5 13t7 17.5l215 355l-220 361q-6 10 -6 17zM545.5 910.5q-0.5 8.5 6.5 15 t22 9.5t40 3q22 0 35.5 -1t22.5 -4t14 -8t11 -13l220 -353q14 -23 14 -43t-15 -43l-217 -346q-5 -8 -10.5 -13t-14 -8t-22.5 -4t-36 -1q-25 0 -40 3t-22.5 9t-7 14t6.5 18l213 374l-214 373q-6 10 -6.5 18.5z" />
<glyph unicode="&#x2c6;" horiz-adv-x="809" d="M0 951zM133 1121.5q4 10.5 16 25.5l165 229q5 8 12 12.5t17.5 7.5t26 4.5t37.5 1.5q21 0 35 -1.5t24 -5t16.5 -8t11.5 -11.5l165 -229q11 -15 15 -25.5t-0.5 -17t-19.5 -10t-41 -3.5q-21 0 -33.5 1.5t-20.5 4.5t-13 9t-12 15l-130 180l-130 -180q-6 -10 -12 -15.5 t-14.5 -8.5t-21 -4.5t-31.5 -1.5q-27 0 -41.5 3.5t-19.5 10t-1 17z" />
<glyph unicode="&#x2da;" horiz-adv-x="657" d="M0 951zM132 1251q0 40 13 74t38.5 58.5t63 37.5t85.5 13q92 0 142.5 -47.5t50.5 -128.5q0 -41 -14 -74.5t-40 -58.5t-63 -38.5t-84 -13.5q-49 0 -85.5 13t-60 36.5t-35 56t-11.5 72.5zM238 1257q0 -44 20.5 -71.5t71.5 -27.5q44 0 66.5 26.5t22.5 66.5q0 41 -21.5 69.5 t-70.5 28.5q-44 0 -66.5 -25.5t-22.5 -66.5z" />
<glyph unicode="&#x2dc;" horiz-adv-x="922" d="M0 951zM129 1138q0 99 50 158t143 59q54 0 93 -20.5t70.5 -45t59 -45.5t59.5 -21q36 0 54.5 26.5t18.5 78.5q0 16 10.5 21.5t45.5 5.5q37 0 49 -7.5t12 -33.5q0 -106 -52 -162t-141 -56q-37 0 -66 9.5t-53 24.5t-44 32t-39.5 32t-38.5 24.5t-41 9.5q-40 0 -56 -29 t-16 -77q0 -7 -2 -12.5t-8.5 -8.5t-19 -4t-31.5 -1q-16 0 -27 1.5t-17.5 6t-9.5 13t-3 21.5z" />
<glyph unicode="&#x400;" horiz-adv-x="1000" d="M69 1294zM172 70v1154q0 39 20.5 54.5t43.5 15.5h614q8 0 14.5 -4t10.5 -13t6.5 -22.5t2.5 -33.5q0 -18 -2.5 -31.5t-6.5 -22t-10.5 -12.5t-14.5 -4h-506v-406h434q8 0 14.5 -4.5t11 -12.5t6.5 -22t2 -33q0 -18 -2 -31t-6.5 -21t-11 -11.5t-14.5 -3.5h-434v-463h513 q8 0 14.5 -4t11.5 -12.5t7 -22t2 -33.5q0 -18 -2 -31.5t-7 -22.5t-11.5 -13t-14.5 -4h-621q-23 0 -43.5 15.5t-20.5 54.5zM201.5 1657q-2.5 9 4.5 16t24.5 11.5t47.5 4.5q25 0 42.5 -1.5t30.5 -5.5t24 -11t22 -20l188 -213q9 -11 11.5 -19t-2.5 -13.5t-18.5 -8t-36.5 -2.5 q-21 0 -35 1.5t-25 5t-19.5 9t-18.5 15.5l-226 212q-11 10 -13.5 19z" />
<glyph unicode="&#x401;" horiz-adv-x="1000" d="M97 1294zM172 70v1154q0 39 20.5 54.5t43.5 15.5h614q8 0 14.5 -4t10.5 -13t6.5 -22.5t2.5 -33.5q0 -18 -2.5 -31.5t-6.5 -22t-10.5 -12.5t-14.5 -4h-506v-406h434q8 0 14.5 -4.5t11 -12.5t6.5 -22t2 -33q0 -18 -2 -31t-6.5 -21t-11 -11.5t-14.5 -3.5h-434v-463h513 q8 0 14.5 -4t11.5 -12.5t7 -22t2 -33.5q0 -18 -2 -31.5t-7 -22.5t-11.5 -13t-14.5 -4h-621q-23 0 -43.5 15.5t-20.5 54.5zM229 1527q0 56 20.5 76.5t76.5 20.5t76.5 -20t20.5 -75q0 -56 -21 -77t-77 -21t-76 20.5t-20 75.5zM642 1527q0 56 21 76.5t76 20.5q57 0 77 -20 t20 -75q0 -56 -20.5 -77t-77.5 -21q-55 0 -75.5 20.5t-20.5 75.5z" />
<glyph unicode="&#x402;" horiz-adv-x="1279" d="M15 1218q0 20 2.5 34.5t6.5 23.5t10.5 13.5t14.5 4.5h790q9 0 15.5 -4.5t10.5 -13.5t6.5 -23t2.5 -34q0 -19 -2.5 -33t-6.5 -23t-10.5 -13t-15.5 -4h-331v-402h237q125 0 202 -26.5t131 -73.5t82.5 -113.5t28.5 -146.5q0 -89 -28 -160.5t-82 -122t-134 -77.5t-195 -27 h-25q-10 0 -16.5 4t-11 12t-6 21.5t-1.5 32.5q0 21 1.5 35t5 23t9.5 12.5t13 3.5h38q71 0 114.5 15.5t74.5 45.5t47.5 72.5t16.5 97.5q0 64 -22.5 108t-59.5 71t-84 39.5t-124 12.5h-212v-578q0 -8 -4.5 -13.5t-14 -9.5t-26.5 -6t-41 -2q-25 0 -41.5 2t-26.5 6t-14 9.5 t-4 13.5v1121h-287q-8 0 -14.5 4t-10.5 12.5t-6.5 22.5t-2.5 33z" />
<glyph unicode="&#x403;" horiz-adv-x="880" d="M172 25v1199q0 35 18.5 52.5t45.5 17.5h597q17 0 25.5 -18t8.5 -57q0 -19 -2 -33t-6.5 -23t-11 -13t-14.5 -4h-489v-1121q0 -8 -4 -13.5t-14 -9.5t-26.5 -6t-41.5 -2q-24 0 -41 2t-27 6t-14 9.5t-4 13.5zM301 1294zM434 1419q2 8 11 19l189 213q11 13 21.5 20t23.5 11 t31 5.5t43 1.5q30 0 47 -4.5t24 -11.5t4.5 -16t-11.5 -19l-227 -212q-10 -10 -18.5 -15.5t-19.5 -9t-25.5 -5t-35.5 -1.5q-23 0 -36 2.5t-18 8t-3 13.5z" />
<glyph unicode="&#x404;" horiz-adv-x="1121" d="M98 644q0 152 37 275.5t109 211t176.5 134.5t240.5 47q66 0 122.5 -12.5t101 -29.5t74.5 -34.5t38.5 -26t12.5 -15.5t6 -16.5t3.5 -22.5t1.5 -29q0 -40 -6 -56t-18 -16q-11 0 -35 17.5t-64 38t-98 37.5t-136 17q-93 0 -161 -33.5t-114 -91t-72 -135t-33 -164.5h610 q8 0 14.5 -3.5t11 -12.5t6.5 -22t2 -33q0 -18 -2 -31.5t-6.5 -22t-11 -12.5t-14.5 -4h-612q3 -103 26 -188.5t70 -147.5t122 -97.5t182 -35.5q74 0 129.5 18t95 39.5t63 39.5t34.5 18q5 0 9.5 -3t8 -10t5 -18.5t1.5 -31.5t-1 -35.5t-3 -26t-6 -20t-17.5 -21t-46.5 -29 t-80 -33t-102.5 -25.5t-113.5 -10q-141 0 -246.5 45t-175 130t-104 207.5t-34.5 279.5z" />
<glyph unicode="&#x405;" horiz-adv-x="941" d="M71 161q0 22 2 36.5t6 23.5t10 12.5t14 3.5q14 0 39.5 -17t65.5 -37t96.5 -37.5t130.5 -17.5q56 0 102.5 15t80 42.5t51.5 67.5t18 91q0 55 -25 94t-66 68.5t-93.5 54t-107.5 50t-107 56.5t-93 73t-66.5 98.5t-25.5 135.5q0 81 29.5 144.5t82 106.5t125 65.5t156.5 22.5 q43 0 86.5 -7.5t82 -20t68.5 -28t39.5 -25t12.5 -15t5 -14t3 -20.5t1 -31q0 -18 -1.5 -32t-4.5 -23.5t-8.5 -14t-12.5 -4.5q-11 0 -34.5 14t-57.5 31.5t-80.5 32t-104.5 14.5q-54 0 -94 -14.5t-66 -38.5t-39 -57t-13 -70q0 -54 25 -93t66.5 -69t94.5 -55t108 -50.5t108 -56 t94.5 -72t67 -98t25.5 -133.5q0 -91 -33.5 -162t-93 -120.5t-140 -74.5t-173.5 -25q-65 0 -120.5 11t-99 27t-73 33t-41 29t-17 30.5t-5.5 49.5z" />
<glyph unicode="&#x406;" horiz-adv-x="516" d="M172 26v1242q0 8 4.5 14t15 9.5t27 6t39.5 2.5q25 0 41.5 -2.5t26.5 -6t14 -9.5t4 -14v-1242q0 -8 -4 -14t-14 -9.5t-26.5 -6t-41.5 -2.5q-24 0 -41 2.5t-27 6t-14 9.5t-4 14z" />
<glyph unicode="&#x407;" horiz-adv-x="516" d="M-176 1294zM-44 1527q0 56 20.5 76.5t76.5 20.5t76.5 -20t20.5 -75q0 -56 -21 -77t-77 -21t-76 20.5t-20 75.5zM172 26v1242q0 8 4.5 14t15 9.5t27 6t39.5 2.5q25 0 41.5 -2.5t26.5 -6t14 -9.5t4 -14v-1242q0 -8 -4 -14t-14 -9.5t-26.5 -6t-41.5 -2.5q-24 0 -41 2.5 t-27 6t-14 9.5t-4 14zM369 1527q0 56 21 76.5t76 20.5q57 0 77 -20t20 -75q0 -56 -20.5 -77t-77.5 -21q-55 0 -75.5 20.5t-20.5 75.5z" />
<glyph unicode="&#x408;" horiz-adv-x="653" d="M7 107q0 22 1.5 36.5t5.5 23t9.5 12t13.5 3.5t20.5 -7.5t30 -16.5t40.5 -16.5t54 -7.5q34 0 58 8.5t40 31.5t24 63.5t8 105.5v926q0 7 4 13t14 10t26.5 6t41.5 2q24 0 41 -2t26.5 -6t14 -10t4.5 -13v-943q0 -77 -14 -141t-48 -109t-89.5 -69.5t-137.5 -24.5 q-28 0 -55.5 4.5t-50.5 12t-40 16t-22.5 14.5t-9 12t-6 14.5t-3.5 21t-1 30.5z" />
<glyph unicode="&#x409;" horiz-adv-x="1786" d="M3 58q0 25 2.5 41t6.5 26t10.5 14t14.5 4q37 0 69.5 15t62.5 56.5t57.5 116t53.5 194t51 290.5t49 405q3 36 19 55t43 19h548q27 0 43.5 -17.5t16.5 -52.5v-440h185q159 0 246.5 -29t143 -81t82 -121.5t26.5 -149.5q0 -72 -23.5 -144t-78.5 -130t-146 -93.5t-261 -35.5 h-280q-12 0 -23.5 3.5t-20.5 12t-15.5 22t-6.5 32.5v1076h-335q-27 -231 -54 -407t-57 -305.5t-66 -215.5t-82.5 -138.5t-105 -74t-133.5 -21.5q-11 0 -19 4t-13 13t-7.5 23t-2.5 34zM1050 143h184q118 0 172.5 21t87.5 56t46.5 79.5t13.5 92.5q0 58 -17 104t-53.5 78.5 t-92.5 50t-170 17.5h-171v-499z" />
<glyph unicode="&#x40a;" horiz-adv-x="1795" d="M172 25v1244q0 7 4 13t14 10t27 6t41 2q25 0 41.5 -2t26.5 -6t14 -10t4 -13v-520h545v520q0 7 4 13t14 10t26.5 6t41.5 2q24 0 41 -2t26.5 -6t13.5 -10t4 -13v-485h182q163 0 250 -29t143 -81t81.5 -121.5t25.5 -148.5q0 -73 -23 -145t-78 -130t-146 -93.5t-263 -35.5 h-277q-11 0 -23 3.5t-21.5 12t-15.5 22t-6 32.5v531h-545v-576q0 -8 -4 -13.5t-14 -9.5t-26.5 -6t-41.5 -2q-24 0 -41 2t-27 6t-14 9.5t-4 13.5zM1060 143h182q120 0 174.5 21t87.5 56t46.5 79.5t13.5 88.5q0 62 -16.5 108t-53 78.5t-93 50t-170.5 17.5h-171v-499z" />
<glyph unicode="&#x40b;" horiz-adv-x="1266" d="M15 1220q0 19 2.5 33.5t6.5 23.5t10.5 13t14.5 4h781q8 0 14 -4t11 -13t7 -23.5t2 -33.5t-2 -33t-7 -22.5t-11 -13t-14 -4.5h-322v-399h206q125 0 210 -26t140.5 -77t83 -126.5t27.5 -173.5v-320q0 -8 -4 -13.5t-13.5 -9.5t-26 -6t-41.5 -2q-26 0 -42 2t-26 6t-13.5 9.5 t-3.5 13.5v306q0 67 -16.5 118t-52.5 85.5t-92.5 52t-152.5 17.5h-183v-579q0 -8 -4.5 -13.5t-14 -9.5t-26.5 -6t-41 -2q-25 0 -41.5 2t-26.5 6t-14 9.5t-4 13.5v1122h-287q-8 0 -14.5 5t-10.5 14.5t-6.5 22.5t-2.5 31z" />
<glyph unicode="&#x40c;" horiz-adv-x="1112" d="M172 26v1243q0 7 4 13t14 9.5t27 6t41 2.5q25 0 41.5 -2.5t26.5 -6t14 -9.5t4 -13v-529h72q60 0 105 14.5t79.5 43.5t61 73.5t47.5 105.5l98 282q3 10 8 18t15 13t27.5 7.5t45.5 2.5q26 0 42 -2t25.5 -6t12.5 -10t3 -14q0 -11 -3.5 -24.5t-9.5 -31.5l-103 -269 q-22 -61 -45.5 -105t-51.5 -75.5t-61 -52t-74 -32.5v-2q47 -17 83.5 -39.5t67.5 -55.5t57 -79.5t51 -111.5l122 -308q10 -26 12 -36.5t2 -18.5q0 -9 -4 -15t-13.5 -10t-26.5 -6t-42 -2q-29 0 -46.5 2.5t-28 7.5t-16 12.5t-8.5 18.5l-119 316q-24 64 -53 109t-66.5 74.5 t-85.5 43.5t-108 14h-72v-566q0 -8 -4 -14t-14 -9.5t-26.5 -6t-41.5 -2.5q-24 0 -41 2.5t-27 6t-14 9.5t-4 14zM332 1294zM465 1419q2 8 11 19l189 213q11 13 21.5 20t23.5 11t31 5.5t43 1.5q30 0 47 -4.5t24 -11.5t4.5 -16t-11.5 -19l-227 -212q-10 -10 -18.5 -15.5 t-19.5 -9t-25.5 -5t-35.5 -1.5q-23 0 -36 2.5t-18 8t-3 13.5z" />
<glyph unicode="&#x40d;" horiz-adv-x="1314" d="M172 28v1241q0 7 4.5 13t15 10t27 6t39.5 2q25 0 41.5 -2t26.5 -6t14 -10t4 -13v-854q0 -27 -0.5 -58t-3.5 -60h2q16 25 37.5 60.5t45.5 70.5l559 843q5 7 11 12.5t15.5 9t22.5 5.5t33 2q23 0 37.5 -2t23 -6.5t12 -10t3.5 -14.5v-1242q0 -8 -4 -13.5t-14 -9.5t-26.5 -6 t-41.5 -2q-24 0 -41 2t-26.5 6t-13.5 9.5t-4 13.5v849q0 31 1 64.5t3 60.5h-2q-8 -14 -17.5 -30t-20.5 -33.5l-22 -35t-22 -34.5l-560 -842q-6 -8 -12 -14t-15.5 -9.5t-22.5 -5t-33 -1.5q-23 0 -37.5 2t-23 6.5t-12 10.5t-3.5 15zM220 1294zM352.5 1657q-2.5 9 4.5 16 t24.5 11.5t47.5 4.5q25 0 42.5 -1.5t30.5 -5.5t24 -11t22 -20l188 -213q9 -11 11.5 -19t-2.5 -13.5t-18.5 -8t-36.5 -2.5q-21 0 -35 1.5t-25 5t-19.5 9t-18.5 15.5l-226 212q-11 10 -13.5 19z" />
<glyph unicode="&#x40e;" horiz-adv-x="1080" d="M16.5 1268q-1.5 13 7 20t27.5 9.5t50 2.5q29 0 46.5 -2t28.5 -6.5t17.5 -12t11.5 -19.5l231 -472q39 -79 73.5 -152.5t67.5 -146.5h3q27 76 55.5 151.5t64.5 165.5l181 462q3 9 8.5 15t16 10t29 5.5t47.5 1.5q30 0 48 -3t26 -9t8 -16t-6 -24l-366 -888 q-47 -116 -87 -189.5t-82 -114.5t-91 -56t-113 -15q-22 0 -44.5 3t-42.5 8.5t-35.5 12.5t-22.5 12.5t-10.5 12t-6 16.5t-3.5 25t-1 36q0 38 7.5 55t22.5 17q8 0 18.5 -6t25.5 -14t36.5 -14t50.5 -6q25 0 46.5 5.5t41 23.5t40.5 50.5t46 88.5l-461 924q-9 20 -10.5 33z M109 1294zM241 1630q0 10 3.5 17t13 11t25 6t37.5 2q24 0 38 -2.5t21.5 -7.5t10 -13t2.5 -19q0 -25 10 -49t30.5 -42.5t49.5 -29.5t67 -11q37 0 65.5 11t48.5 29.5t30 43t10 52.5q0 9 2.5 16.5t10 12t21 7t36.5 2.5q24 0 39.5 -2t25 -6t13.5 -11t4 -17q0 -51 -17 -98 t-54 -82.5t-95 -57t-141 -21.5q-76 0 -133.5 18.5t-96 53t-58 82t-19.5 105.5z" />
<glyph unicode="&#x40f;" horiz-adv-x="1269" d="M172 70v1199q0 7 4 13t14 10t27 6t41 2q25 0 41.5 -2t26.5 -6t14 -10t4 -13v-1121h582v1121q0 7 4 13t14.5 10t26.5 6t41 2q24 0 41 -2t26.5 -6t13.5 -10t4 -13v-1199q0 -35 -17 -52.5t-45 -17.5h-327v-315q0 -8 -3 -13.5t-11.5 -8.5t-23 -4.5t-36.5 -1.5t-36 1.5 t-22.5 4.5t-11.5 8.5t-3 13.5v315h-328q-28 0 -44.5 17.5t-16.5 52.5z" />
<glyph unicode="&#x410;" horiz-adv-x="1185" d="M35.5 26.5q0.5 13.5 8.5 35.5l434 1202q4 11 10.5 18t19 11t32 5.5t49.5 1.5q32 0 53 -1.5t34 -5.5t20 -11.5t11 -18.5l434 -1202q8 -22 8.5 -35.5t-7.5 -20.5t-26.5 -9t-49.5 -2t-49.5 1.5t-28 5t-14 9.5t-8.5 15l-111 315h-538l-106 -311q-3 -9 -8 -15.5t-14.5 -11 t-27 -6.5t-45.5 -2q-29 0 -47.5 2.5t-26 9.5t-7 20.5zM360 477h450l-226 645h-1z" />
<glyph unicode="&#x411;" horiz-adv-x="1101" d="M173 71v1153q0 39 20 54.5t43 15.5h671q9 0 16 -4t11.5 -13t6.5 -22.5t2 -33.5q0 -18 -2 -32t-6.5 -22.5t-11 -13t-15.5 -4.5h-564v-405h237q122 0 201 -25t133 -72t82 -113.5t28 -148.5q0 -75 -23.5 -144.5t-76 -122.5t-139.5 -85.5t-237 -32.5h-312q-24 0 -44 15.5 t-20 55.5zM344 140h221q80 0 131 16t83.5 46.5t50 73.5t17.5 97t-17.5 97t-50.5 73t-84 46.5t-135 16.5h-216v-466z" />
<glyph unicode="&#x412;" horiz-adv-x="1114" d="M172 70v1154q0 39 20.5 54.5t43.5 15.5h294q116 0 190 -22t123.5 -64t74.5 -103t25 -138q0 -46 -11 -88t-32.5 -77.5t-54 -63.5t-74.5 -46q53 -10 99 -36.5t80.5 -67.5t54.5 -96t20 -121q0 -61 -15.5 -112.5t-43.5 -92.5t-67.5 -72t-89 -52t-106 -31.5t-129.5 -10.5h-338 q-23 0 -43.5 15.5t-20.5 54.5zM342 142h250q59 0 103 14t77.5 41.5t52.5 68.5t19 95q0 58 -18.5 102t-54 74t-89 45.5t-134.5 15.5h-206v-456zM342 735h196q67 0 108 17.5t68 47t39.5 69t12.5 81.5q0 47 -13 85t-41 64.5t-73 40.5t-119 14h-178v-419z" />
<glyph unicode="&#x413;" horiz-adv-x="880" d="M172 25v1199q0 35 18.5 52.5t45.5 17.5h597q17 0 25.5 -18t8.5 -57q0 -19 -2 -33t-6.5 -23t-11 -13t-14.5 -4h-489v-1121q0 -8 -4 -13.5t-14 -9.5t-26.5 -6t-41.5 -2q-24 0 -41 2t-27 6t-14 9.5t-4 13.5z" />
<glyph unicode="&#x414;" horiz-adv-x="1319" d="M5 96q-2 26 8 38t31 12h75q28 36 52 73.5t46 88.5t43 124t41.5 180.5t41.5 256.5t44 354q6 36 20.5 53.5t41.5 17.5h597q27 0 43.5 -17.5t16.5 -52.5v-1078h129q21 0 30 -12.5t9 -38.5v-410q0 -8 -3 -13t-11.5 -8t-22.5 -5t-38 -2q-20 0 -34 2t-22.5 5t-12 8t-3.5 13v315 h-974v-315q0 -8 -3.5 -13t-12 -8t-22.5 -5t-35 -2q-23 0 -37 2t-22.5 5t-12 8t-3.5 13v411zM302 146h632v1001h-384q-21 -185 -41.5 -323t-40 -240t-39.5 -172.5t-40.5 -120t-42 -83.5t-44.5 -62z" />
<glyph unicode="&#x415;" horiz-adv-x="1000" d="M172 70v1154q0 39 20.5 54.5t43.5 15.5h614q8 0 14.5 -4t10.5 -13t6.5 -22.5t2.5 -33.5q0 -18 -2.5 -31.5t-6.5 -22t-10.5 -12.5t-14.5 -4h-506v-406h434q8 0 14.5 -4.5t11 -12.5t6.5 -22t2 -33q0 -18 -2 -31t-6.5 -21t-11 -11.5t-14.5 -3.5h-434v-463h513q8 0 14.5 -4 t11.5 -12.5t7 -22t2 -33.5q0 -18 -2 -31.5t-7 -22.5t-11.5 -13t-14.5 -4h-621q-23 0 -43.5 15.5t-20.5 54.5z" />
<glyph unicode="&#x416;" horiz-adv-x="1640" d="M85 27q0 3 0.5 8t2 12t4 15.5t6.5 19.5l101 293q23 68 48.5 116.5t55.5 82.5t68 56.5t86 37.5v1q-40 10 -72.5 29t-59.5 51.5t-50 79.5t-45 113l-91 270q-6 18 -9.5 31.5t-3.5 24.5q0 8 3.5 14t13 10t25.5 6t41 2q29 0 46 -2.5t27 -7.5t14 -13t8 -18l94 -306 q17 -55 39 -95t54.5 -66.5t77.5 -39t108 -12.5h59v529q0 7 3.5 13t13 9.5t26 6t40.5 2.5q25 0 41.5 -2.5t26 -6t13.5 -9.5t4 -13v-529h59q60 0 105.5 14t79 42t56.5 68t38 91l94 304q3 10 7.5 18t14 13t27 7.5t45.5 2.5q26 0 42 -2t25.5 -6t12.5 -10t3 -14q0 -11 -4 -24.5 t-8 -31.5l-90 -264q-21 -61 -42.5 -106t-48 -76.5t-60 -53t-77.5 -34.5v-2q50 -17 88 -41t68 -59t54.5 -84t47.5 -117l99 -293q4 -11 7 -19.5t4.5 -15.5t2.5 -12t1 -8q0 -9 -4.5 -15t-14 -10t-26.5 -6t-43 -2q-28 0 -45.5 2.5t-28 7.5t-15 12.5t-8.5 18.5l-107 326 q-20 62 -47 105t-63 71.5t-83.5 41.5t-106.5 13h-59v-566q0 -8 -4 -14t-13.5 -9.5t-26 -6t-41.5 -2.5q-24 0 -40.5 2.5t-26 6t-13 9.5t-3.5 14v566h-59q-65 0 -113.5 -15.5t-84.5 -45t-61 -72.5t-43 -98l-105 -326q-4 -11 -9 -18.5t-15 -12.5t-27.5 -7.5t-46.5 -2.5 q-26 0 -42.5 2t-26.5 6t-14 10t-4 15z" />
<glyph unicode="&#x417;" horiz-adv-x="970" d="M75 163q0 31 6 42t18 11t33.5 -13t56.5 -30.5t85.5 -30.5t120.5 -13q66 0 120.5 16.5t93 46.5t60 72t21.5 93q0 55 -20 100t-59.5 77t-98.5 50t-136 18h-152q-12 0 -19 3.5t-12 11.5t-7 21.5t-2 33.5q0 19 2 32t7 21.5t12.5 12.5t17.5 4h143q66 0 120.5 15t93 44 t59.5 71.5t21 97.5q0 44 -14.5 81t-44 62.5t-73 39.5t-102.5 14q-64 0 -114 -13.5t-86 -30t-61 -30.5t-37 -14q-7 0 -11 3t-7 10.5t-4 20.5t-1 32q0 13 1 25.5t3.5 22.5t6.5 18.5t12 16.5t38 23.5t74 29t99.5 23t119.5 9.5q96 0 167.5 -23t120 -65t72 -101t23.5 -131 q0 -66 -19.5 -118.5t-53 -91t-78.5 -63t-95 -33.5v-3q60 -7 112 -34t90 -69.5t60 -98t22 -119.5q0 -86 -31.5 -156.5t-93 -121t-151.5 -77.5t-207 -27q-65 0 -117 10t-90 24t-59.5 26t-30 19.5t-13 15t-6.5 19t-4 28t-2 40.5z" />
<glyph unicode="&#x418;" horiz-adv-x="1314" d="M172 28v1241q0 7 4.5 13t15 10t27 6t39.5 2q25 0 41.5 -2t26.5 -6t14 -10t4 -13v-854q0 -27 -0.5 -58t-3.5 -60h2q16 25 37.5 60.5t45.5 70.5l559 843q5 7 11 12.5t15.5 9t22.5 5.5t33 2q23 0 37.5 -2t23 -6.5t12 -10t3.5 -14.5v-1242q0 -8 -4 -13.5t-14 -9.5t-26.5 -6 t-41.5 -2q-24 0 -41 2t-26.5 6t-13.5 9.5t-4 13.5v849q0 31 1 64.5t3 60.5h-2q-8 -14 -17.5 -30t-20.5 -33.5l-22 -35t-22 -34.5l-560 -842q-6 -8 -12 -14t-15.5 -9.5t-22.5 -5t-33 -1.5q-23 0 -37.5 2t-23 6.5t-12 10.5t-3.5 15z" />
<glyph unicode="&#x419;" horiz-adv-x="1314" d="M172 28v1241q0 7 4.5 13t15 10t27 6t39.5 2q25 0 41.5 -2t26.5 -6t14 -10t4 -13v-854q0 -27 -0.5 -58t-3.5 -60h2q16 25 37.5 60.5t45.5 70.5l559 843q5 7 11 12.5t15.5 9t22.5 5.5t33 2q23 0 37.5 -2t23 -6.5t12 -10t3.5 -14.5v-1242q0 -8 -4 -13.5t-14 -9.5t-26.5 -6 t-41.5 -2q-24 0 -41 2t-26.5 6t-13.5 9.5t-4 13.5v849q0 31 1 64.5t3 60.5h-2q-8 -14 -17.5 -30t-20.5 -33.5l-22 -35t-22 -34.5l-560 -842q-6 -8 -12 -14t-15.5 -9.5t-22.5 -5t-33 -1.5q-23 0 -37.5 2t-23 6.5t-12 10.5t-3.5 15zM229 1294zM361 1630q0 10 3.5 17t13 11 t25 6t37.5 2q24 0 38 -2.5t21.5 -7.5t10 -13t2.5 -19q0 -25 10 -49t30.5 -42.5t49.5 -29.5t67 -11q37 0 65.5 11t48.5 29.5t30 43t10 52.5q0 9 2.5 16.5t10 12t21 7t36.5 2.5q24 0 39.5 -2t25 -6t13.5 -11t4 -17q0 -51 -17 -98t-54 -82.5t-95 -57t-141 -21.5 q-76 0 -133.5 18.5t-96 53t-58 82t-19.5 105.5z" />
<glyph unicode="&#x41a;" horiz-adv-x="1112" d="M172 26v1243q0 7 4 13t14 9.5t27 6t41 2.5q25 0 41.5 -2.5t26.5 -6t14 -9.5t4 -13v-529h72q60 0 105 14.5t79.5 43.5t61 73.5t47.5 105.5l98 282q3 10 8 18t15 13t27.5 7.5t45.5 2.5q26 0 42 -2t25.5 -6t12.5 -10t3 -14q0 -11 -3.5 -24.5t-9.5 -31.5l-103 -269 q-22 -61 -45.5 -105t-51.5 -75.5t-61 -52t-74 -32.5v-2q47 -17 83.5 -39.5t67.5 -55.5t57 -79.5t51 -111.5l122 -308q10 -26 12 -36.5t2 -18.5q0 -9 -4 -15t-13.5 -10t-26.5 -6t-42 -2q-29 0 -46.5 2.5t-28 7.5t-16 12.5t-8.5 18.5l-119 316q-24 64 -53 109t-66.5 74.5 t-85.5 43.5t-108 14h-72v-566q0 -8 -4 -14t-14 -9.5t-26.5 -6t-41.5 -2.5q-24 0 -41 2.5t-27 6t-14 9.5t-4 14z" />
<glyph unicode="&#x41b;" horiz-adv-x="1251" d="M3 58q0 25 2.5 41t6.5 26t10.5 14t14.5 4q37 0 69.5 15t62.5 56.5t57.5 116t53.5 194t51 289.5t49 403q5 42 20 59.5t44 17.5h575q28 0 44 -17.5t16 -52.5v-1199q0 -8 -4 -13.5t-14 -9.5t-26.5 -6t-41.5 -2t-41.5 2t-26.5 6t-14 9.5t-4 13.5v1121h-364q-27 -231 -54 -407 t-57 -305.5t-66 -215.5t-82.5 -138.5t-105 -74t-133.5 -21.5q-10 0 -18 4t-13.5 13t-8 23t-2.5 34z" />
<glyph unicode="&#x41c;" horiz-adv-x="1751" d="M172 26v1190q0 42 22 60t49 18h104q32 0 56 -6t42 -19t30 -33t21 -47l375 -937h5l390 934q11 30 24 51t28.5 33.5t34.5 18t44 5.5h109q15 0 28.5 -4.5t23 -14t15.5 -24t6 -35.5v-1190q0 -8 -4 -14t-14 -9.5t-25.5 -6t-40.5 -2.5q-23 0 -39.5 2.5t-26 6t-13.5 9.5t-4 14 v1127h-2l-461 -1132q-3 -7 -8.5 -12t-16 -8.5t-25 -5t-34.5 -1.5q-21 0 -36 2t-25 5.5t-15.5 8.5t-7.5 11l-441 1132h-1v-1127q0 -8 -4 -14t-14 -9.5t-26 -6t-41 -2.5q-24 0 -40 2.5t-25.5 6t-13 9.5t-3.5 14z" />
<glyph unicode="&#x41d;" horiz-adv-x="1276" d="M172 26v1242q0 8 4 14t14 9.5t27 6t41 2.5q25 0 41.5 -2.5t26.5 -6t14 -9.5t4 -14v-518h589v518q0 8 4 14t14 9.5t26 6t42 2.5q24 0 40.5 -2.5t26.5 -6t14 -9.5t4 -14v-1242q0 -8 -4 -14t-14 -9.5t-26.5 -6t-40.5 -2.5q-26 0 -42 2.5t-26 6t-14 9.5t-4 14v574h-589v-574 q0 -8 -4 -14t-14 -9.5t-26.5 -6t-41.5 -2.5q-24 0 -41 2.5t-27 6t-14 9.5t-4 14z" />
<glyph unicode="&#x41e;" horiz-adv-x="1356" d="M99 640q0 153 37 278t111 212.5t185 135t259 47.5q143 0 249 -43t176.5 -125.5t105 -204t34.5 -278.5t-37 -283t-110.5 -214.5t-184.5 -136t-259 -47.5q-146 0 -252.5 43.5t-176 126.5t-103.5 206t-34 283zM281 652q0 -114 19 -210t64 -165.5t120.5 -108t189.5 -38.5 q113 0 190 42t124 113.5t67 165.5t20 199q0 110 -19.5 204.5t-65 164t-121.5 108.5t-188 39t-188 -42t-123.5 -112t-68 -163.5t-20.5 -196.5z" />
<glyph unicode="&#x41f;" horiz-adv-x="1273" d="M172 25v1199q0 35 17.5 52.5t44.5 17.5h807q28 0 44 -17.5t16 -52.5v-1199q0 -8 -4 -13.5t-14 -9.5t-26.5 -6t-41.5 -2q-24 0 -41 2t-26.5 6t-14 9.5t-4.5 13.5v1120h-585v-1120q0 -8 -4.5 -13.5t-14 -9.5t-26 -6t-41.5 -2t-41.5 2t-26.5 6t-14 9.5t-4 13.5z" />
<glyph unicode="&#x420;" horiz-adv-x="1058" d="M172 26v1194q0 40 21 57t47 17h277q42 0 80.5 -3.5t91 -15t107 -43t92.5 -77.5t58.5 -106.5t20.5 -133.5q0 -97 -32 -175t-91.5 -133t-146 -85t-206.5 -30h-147v-466q0 -8 -4.5 -14t-14 -9.5t-26 -6t-41.5 -2.5t-41.5 2.5t-26.5 6t-14 9.5t-4 14zM344 633h155 q78 0 129.5 20t86.5 55.5t53 85t18 107.5q0 79 -29.5 132t-73 79t-90 33t-90.5 7h-159v-519z" />
<glyph unicode="&#x421;" horiz-adv-x="1092" d="M97 630q0 161 41.5 287t116.5 213.5t179.5 133.5t231.5 46q56 0 109 -10.5t98 -26.5t80 -37t48.5 -34.5t17.5 -20.5t6.5 -16.5t4 -22.5t1.5 -31q0 -20 -2 -34t-6 -23.5t-9.5 -14t-13.5 -4.5q-14 0 -39 19.5t-64.5 43t-96 43t-135.5 19.5q-86 0 -156.5 -34.5 t-120.5 -101.5t-77.5 -163.5t-27.5 -220.5q0 -123 26.5 -217.5t76 -158t121.5 -96t163 -32.5q77 0 134.5 19t98 42.5t66.5 42.5t41 19q7 0 12 -3t8 -11.5t4.5 -23.5t1.5 -38q0 -16 -1 -28t-3.5 -21t-6.5 -16t-14 -17t-42 -30.5t-79.5 -40t-109 -33t-134.5 -13.5 q-126 0 -227.5 42t-173 124t-110 202.5t-38.5 277.5z" />
<glyph unicode="&#x422;" horiz-adv-x="998" d="M15 1220q0 19 2.5 33.5t6.5 23.5t10.5 13t14.5 4h900q8 0 14.5 -4t11 -13t6.5 -23.5t2 -33.5t-2 -33t-6.5 -22.5t-11 -12.5t-14.5 -4h-364v-1122q0 -8 -4 -14t-14 -9.5t-26.5 -6t-41.5 -2.5q-24 0 -41 2.5t-27 6t-14 9.5t-4 14v1122h-364q-8 0 -14.5 4t-10.5 12.5 t-6.5 22.5t-2.5 33z" />
<glyph unicode="&#x423;" horiz-adv-x="1080" d="M16.5 1268q-1.5 13 7 20t27.5 9.5t50 2.5q29 0 46.5 -2t28.5 -6.5t17.5 -12t11.5 -19.5l231 -472q39 -79 73.5 -152.5t67.5 -146.5h3q27 76 55.5 151.5t64.5 165.5l181 462q3 9 8.5 15t16 10t29 5.5t47.5 1.5q30 0 48 -3t26 -9t8 -16t-6 -24l-366 -888 q-47 -116 -87 -189.5t-82 -114.5t-91 -56t-113 -15q-22 0 -44.5 3t-42.5 8.5t-35.5 12.5t-22.5 12.5t-10.5 12t-6 16.5t-3.5 25t-1 36q0 38 7.5 55t22.5 17q8 0 18.5 -6t25.5 -14t36.5 -14t50.5 -6q25 0 46.5 5.5t41 23.5t40.5 50.5t46 88.5l-461 924q-9 20 -10.5 33z" />
<glyph unicode="&#x424;" horiz-adv-x="1428" d="M0 1294zM91 674q0 104 33.5 191t100.5 151t167.5 103.5t236.5 47.5v156q0 6 4.5 11t15 9t26.5 6t39 2t40 -2t26.5 -6t14 -9t4.5 -11v-156q138 -5 239 -38.5t167 -94t98.5 -148.5t32.5 -201q0 -108 -33.5 -196t-101 -152.5t-168.5 -103t-234 -45.5v-164q0 -7 -4.5 -13 t-14 -9.5t-26.5 -5.5t-40 -2q-24 0 -40 1.5t-26.5 5t-14.5 9.5t-4 14v164q-138 4 -239.5 37.5t-167.5 94.5t-98.5 150t-32.5 204zM268 684q0 -78 18.5 -141t61 -109t112 -73.5t170.5 -33.5v702q-99 -6 -168 -35t-112 -75t-62.5 -106.5t-19.5 -128.5zM798 327 q99 5 167.5 34.5t112 76t63 107.5t19.5 130q0 77 -19 139.5t-61 108t-111.5 73t-170.5 33.5v-702z" />
<glyph unicode="&#x425;" horiz-adv-x="1063" d="M50.5 27q2.5 13 15.5 35l353 595l-337 575q-12 22 -15.5 35.5t4.5 21t28 9.5t55 2q30 0 49 -1.5t30 -5t16 -10t11 -14.5l278 -484l276 484q5 8 10 14.5t14.5 10t26.5 5t46 1.5q31 0 50.5 -2.5t28 -9.5t6.5 -20.5t-14 -35.5l-336 -571l350 -599q13 -22 15.5 -35 t-6.5 -20.5t-29.5 -10t-54.5 -2.5q-32 0 -50 1.5t-28.5 5.5t-16 9.5t-9.5 14.5l-288 515l-291 -515q-5 -9 -11 -15t-16.5 -9.5t-28.5 -5t-48 -1.5q-33 0 -52 2.5t-26.5 10t-5 20.5z" />
<glyph unicode="&#x426;" horiz-adv-x="1308" d="M172 70v1199q0 7 4 13t14 10t27 6t41 2q25 0 41.5 -2t26.5 -6t14 -10t4 -13v-1121h580v1121q0 7 4 13t14.5 10t27 6t41.5 2q24 0 40.5 -2t26.5 -6t14 -10t4 -13v-1121h131q20 0 28.5 -11.5t8.5 -37.5v-414q0 -8 -3.5 -13t-11.5 -8t-22 -5t-38 -2q-20 0 -34 2t-23 5 t-12.5 8t-3.5 13v315h-883q-28 0 -44.5 17.5t-16.5 52.5z" />
<glyph unicode="&#x427;" horiz-adv-x="1138" d="M116 901v368q0 7 4 13t13.5 9.5t26 6t40.5 2.5q25 0 41 -2.5t27 -6t15 -9.5t4 -13v-356q0 -60 13 -108t46 -82t90 -52t146 -18q55 0 107.5 4t104.5 9v603q0 7 4.5 13t15 9.5t27.5 6t40 2.5q25 0 41 -2.5t25.5 -6t13.5 -9.5t4 -13v-1244q0 -7 -4 -13t-13.5 -9.5t-25.5 -6 t-41 -2.5q-23 0 -40 2.5t-27.5 6t-15 9.5t-4.5 13v496q-58 -6 -113 -10.5t-112 -4.5q-96 0 -179 15.5t-144 59t-95.5 120.5t-34.5 200z" />
<glyph unicode="&#x428;" horiz-adv-x="1778" d="M172 70v1200q0 7 4.5 13t14 9.5t26 5.5t40.5 2q25 0 41 -2t26 -5.5t14 -9.5t4 -13v-1124h462v1124q0 7 4.5 13t14 9.5t26 5.5t40.5 2t40 -2t26 -5.5t14.5 -9.5t4.5 -13v-1124h462v1124q0 7 4 13t14 9.5t26.5 5.5t40.5 2t40.5 -2t26 -5.5t14 -9.5t4.5 -13v-1200 q0 -35 -16 -52.5t-44 -17.5h-1311q-28 0 -45.5 17.5t-17.5 52.5z" />
<glyph unicode="&#x429;" horiz-adv-x="1822" d="M172 70v1200q0 7 4.5 13t14 9.5t26 5.5t40.5 2q25 0 41 -2t26 -5.5t14 -9.5t4 -13v-1124h462v1124q0 7 4.5 13t14 9.5t26 5.5t40.5 2t40 -2t26 -5.5t14.5 -9.5t4.5 -13v-1124h462v1124q0 7 4 13t14 9.5t26.5 5.5t40.5 2t40.5 -2t26 -5.5t14 -9.5t4.5 -13v-1124h132 q21 0 30 -11t9 -37v-413q0 -8 -3 -13.5t-11.5 -8.5t-23 -4.5t-37.5 -1.5q-21 0 -35 2t-22.5 5t-12 8t-3.5 13v315h-1395q-27 0 -44.5 17.5t-17.5 52.5z" />
<glyph unicode="&#x42a;" horiz-adv-x="1259" d="M15 1221q0 41 9 57t25 16h408q26 0 46.5 -17t20.5 -57v-436h186q142 0 226.5 -24t144 -71.5t92.5 -119t33 -165.5q0 -79 -24.5 -150t-80 -127.5t-147.5 -91.5t-258 -35h-277q-12 0 -23.5 3.5t-21 12t-16 22t-6.5 32.5v1078h-303q-8 0 -14.5 3.5t-10.5 12.5t-6.5 22.5 t-2.5 34.5zM524 143h184q119 0 176.5 24t88 60.5t43 79.5t12.5 81q0 61 -18 107.5t-54.5 79t-92 50t-167.5 17.5h-172v-499z" />
<glyph unicode="&#x42b;" horiz-adv-x="1560" d="M172 70v1199q0 7 4.5 13t15 10t27 6t39.5 2q25 0 41.5 -2t26.5 -6t14 -10t4 -13v-489h179q139 0 222.5 -23.5t142.5 -71t93 -118.5t34 -164q0 -80 -25.5 -150.5t-80.5 -126.5t-146.5 -91t-253.5 -35h-270q-12 0 -24 3.5t-21 12t-15.5 22t-6.5 32.5zM344 141h176 q116 0 173.5 24t88 60.5t43 80t12.5 81.5q0 60 -18 106t-54.5 78.5t-92 50t-164.5 17.5h-164v-498zM1216 25v1244q0 7 4.5 13t15 10t27 6t39.5 2q24 0 41 -2t27 -6t14 -10t4 -13v-1244q0 -8 -4 -13.5t-14 -9.5t-27 -6t-41 -2q-25 0 -41 2t-26.5 6t-14.5 9.5t-4 13.5z" />
<glyph unicode="&#x42c;" horiz-adv-x="1088" d="M172 70v1199q0 7 4.5 13t15 10t27 6t39.5 2q25 0 41.5 -2t26.5 -6t14 -10t4 -13v-485h195q142 0 226.5 -24t144 -71.5t92.5 -119t33 -165.5q0 -79 -24.5 -150t-80 -127.5t-147.5 -91.5t-258 -35h-286q-12 0 -24 3.5t-21 12t-15.5 22t-6.5 32.5zM344 143h192q119 0 177 24 t88.5 60.5t42.5 79.5t12 81q0 61 -17.5 107.5t-54 79t-92.5 50t-168 17.5h-180v-499z" />
<glyph unicode="&#x42d;" horiz-adv-x="1122" d="M93 184q0 30 6 46t22 16q11 0 34 -18t63 -40t101 -40t147 -18q87 0 155 30t115.5 89t73 146t27.5 204h-618q-8 0 -14 4t-10.5 12.5t-6.5 22t-2 31.5q0 20 2 33.5t6.5 22t10.5 13t14 4.5h616q-7 98 -35 176.5t-77 133t-119 83.5t-159 29q-70 0 -124 -17t-93.5 -36.5 t-64 -36.5t-34.5 -17q-6 0 -10.5 3t-8 10.5t-5.5 20t-2 32.5q0 19 1 33t4 24t6.5 17.5t11 15t37 24.5t75 33.5t103.5 29t125 12.5q133 0 237.5 -44.5t175.5 -128.5t108 -206.5t37 -277.5q0 -161 -35.5 -286.5t-106.5 -211t-175.5 -130.5t-243.5 -45q-52 0 -105 8.5 t-100.5 23t-84 33.5t-51 32t-18.5 20.5t-6.5 18t-3.5 26.5t-1 40z" />
<glyph unicode="&#x42e;" horiz-adv-x="1800" d="M172 25v1244q0 7 4.5 13t15 10t27 6t39.5 2q25 0 41.5 -2t26.5 -6t14 -10t4 -13v-524h243q11 128 50.5 233t108.5 179t169.5 115t233.5 41q136 0 239 -43.5t172.5 -127t105 -206t35.5 -279.5q0 -158 -35.5 -283.5t-107 -212.5t-178.5 -133.5t-250 -46.5q-136 0 -237.5 44 t-169 125t-102 195t-37.5 254h-240v-574q0 -8 -4 -13.5t-14 -9.5t-26.5 -6t-41.5 -2q-24 0 -41 2t-27 6t-14 9.5t-4 13.5zM759 650q0 -67 7 -131.5t24.5 -122.5t45.5 -106.5t70.5 -84t100 -55.5t133.5 -20q108 0 181 41t117 111.5t62.5 164t18.5 198.5q0 110 -19 205 t-63.5 165.5t-117 110.5t-179.5 40q-111 0 -184.5 -42.5t-117 -113.5t-61.5 -164t-18 -196z" />
<glyph unicode="&#x42f;" horiz-adv-x="1137" d="M83 26q0 10 3 23.5t15 43.5l106 275q19 50 40 90t45 70.5t52 52t62 34.5q-60 15 -108 41.5t-81 66t-50.5 90.5t-17.5 113q0 80 27 147.5t82 116.5t138.5 76.5t236.5 27.5h268q24 0 44 -15.5t20 -54.5v-1199q0 -8 -4 -13.5t-14 -9.5t-26.5 -6t-41.5 -2t-41.5 2t-26 6 t-14 9.5t-4.5 13.5v540h-129q-78 0 -119.5 -16t-72 -46.5t-52 -73.5t-41.5 -96l-111 -298q-5 -12 -10.5 -20t-16.5 -12.5t-27.5 -6.5t-42.5 -2q-29 0 -46 2.5t-26.5 6.5t-12.5 9.5t-3 13.5zM329 932q0 -47 15.5 -88t48.5 -72t85.5 -48.5t145.5 -17.5h169v446h-164 q-102 0 -154 -16.5t-84.5 -46t-47 -70t-14.5 -87.5z" />
<glyph unicode="&#x430;" horiz-adv-x="981" d="M92 255q0 76 31 132t89 93t142 55.5t189 18.5h124v70q0 52 -11 92t-35.5 66.5t-63.5 40t-96 13.5q-61 0 -109.5 -14.5t-85 -32t-61 -32t-36.5 -14.5q-8 0 -14 4t-10.5 12t-6.5 20.5t-2 27.5q0 25 3.5 39.5t17 27.5t46.5 30.5t76 32t94 24t103 9.5q97 0 165 -22t110 -64.5 t61 -105.5t19 -147v-607q0 -12 -8 -18t-22 -9t-41 -3q-26 0 -41.5 3t-22.5 9t-7 18v90q-59 -63 -131.5 -98t-153.5 -35q-71 0 -128.5 18.5t-98 53.5t-63 86t-22.5 116zM261 263q0 -70 44.5 -111.5t124.5 -41.5q65 0 120.5 33t116.5 101v191h-141q-68 0 -118 -11.5t-83 -34 t-48.5 -54t-15.5 -72.5z" />
<glyph unicode="&#x431;" horiz-adv-x="1091" d="M0 951zM111 555q0 123 11.5 226.5t32.5 186t50 140.5t59.5 92t60 54.5t65.5 38t81.5 30.5t102.5 23l321 53q17 3 28 2.5t17 -8t8 -24.5t2 -47q0 -20 -2 -34t-7 -23t-15 -14t-26 -8l-299 -50q-45 -7 -79 -16t-60.5 -20t-46.5 -24.5t-40 -34.5t-36.5 -52t-28 -70.5t-19 -86 t-14.5 -99.5q33 35 70 63.5t78 48.5t86.5 30.5t96.5 10.5q97 0 169.5 -32.5t120 -92.5t71 -144t23.5 -185q0 -113 -31 -206t-90 -160.5t-143.5 -104.5t-190.5 -37q-110 0 -190.5 35.5t-133 107t-77.5 179t-25 252.5zM284 557q0 -108 13.5 -190t44.5 -137t82 -83t125 -28 q65 0 116 25.5t85.5 71.5t52.5 112t18 147q0 66 -12.5 126t-40 105.5t-74 73t-114.5 27.5q-42 0 -78.5 -10.5t-71.5 -32t-70 -53t-75 -74.5q-1 -16 -1 -37v-43z" />
<glyph unicode="&#x432;" horiz-adv-x="981" d="M153 89v775q0 41 18.5 63t56.5 26q26 3 55.5 5t60.5 3.5t64 2.5t67 1q97 0 168 -16t118 -47t69.5 -76t22.5 -103q0 -76 -40.5 -130t-119.5 -77q99 -21 149 -81t50 -151q0 -71 -27 -126.5t-80 -93t-132 -57t-184 -19.5q-33 0 -64 0.5t-60 2t-57.5 3.5t-56.5 5 q-40 5 -59 26.5t-19 63.5zM313 123q19 -3 39.5 -4.5t42 -3t43 -2.5t39.5 -1q65 0 111 11.5t76.5 33.5t44.5 53.5t14 70.5q0 40 -14 70.5t-44.5 50.5t-78 30t-112.5 10h-161v-319zM313 553h168q103 0 157.5 38.5t54.5 110.5q0 33 -12 59t-39.5 44t-71 27t-105.5 9 q-47 0 -86 -2.5t-66 -5.5v-280z" />
<glyph unicode="&#x433;" horiz-adv-x="708" d="M153 25v867q0 30 13.5 44.5t37.5 14.5h453q8 0 13.5 -4.5t10 -14t7 -23t2.5 -32.5q0 -20 -2.5 -34t-7 -23t-10 -13t-13.5 -4h-339v-778q0 -8 -4 -13.5t-13 -9.5t-25 -6t-41 -2q-24 0 -40 2t-25.5 6t-13 9.5t-3.5 13.5z" />
<glyph unicode="&#x434;" horiz-adv-x="1143" d="M23 99q0 25 8 33t31 8h64q37 45 69 103t59.5 145.5t50.5 210.5t42 294q2 14 5.5 25.5t10 18t15.5 10.5t21 4h500q24 0 37.5 -14.5t13.5 -44.5v-752h125q21 0 30 -8t9 -33v-401q0 -7 -3 -11.5t-11.5 -7.5t-22.5 -5t-33 -2q-20 0 -33 2t-21.5 5t-12 7.5t-3.5 11.5v302h-811 v-302q0 -7 -3 -11.5t-11.5 -7.5t-21.5 -5t-32 -2q-21 0 -34.5 2t-22 5t-12 7.5t-3.5 11.5v401zM296 140h488v675h-285q-21 -163 -43.5 -275t-48 -189t-53.5 -125.5t-58 -85.5z" />
<glyph unicode="&#x435;" horiz-adv-x="1019" d="M93 471q0 116 30 208.5t86.5 157t136.5 99t179 34.5q106 0 180.5 -34t122.5 -91.5t70.5 -135t22.5 -165.5v-30q0 -39 -19.5 -55.5t-44.5 -16.5h-590q0 -75 15 -135t50 -103t91 -66t137 -23q64 0 114 10.5t86.5 23.5t60 23.5t35.5 10.5q7 0 12.5 -3.5t8.5 -10.5t4.5 -19.5 t1.5 -30.5q0 -13 -1 -22.5t-2.5 -17t-5 -13.5t-9 -11.5t-32.5 -18t-70 -24.5t-99.5 -21.5t-120.5 -9.5q-111 0 -194.5 31t-140.5 92t-86 153t-29 214zM267 563h488q3 130 -57.5 204t-179.5 74q-61 0 -107 -23t-77 -61t-48 -88.5t-19 -105.5z" />
<glyph unicode="&#x436;" horiz-adv-x="1411" d="M62 18q0 6 2.5 15.5t9.5 24.5l99 227q19 45 41 79t46.5 59t53 42.5t62.5 28.5v2q-24 8 -47.5 20.5t-46.5 35t-45 56.5t-43 84l-83 199q-5 13 -8 23t-3 19q0 5 3.5 9.5t12 7.5t24 4.5t39.5 1.5q27 0 45 -1.5t29 -5.5t16.5 -10t7.5 -14l79 -208q17 -43 35.5 -74t42.5 -50.5 t53.5 -28t68.5 -8.5h67v378q0 5 5 9.5t15 7t26 4t37 1.5t36.5 -1.5t25.5 -4t15 -7t5 -9.5v-378h67q39 0 69 9t54.5 28.5t44 50t36.5 73.5l84 208q4 8 8.5 14t14 10t26 5.5t43.5 1.5q24 0 39.5 -1.5t24 -4.5t12 -7.5t3.5 -9.5q0 -9 -3 -19t-8 -23l-86 -199 q-21 -50 -43.5 -83.5t-45.5 -55.5t-45.5 -35t-45.5 -20v-2q34 -12 62.5 -29t53 -42.5t45.5 -60t41 -79.5l98 -227q3 -7 5.5 -13t3.5 -11.5t2 -9t1 -6.5q0 -6 -4 -10.5t-13.5 -7.5t-25 -4.5t-39.5 -1.5q-28 0 -45.5 2t-28 5.5t-15.5 9t-8 12.5l-96 232q-19 45 -39.5 77.5 t-45.5 52.5t-57.5 29.5t-76.5 9.5h-67v-407q0 -5 -5 -9.5t-15 -7.5t-25.5 -4.5t-36.5 -1.5t-37 1.5t-26 4.5t-15 7.5t-5 9.5v407h-67q-44 0 -77 -9.5t-59 -29.5t-46.5 -52.5t-39.5 -77.5l-96 -232q-2 -7 -7.5 -12.5t-15 -9t-27 -5.5t-44.5 -2q-23 0 -39 1.5t-25.5 4.5 t-13.5 7.5t-4 10.5z" />
<glyph unicode="&#x437;" horiz-adv-x="866" d="M75 141q0 16 2 27t5 18t7 10.5t11 3.5q11 0 30.5 -13.5t52.5 -30t81.5 -30.5t119.5 -14q50 0 90 10.5t68 31t43.5 51.5t15.5 72q0 35 -15 63t-47 47.5t-82 30.5t-121 11h-100q-10 0 -16 3.5t-10.5 11t-6 20t-1.5 29.5q0 16 2 28t6 19t10 10.5t15 3.5h97q63 0 108.5 10 t76 29.5t45 48t14.5 65.5q0 33 -14 58t-37.5 41.5t-57.5 25t-73 8.5q-61 0 -108.5 -14t-82 -30.5t-56.5 -30t-31 -13.5q-5 0 -9.5 2.5t-8 9t-5 18t-1.5 27.5q0 29 4.5 46t16.5 29t42 28t70.5 28.5t88 21t97.5 8.5q73 0 134 -15.5t104.5 -47t67.5 -78t24 -108.5 q0 -37 -12 -70.5t-34.5 -61.5t-55.5 -50t-73 -34l-2 -1q39 -4 77 -22.5t68 -48t48.5 -70t18.5 -89.5q0 -68 -27 -122t-77.5 -92.5t-123.5 -58.5t-166 -20q-52 0 -97.5 7.5t-83 19t-63 25t-36 22.5t-15.5 16.5t-7 16.5t-3.5 22t-1.5 31z" />
<glyph unicode="&#x438;" horiz-adv-x="1107" d="M153 24v902q0 7 3.5 13t13 10t25.5 5.5t39 1.5q48 0 66 -7.5t18 -22.5v-521q0 -39 -2 -77.5t-5 -76.5q23 38 46.5 74.5t50.5 71.5l387 529q6 8 12.5 14t16 9.5t22.5 5t34 1.5t35.5 -1.5t23 -5.5t12 -10t3.5 -14v-901q0 -7 -4 -13t-13 -9.5t-25 -5.5t-40 -2t-40 2t-26 5.5 t-14 9.5t-4 13v518q0 39 2 79.5t5 79.5q-23 -40 -50.5 -78.5t-55.5 -76.5l-382 -522q-7 -8 -12.5 -14t-14 -9.5t-21.5 -5t-32 -1.5q-22 0 -36 2t-22.5 5.5t-12 9.5t-3.5 13z" />
<glyph unicode="&#x439;" horiz-adv-x="1107" d="M120 951zM153 24v902q0 7 3.5 13t13 10t25.5 5.5t39 1.5q48 0 66 -7.5t18 -22.5v-521q0 -39 -2 -77.5t-5 -76.5q23 38 46.5 74.5t50.5 71.5l387 529q6 8 12.5 14t16 9.5t22.5 5t34 1.5t35.5 -1.5t23 -5.5t12 -10t3.5 -14v-901q0 -7 -4 -13t-13 -9.5t-25 -5.5t-40 -2 t-40 2t-26 5.5t-14 9.5t-4 13v518q0 39 2 79.5t5 79.5q-23 -40 -50.5 -78.5t-55.5 -76.5l-382 -522q-7 -8 -12.5 -14t-14 -9.5t-21.5 -5t-32 -1.5q-22 0 -36 2t-22.5 5.5t-12 9.5t-3.5 13zM252 1350q0 10 3.5 17t13 11t25 6t37.5 2q24 0 38 -2.5t21.5 -7.5t10 -13t2.5 -19 q0 -32 10 -59t30.5 -47t49.5 -31t67 -11q37 0 65.5 11t48.5 31t30 48t10 60q0 10 2.5 17.5t10 12.5t21 7.5t36.5 2.5q24 0 39.5 -2t25 -6t13.5 -11t4 -17q0 -57 -17 -107t-54 -87.5t-95 -59t-141 -21.5q-76 0 -133.5 19t-96 54.5t-58 86.5t-19.5 115z" />
<glyph unicode="&#x43a;" horiz-adv-x="950" d="M153 19v914q0 5 4.5 9.5t14.5 7.5t26 4.5t37 1.5t37 -1.5t26 -4.5t15 -7.5t5 -9.5v-377h70q38 0 69.5 8.5t57.5 28t46.5 50.5t37.5 75l84 207q2 8 7 14t15 10t26.5 5.5t43.5 1.5q24 0 39.5 -1.5t24 -4.5t11.5 -7.5t3 -9.5q0 -9 -2.5 -19t-7.5 -23l-86 -198 q-20 -50 -43.5 -84t-47.5 -56.5t-49 -35t-48 -19.5v-2q35 -12 64.5 -29t55 -42t47.5 -59.5t41 -79.5l99 -228q4 -7 6 -13t3 -11.5t1.5 -9t0.5 -6.5q0 -6 -3.5 -10.5t-13 -7.5t-25 -4.5t-39.5 -1.5q-28 0 -45.5 2t-28.5 5.5t-16 9t-7 12.5l-96 233q-18 45 -38.5 77.5 t-47.5 52.5t-61 29t-78 9h-70v-405q0 -5 -5 -10t-15 -8t-26 -5t-37 -2t-37 2t-26 5t-14.5 8t-4.5 10z" />
<glyph unicode="&#x43b;" horiz-adv-x="1045" d="M22 57q0 24 1.5 39t5 24t9 12t13.5 3q33 0 63 15.5t56 51t49 93t42 141.5t36 196.5t32 258.5q2 30 14.5 44.5t35.5 14.5h462q24 0 37.5 -14.5t13.5 -44.5v-866q0 -8 -4 -13.5t-13 -9.5t-25 -6t-40 -2q-25 0 -41 2t-25.5 6t-13.5 9.5t-4 13.5v786h-248 q-16 -159 -38.5 -283t-50.5 -216t-63 -155t-76.5 -101.5t-90 -55.5t-103.5 -17q-9 0 -15.5 3t-10.5 11t-6 22.5t-2 37.5z" />
<glyph unicode="&#x43c;" horiz-adv-x="1385" d="M97 15.5q-2 7.5 0 18.5l99 852q5 32 22.5 48.5t52.5 16.5h79q29 0 49.5 -4.5t35 -15.5t24.5 -29.5t19 -46.5l133 -383q11 -35 23 -70.5t22.5 -70t20 -67.5t17.5 -63h2q9 31 18.5 65.5t20.5 70t22.5 70.5t22.5 67l133 381q8 25 17.5 43.5t23.5 30t33.5 17t47.5 5.5h78 q36 0 54.5 -15t21.5 -48l100 -854q1 -22 -14 -31t-61 -9q-25 0 -41 1t-25 4t-12.5 8.5t-4.5 14.5l-65 525q-3 28 -6 60t-6 65t-5.5 66t-5.5 62l-1 23q-9 -29 -19 -61t-21.5 -65t-22 -66t-19.5 -62l-189 -533q-4 -12 -9.5 -20t-15 -13t-24 -7t-35.5 -2t-35 2t-23.5 6.5 t-15.5 12.5t-10 20l-182 534q-10 28 -20.5 60t-21 65.5t-20.5 66.5t-17 62l-1 -23q-3 -29 -6 -62t-6.5 -66t-7 -65t-5.5 -60l-62 -516q-1 -12 -4.5 -19.5t-13.5 -11t-26 -5t-42 -1.5q-25 0 -39.5 2t-22 7t-9.5 12.5z" />
<glyph unicode="&#x43d;" horiz-adv-x="1095" d="M153 25v900q0 8 3.5 13.5t13 10t25.5 6t40 1.5q25 0 41 -1.5t25 -6t13 -10t4 -13.5v-366h459v366q0 8 4 13.5t13 10t25 6t41 1.5q24 0 40 -1.5t25 -6t13 -10t4 -13.5v-900q0 -8 -4 -13.5t-13 -9.5t-25 -6t-40 -2q-25 0 -41 2t-25 6t-13 9.5t-4 13.5v395h-459v-395 q0 -8 -4 -13.5t-13 -9.5t-25 -6t-41 -2q-24 0 -40 2t-25.5 6t-13 9.5t-3.5 13.5z" />
<glyph unicode="&#x43e;" horiz-adv-x="1080" d="M90 467q0 110 28.5 202.5t86 159.5t143.5 104t201 37q111 0 193.5 -33t137.5 -96t82.5 -153t27.5 -203q0 -110 -29 -202.5t-86.5 -159.5t-144 -104.5t-200.5 -37.5q-111 0 -193.5 33t-137.5 96t-82 153t-27 204zM263 478q0 -74 13.5 -139t45 -113.5t84.5 -77t132 -28.5 q72 0 125 26t87 73t50 112t16 143q0 73 -13.5 138t-44.5 114t-84 77.5t-132 28.5q-73 0 -125.5 -26t-86.5 -73.5t-50.5 -112.5t-16.5 -142z" />
<glyph unicode="&#x43f;" horiz-adv-x="1066" d="M153 25v867q0 30 13.5 44.5t37.5 14.5h659q24 0 37 -14.5t13 -44.5v-867q0 -8 -4 -13.5t-13 -9.5t-25 -6t-40 -2q-25 0 -41 2t-25.5 6t-13.5 9.5t-4 13.5v786h-429v-786q0 -8 -4 -13.5t-13.5 -9.5t-25.5 -6t-40 -2t-40 2t-25.5 6t-13 9.5t-3.5 13.5z" />
<glyph unicode="&#x440;" horiz-adv-x="1076" d="M153 -332v1257q0 9 3 14.5t12 9.5t23 5.5t34 1.5q21 0 34.5 -1.5t22.5 -5.5t12.5 -9.5t3.5 -14.5v-121q41 42 79 73t76.5 51.5t79 31t85.5 10.5q98 0 167 -38t112.5 -104t63.5 -153.5t20 -185.5q0 -118 -25.5 -212t-75 -159.5t-122.5 -101t-167 -35.5q-40 0 -74 8 t-66.5 25t-64.5 43t-68 61v-450q0 -8 -4 -14t-13 -10t-25 -6t-41 -2q-24 0 -40 2t-25.5 6t-13 10t-3.5 14zM318 294q68 -83 129 -127t128 -44q62 0 106.5 30t72 80t40.5 112t13 125q0 69 -10.5 133.5t-36 114.5t-68.5 80t-107 30q-32 0 -63 -9.5t-63 -30t-67 -54t-74 -82.5 v-358z" />
<glyph unicode="&#x441;" horiz-adv-x="866" d="M90 464q0 133 32.5 228.5t89 156.5t133 90.5t165.5 29.5q43 0 83.5 -8t74.5 -21t60.5 -30t38.5 -29t16.5 -19t7.5 -16.5t4 -21.5t1 -30q0 -39 -9 -54.5t-22 -15.5q-15 0 -34.5 16.5t-49.5 36.5t-72.5 36.5t-100.5 16.5q-119 0 -182.5 -91.5t-63.5 -265.5 q0 -87 16.5 -152.5t48.5 -109.5t78.5 -65.5t106.5 -21.5q57 0 100 18t74.5 39.5t53 39t33.5 17.5q7 0 12 -4t8.5 -13.5t5 -24t1.5 -34.5q0 -17 -1 -29.5t-3.5 -21t-6 -15t-16 -19t-42.5 -31t-67.5 -33t-81.5 -23.5t-91 -9q-97 0 -172 32t-125.5 93.5t-77 151t-26.5 206.5z " />
<glyph unicode="&#x442;" horiz-adv-x="793" d="M10 877q0 18 2.5 32t7 23.5t10.5 14t14 4.5h705q8 0 14.5 -4.5t10.5 -14t6.5 -24t2.5 -32.5q0 -20 -2 -34t-6.5 -23t-10.5 -13.5t-15 -4.5h-270v-776q0 -8 -4 -13.5t-13 -9.5t-25 -6t-41 -2q-24 0 -40 2t-25.5 6t-13 9.5t-3.5 13.5v776h-270q-8 0 -14.5 4.5t-10.5 13.5 t-6.5 23.5t-2.5 34.5z" />
<glyph unicode="&#x443;" horiz-adv-x="927" d="M34 925q0 12 8 19t26 9.5t48 2.5t47 -1.5t27 -5.5t14.5 -11.5t9.5 -20.5l257 -722h3l248 726q6 19 14.5 24.5t25.5 8t49 2.5q28 0 46 -2.5t26.5 -9.5t8.5 -19t-6 -30l-323 -895l-120 -331q-6 -16 -30.5 -24.5t-74.5 -8.5q-26 0 -42 2.5t-24.5 8.5t-9.5 16t5 24l124 313 q-9 4 -17 13t-11 19l-321 860q-8 21 -8 33z" />
<glyph unicode="&#x444;" horiz-adv-x="1278" d="M81 468q0 106 31 195t91.5 155t149.5 105.5t203 46.5v380q0 7 4 13t13.5 10t25.5 6t40 2t40 -2t25 -6t13 -10t4 -13v-380q119 -6 208 -42t148.5 -98.5t89.5 -150.5t30 -196q0 -106 -31 -195t-91.5 -155t-149.5 -106t-204 -46v-313q0 -8 -4 -14t-13 -10t-25 -6t-40 -2 t-40 2t-25.5 6t-13.5 10t-4 14v313q-117 5 -206 40.5t-149 98t-90 150.5t-30 198zM252 478q0 -79 16.5 -142.5t53 -109t94.5 -73t140 -34.5v712q-148 -8 -226 -96.5t-78 -256.5zM721 119q149 9 227 98t78 255q0 163 -71.5 254t-233.5 105v-712z" />
<glyph unicode="&#x445;" horiz-adv-x="887" d="M41.5 20.5q0.5 9.5 9.5 23.5l280 439l-265 423q-8 14 -8.5 23.5t9 16t29 8.5t51.5 2q29 0 46.5 -1.5t27.5 -4.5t15 -8t9 -12l205 -335l208 335q4 6 9 11t13.5 8.5t24 5t42.5 1.5q29 0 47.5 -2t27.5 -7.5t8 -15.5t-10 -25l-263 -418l278 -444q8 -14 8 -23.5t-9.5 -15.5 t-29 -8.5t-50.5 -2.5q-30 0 -47.5 1.5t-28 5t-16 9t-9.5 12.5l-216 357l-215 -357q-4 -7 -9.5 -12.5t-16 -9t-27.5 -5t-45 -1.5q-29 0 -47.5 2.5t-27 8.5t-8 15.5z" />
<glyph unicode="&#x446;" horiz-adv-x="1109" d="M153 58v867q0 8 3.5 13.5t13 10t25.5 6t40 1.5q25 0 41 -1.5t25 -6t13 -10t4 -13.5v-783h431v783q0 8 4 13.5t13.5 10t25.5 6t40 1.5q25 0 41 -1.5t25 -6t13 -10t4 -13.5v-783h125q24 0 32 -9t8 -32v-407q-1 -11 -18 -16.5t-51 -5.5q-37 0 -54 6t-17 16v306h-736 q-24 0 -37.5 14.5t-13.5 43.5z" />
<glyph unicode="&#x447;" horiz-adv-x="960" d="M66 669v256q0 8 3.5 13.5t13.5 10t25.5 6t39.5 1.5q25 0 41 -1.5t25 -6t13.5 -10t4.5 -13.5v-230q0 -81 12 -121t35 -63.5t56.5 -33t78.5 -9.5q59 0 115.5 15t112.5 43v399q0 8 3.5 13.5t13 10t26 6t40.5 1.5t40 -1.5t25 -6t13 -10t4 -13.5v-900q0 -8 -4 -13.5t-13 -9.5 t-25 -6t-40 -2t-40.5 2t-26 6t-13 9.5t-3.5 13.5v362q-56 -25 -118.5 -39.5t-135.5 -14.5q-93 0 -155 24t-99 66t-52.5 100t-15.5 146z" />
<glyph unicode="&#x448;" horiz-adv-x="1492" d="M153 58v867q0 8 3.5 13.5t13.5 10t26 6t40 1.5t40 -1.5t25 -6t13 -10t4 -13.5v-783h347v783q0 8 3.5 13.5t12.5 10t24 6t40 1.5q23 0 39 -1.5t25 -6t13 -10t4 -13.5v-783h348v783q0 8 3.5 13.5t13 10t25 6t39.5 1.5q25 0 41 -1.5t25.5 -6t13.5 -10t4 -13.5v-867 q0 -29 -14 -43.5t-37 -14.5h-1084q-24 0 -37.5 14.5t-13.5 43.5z" />
<glyph unicode="&#x449;" horiz-adv-x="1534" d="M153 58v867q0 8 3.5 13.5t13.5 10t26 6t40 1.5t40 -1.5t25 -6t13 -10t4 -13.5v-783h347v783q0 8 3.5 13.5t12.5 10t24.5 6t39.5 1.5t39.5 -1.5t24.5 -6t13 -10t4 -13.5v-783h348v783q0 8 3.5 13.5t13 10t25 6t39.5 1.5q25 0 41 -1.5t25.5 -6t13.5 -10t4 -13.5v-783h122 q23 0 33 -9t8 -32v-407q0 -6 -3.5 -10t-12 -6.5t-21 -4t-30.5 -1.5q-19 0 -33 1.5t-22.5 4.5t-12 6.5t-3.5 8.5v307h-1159q-25 0 -38.5 14.5t-13.5 43.5z" />
<glyph unicode="&#x44a;" horiz-adv-x="1098" d="M10 878q0 39 9 56t25 17h372q21 0 34 -12.5t13 -39.5v-291q37 3 77 4.5t86 1.5q109 0 186.5 -21.5t127 -61.5t73 -95.5t23.5 -124.5t-25 -129t-78 -104t-136 -69.5t-200 -25.5q-27 0 -55 0.5t-55.5 2t-54.5 3.5t-52 5q-42 5 -62.5 27t-20.5 67v714h-253q-8 0 -14 4 t-10.5 13.5t-7 23.5t-2.5 35zM463 127q35 -4 72 -7t87 -3q124 0 182 48.5t58 134.5q0 41 -13 74.5t-42 57t-76.5 36t-116.5 12.5q-42 0 -80.5 -2t-70.5 -5v-346z" />
<glyph unicode="&#x44b;" horiz-adv-x="1364" d="M153 88v837q0 8 3.5 13.5t13 10t25 6t38.5 1.5q48 0 66.5 -7.5t18.5 -23.5v-317q37 3 74.5 4.5t81.5 1.5q107 0 183 -21.5t125.5 -61.5t72.5 -95.5t23 -124.5t-24.5 -129t-77 -104t-134.5 -69.5t-197 -25.5q-27 0 -54 0.5t-53 2t-51.5 3.5t-51.5 5q-42 5 -62 27t-20 67z M318 127q35 -4 69 -7t83 -3q122 0 179 48.5t57 134.5q0 41 -12.5 74.5t-41 57t-75.5 36t-115 12.5q-41 0 -76 -2t-68 -5v-346zM1046 25v900q0 8 3.5 13.5t13 10t25.5 6t40 1.5q25 0 41 -1.5t25 -6t13 -10t4 -13.5v-900q0 -8 -4 -13.5t-13 -9.5t-25 -6t-41 -2q-24 0 -40 2 t-25.5 6t-13 9.5t-3.5 13.5z" />
<glyph unicode="&#x44c;" horiz-adv-x="962" d="M153 88v837q0 8 3.5 13.5t13 10t25.5 6t40 1.5t40 -1.5t25.5 -6t13.5 -10t4 -13.5v-317q37 3 80 4.5t88 1.5q109 0 187.5 -21.5t128.5 -61.5t74 -95.5t24 -124.5t-25.5 -129t-79.5 -104t-138 -69.5t-201 -25.5q-27 0 -56 0.5t-57 2t-55 3.5t-53 5q-42 5 -62 27t-20 67z M318 127q35 -4 75 -7t89 -3q124 0 184 48.5t60 134.5q0 41 -13 74.5t-43 57t-78 36t-118 12.5q-42 0 -82.5 -2t-73.5 -5v-346z" />
<glyph unicode="&#x44d;" horiz-adv-x="907" d="M77 149q0 38 7.5 51.5t19.5 13.5q11 0 29.5 -16t50.5 -34.5t80.5 -34.5t119.5 -16q119 0 188.5 77.5t76.5 235.5h-453q-14 0 -22 14.5t-8 47.5t8 47.5t22 14.5h452q-6 66 -26 119t-55 90.5t-83.5 58t-110.5 20.5q-59 0 -103.5 -16.5t-76.5 -36t-51.5 -36t-29.5 -16.5 q-6 0 -10.5 3.5t-8 10.5t-5 20t-1.5 32q0 17 1.5 28.5t3.5 19.5t5 13.5t11 13t32.5 24t62 32.5t87.5 28t109 12q92 0 169 -31.5t132.5 -92t86 -148.5t30.5 -201q0 -123 -28 -219t-82 -162t-135 -100.5t-186 -34.5q-54 0 -101 8.5t-83.5 21.5t-62 29t-36 25.5t-15 15.5t-7 15 t-3.5 21.5t-1 31.5z" />
<glyph unicode="&#x44e;" horiz-adv-x="1478" d="M153 25v900q0 8 3.5 13.5t13 10t25.5 6t40 1.5q25 0 41 -1.5t25 -6t13 -10t4 -13.5v-370h204q9 92 40.5 168t86 131t132.5 85.5t180 30.5q108 0 188 -34t133 -97t79.5 -152.5t26.5 -199.5t-29.5 -203t-86 -160t-138.5 -105t-187 -38q-108 0 -186 29.5t-130.5 86.5 t-80 139.5t-32.5 187.5h-200v-399q0 -8 -4 -13.5t-13 -9.5t-25 -6t-41 -2q-24 0 -40 2t-25.5 6t-13 9.5t-3.5 13.5zM686 479q0 -76 12 -141.5t41.5 -114t79.5 -76t128 -27.5q65 0 115 23t84 67.5t51.5 111.5t17.5 154q0 71 -12 135.5t-41.5 113.5t-80 78t-127.5 29 q-69 0 -120 -27t-84 -74t-48.5 -112t-15.5 -140z" />
<glyph unicode="&#x44f;" horiz-adv-x="971" d="M56 20q0 7 5.5 22.5t22.5 54.5l72 169q28 64 69 110.5t94 68.5q-97 18 -154.5 77.5t-57.5 157.5q0 65 27 117.5t79.5 89t129 56t175.5 19.5q24 0 55.5 -1t65 -3t65 -4.5t54.5 -4.5q30 -3 45 -22t15 -47v-855q0 -8 -3.5 -14t-12.5 -9.5t-25 -5.5t-42 -2q-24 0 -40 2 t-25.5 5.5t-13 9.5t-3.5 14v379h-95q-62 0 -96.5 -10t-62 -33.5t-49.5 -60t-42 -89.5l-73 -176q-5 -13 -11 -21t-17.5 -12.5t-29 -6t-43.5 -1.5q-19 0 -33.5 1t-24.5 3.5t-15 8t-5 13.5zM272 678q0 -36 13.5 -64.5t41 -48t70.5 -30t120 -10.5h136v304q-36 5 -74 6.5t-70 1.5 q-68 0 -113.5 -11.5t-73 -33t-39 -50.5t-11.5 -64z" />
<glyph unicode="&#x450;" horiz-adv-x="1019" d="M93 471q0 116 30 208.5t86.5 157t136.5 99t179 34.5q106 0 180.5 -34t122.5 -91.5t70.5 -135t22.5 -165.5v-30q0 -39 -19.5 -55.5t-44.5 -16.5h-590q0 -75 15 -135t50 -103t91 -66t137 -23q64 0 114 10.5t86.5 23.5t60 23.5t35.5 10.5q7 0 12.5 -3.5t8.5 -10.5t4.5 -19.5 t1.5 -30.5q0 -13 -1 -22.5t-2.5 -17t-5 -13.5t-9 -11.5t-32.5 -18t-70 -24.5t-99.5 -21.5t-120.5 -9.5q-111 0 -194.5 31t-140.5 92t-86 153t-29 214zM136 951zM267 563h488q3 130 -57.5 204t-179.5 74q-61 0 -107 -23t-77 -61t-48 -88.5t-19 -105.5zM268 1373.5 q-1 8.5 6 15t24.5 10t45.5 3.5q24 0 40.5 -2t27.5 -6t19 -11t16 -18l144 -231q7 -11 9 -19t-3.5 -13t-18 -8t-34.5 -3q-20 0 -33 1.5t-22.5 5t-16.5 9.5t-14 16l-181 233q-8 9 -9 17.5z" />
<glyph unicode="&#x451;" horiz-adv-x="1019" d="M93 471q0 116 30 208.5t86.5 157t136.5 99t179 34.5q106 0 180.5 -34t122.5 -91.5t70.5 -135t22.5 -165.5v-30q0 -39 -19.5 -55.5t-44.5 -16.5h-590q0 -75 15 -135t50 -103t91 -66t137 -23q64 0 114 10.5t86.5 23.5t60 23.5t35.5 10.5q7 0 12.5 -3.5t8.5 -10.5t4.5 -19.5 t1.5 -30.5q0 -13 -1 -22.5t-2.5 -17t-5 -13.5t-9 -11.5t-32.5 -18t-70 -24.5t-99.5 -21.5t-120.5 -9.5q-111 0 -194.5 31t-140.5 92t-86 153t-29 214zM117 951zM249 1214q0 56 19.5 76t73.5 20q55 0 74 -20t19 -73q0 -55 -20 -75t-74 -20t-73 19.5t-19 72.5zM267 563h488 q3 130 -57.5 204t-179.5 74q-61 0 -107 -23t-77 -61t-48 -88.5t-19 -105.5zM603 1214q0 56 19.5 76t73.5 20q55 0 74 -20t19 -73q0 -55 -20 -75t-74 -20t-73 19.5t-19 72.5z" />
<glyph unicode="&#x452;" horiz-adv-x="1107" d="M-7 1168q0 17 2.5 29.5t7 20.5t10.5 11.5t14 3.5h141v129q0 8 3.5 14t13 10t25.5 6t40 2q25 0 41 -2t25 -6t13 -10t4 -14v-129h239q8 0 14 -3.5t10.5 -11.5t6.5 -20.5t2 -29.5q0 -34 -8.5 -49.5t-24.5 -15.5h-239v-299q61 67 130.5 107t155.5 40q82 0 145.5 -34.5 t108.5 -105t68.5 -180t23.5 -258.5q0 -145 -13 -256.5t-38 -193.5t-60.5 -137.5t-81.5 -88.5t-102 -47.5t-120 -14.5q-9 0 -15.5 3t-10.5 11t-5.5 21t-1.5 35q0 23 1.5 38t4.5 23.5t8.5 11.5t13.5 3q40 0 74.5 8t62 30t49.5 62t36.5 104t22 155t7.5 216q0 119 -13.5 204.5 t-40.5 141t-66 81t-90 25.5q-65 0 -125.5 -43t-128.5 -127v-613q0 -8 -4 -13.5t-13 -9.5t-25 -6t-41 -2q-24 0 -40 2t-25.5 6t-13 9.5t-3.5 13.5v1078h-141q-16 0 -25 15.5t-9 49.5z" />
<glyph unicode="&#x453;" horiz-adv-x="708" d="M153 25v867q0 30 13.5 44.5t37.5 14.5h453q8 0 13.5 -4.5t10 -14t7 -23t2.5 -32.5q0 -20 -2.5 -34t-7 -23t-10 -13t-13.5 -4h-339v-778q0 -8 -4 -13.5t-13 -9.5t-25 -6t-41 -2q-24 0 -40 2t-25.5 6t-13 9.5t-3.5 13.5zM168 951zM300.5 1115q1.5 8 8.5 19l145 231 q6 11 14 18t19.5 11t28.5 6t41 2q28 0 45.5 -3.5t24.5 -10t6 -15t-9 -17.5l-181 -233q-8 -10 -14.5 -16t-15 -9.5t-22 -5t-33.5 -1.5q-22 0 -35 3t-18.5 8t-4 13z" />
<glyph unicode="&#x454;" horiz-adv-x="909" d="M93 470q0 111 28 203t83.5 158t139 102.5t195.5 36.5q45 0 86.5 -9t76.5 -22.5t62 -30t36.5 -26.5t13.5 -17t6.5 -16t4 -22.5t1.5 -30.5q0 -18 -2 -31t-5.5 -20.5t-8 -11t-9.5 -3.5q-13 0 -32 16.5t-50 37t-75 37.5t-108 17q-68 0 -117.5 -22.5t-82.5 -61t-51 -91 t-22 -113.5h452q14 0 21.5 -15t7.5 -47q0 -33 -7.5 -47.5t-21.5 -14.5h-452q3 -73 20 -131t50.5 -98.5t83.5 -62t118 -21.5q67 0 113.5 16t78.5 34.5t52 34t33 15.5q11 0 16.5 -13t5.5 -44q0 -19 -1 -32t-3 -22.5t-5 -16t-12 -15t-35 -25t-64.5 -31t-88 -24t-108.5 -9.5 q-106 0 -185.5 33t-132.5 96t-79.5 154t-26.5 206z" />
<glyph unicode="&#x455;" horiz-adv-x="801" d="M81 131q0 19 2 32t5 21t8.5 11.5t12.5 3.5q11 0 32.5 -13.5t53 -29.5t74.5 -29.5t99 -13.5q42 0 76 9t59 26.5t38.5 44.5t13.5 64q0 38 -19.5 64t-51.5 46t-72 35.5t-82.5 32.5t-83 38.5t-72.5 52.5t-51.5 74t-19.5 103q0 53 20.5 101.5t61.5 85t102.5 58.5t143.5 22 q36 0 72 -6t65 -15t49.5 -19.5t31 -18.5t14 -14t5 -13.5t3 -18.5t1.5 -27q0 -17 -1.5 -29.5t-5 -20.5t-8.5 -11.5t-11 -3.5q-9 0 -26 11t-44 23.5t-63.5 23.5t-83.5 11q-42 0 -74 -9.5t-52.5 -27t-31 -41.5t-10.5 -52q0 -39 20 -65.5t52 -46.5t73 -36t83.5 -33t84 -38 t73.5 -51t51.5 -72t19.5 -100q0 -69 -25.5 -123t-72.5 -91t-112 -56t-143 -19q-48 0 -91.5 7.5t-78 19t-58.5 24t-35 22.5t-16 28t-5 49z" />
<glyph unicode="&#x456;" horiz-adv-x="470" d="M133 1227q0 58 22 79t81 21q58 0 79.5 -20.5t21.5 -77.5q0 -58 -22 -79t-81 -21q-58 0 -79.5 20.5t-21.5 77.5zM153 25v900q0 7 3.5 13t13 10t25.5 6t40 2q25 0 41 -2t25 -6t13 -10t4 -13v-900q0 -8 -4 -13.5t-13 -9.5t-25 -6t-41 -2q-24 0 -40 2t-25.5 6t-13 9.5 t-3.5 13.5z" />
<glyph unicode="&#x457;" horiz-adv-x="470" d="M-142 951zM-10 1214q0 55 19.5 75.5t71.5 20.5t71.5 -20t19.5 -73q0 -54 -20 -74.5t-72 -20.5t-71 19.5t-19 72.5zM153 25v900q0 8 3.5 13.5t13 10t25.5 6t40 1.5q25 0 41 -1.5t25 -6t13 -10t4 -13.5v-900q0 -8 -4 -13.5t-13 -9.5t-25 -6t-41 -2q-24 0 -40 2t-25.5 6 t-13 9.5t-3.5 13.5zM301 1214q0 55 19.5 75.5t70.5 20.5q53 0 72.5 -20t19.5 -73q0 -54 -20 -74.5t-72 -20.5t-71 19.5t-19 72.5z" />
<glyph unicode="&#x458;" horiz-adv-x="490" d="M-43 -286q0 18 1.5 31t5 21t8 11.5t11.5 3.5q6 0 23.5 -2.5t40.5 -2.5q33 0 56.5 10t38.5 32.5t22 58.5t7 109v939q0 7 4 13t13.5 10t25.5 6t40 2t40 -2t25.5 -6t13.5 -10t4 -13v-940q0 -100 -15 -161.5t-47 -103.5t-82 -63.5t-121 -21.5q-32 0 -54.5 4t-34.5 9 t-16.5 11.5t-6.5 15t-2.5 17.5t-0.5 22zM153 1227q0 58 21.5 79t80.5 21t80 -20.5t21 -77.5q0 -58 -22 -79t-81 -21q-58 0 -79 20.5t-21 77.5z" />
<glyph unicode="&#x459;" horiz-adv-x="1538" d="M19 56q0 25 2 40t5.5 24t9 12t11.5 3q27 0 53 9t52 36.5t50.5 79t46 135t40.5 205.5t34 292q2 30 14.5 44.5t36.5 14.5h451q23 0 37 -14.5t14 -44.5v-284q37 3 80 4.5t88 1.5q109 0 187 -21.5t128.5 -61.5t74 -95.5t23.5 -124.5t-25 -129t-79.5 -104t-138 -69.5 t-200.5 -25.5q-27 0 -56 0.5t-57.5 2t-55.5 3.5t-52 5q-43 5 -63 27t-20 67v724h-237q-16 -176 -39.5 -306t-54 -222t-67 -150.5t-78 -92t-87.5 -46.5t-95 -13q-8 0 -14.5 3t-10.5 11t-6 22.5t-2 37.5zM876 127q35 -4 74.5 -7t88.5 -3q125 0 185 48.5t60 134.5 q0 41 -13.5 74.5t-43.5 57t-78 36t-118 12.5q-41 0 -82 -2t-73 -5v-346z" />
<glyph unicode="&#x45a;" horiz-adv-x="1576" d="M153 25v900q0 8 3.5 13.5t13 10t25.5 6t40 1.5q25 0 41 -1.5t25 -6t13 -10t4 -13.5v-367h422v367q0 8 4 13.5t13.5 10t25.5 6t39 1.5q24 0 40.5 -1.5t26 -6t13.5 -10t4 -13.5v-318q37 4 79.5 5.5t88.5 1.5q109 0 187.5 -21.5t128.5 -61.5t73.5 -95.5t23.5 -124.5 t-25.5 -129t-79 -104t-137.5 -69.5t-201 -25.5q-27 0 -56 0.5t-57 2t-55.5 3.5t-52.5 5q-42 5 -62.5 27t-20.5 67v333h-422v-396q0 -8 -4 -13.5t-13 -9.5t-25 -6t-41 -2q-24 0 -40 2t-25.5 6t-13 9.5t-3.5 13.5zM906 127q34 -4 74 -7t90 -3q124 0 184 48.5t60 134.5 q0 41 -13.5 75t-43.5 57.5t-78 36.5t-117 13q-42 0 -83 -2.5t-73 -4.5v-348z" />
<glyph unicode="&#x45b;" horiz-adv-x="1091" d="M-7 1168q0 18 2.5 30.5t7 20.5t10.5 11t14 3h141v129q0 8 3.5 14t13 10t25.5 6t40 2q25 0 41 -2t25 -6t13 -10t4 -14v-129h239q8 0 14 -3t10.5 -11t6.5 -20.5t2 -30.5q0 -17 -2 -29.5t-6.5 -20.5t-10.5 -11.5t-14 -3.5h-239v-293q72 77 144 112.5t144 35.5 q90 0 151.5 -30t99.5 -81.5t54.5 -119.5t16.5 -165v-537q0 -8 -4 -13.5t-13 -9.5t-25 -6t-40 -2q-26 0 -41.5 2t-25 6t-13 9.5t-3.5 13.5v515q0 78 -11.5 125t-35 81t-60 52t-84.5 18q-62 0 -123.5 -44t-130.5 -129v-618q0 -8 -4 -13.5t-13 -9.5t-25 -6t-41 -2q-24 0 -40 2 t-25.5 6t-13 9.5t-3.5 13.5v1078h-141q-8 0 -14 3.5t-10.5 11.5t-7 20.5t-2.5 29.5z" />
<glyph unicode="&#x45c;" horiz-adv-x="950" d="M153 19v914q0 5 4.5 9.5t14.5 7.5t26 4.5t37 1.5t37 -1.5t26 -4.5t15 -7.5t5 -9.5v-377h70q38 0 69.5 8.5t57.5 28t46.5 50.5t37.5 75l84 207q2 8 7 14t15 10t26.5 5.5t43.5 1.5q24 0 39.5 -1.5t24 -4.5t11.5 -7.5t3 -9.5q0 -9 -2.5 -19t-7.5 -23l-86 -198 q-20 -50 -43.5 -84t-47.5 -56.5t-49 -35t-48 -19.5v-2q35 -12 64.5 -29t55 -42t47.5 -59.5t41 -79.5l99 -228q4 -7 6 -13t3 -11.5t1.5 -9t0.5 -6.5q0 -6 -3.5 -10.5t-13 -7.5t-25 -4.5t-39.5 -1.5q-28 0 -45.5 2t-28.5 5.5t-16 9t-7 12.5l-96 233q-18 45 -38.5 77.5 t-47.5 52.5t-61 29t-78 9h-70v-405q0 -5 -5 -10t-15 -8t-26 -5t-37 -2t-37 2t-26 5t-14.5 8t-4.5 10zM276 951zM408.5 1115q1.5 8 8.5 19l145 231q6 11 14 18t19.5 11t28.5 6t41 2q28 0 45.5 -3.5t24.5 -10t6 -15t-9 -17.5l-181 -233q-8 -10 -14.5 -16t-15 -9.5t-22 -5 t-33.5 -1.5q-22 0 -35 3t-18.5 8t-4 13z" />
<glyph unicode="&#x45d;" horiz-adv-x="1107" d="M136 951zM153 24v902q0 7 3.5 13t13 10t25.5 5.5t39 1.5q48 0 66 -7.5t18 -22.5v-521q0 -39 -2 -77.5t-5 -76.5q23 38 46.5 74.5t50.5 71.5l387 529q6 8 12.5 14t16 9.5t22.5 5t34 1.5t35.5 -1.5t23 -5.5t12 -10t3.5 -14v-901q0 -7 -4 -13t-13 -9.5t-25 -5.5t-40 -2 t-40 2t-26 5.5t-14 9.5t-4 13v518q0 39 2 79.5t5 79.5q-23 -40 -50.5 -78.5t-55.5 -76.5l-382 -522q-7 -8 -12.5 -14t-14 -9.5t-21.5 -5t-32 -1.5q-22 0 -36 2t-22.5 5.5t-12 9.5t-3.5 13zM268 1373.5q-1 8.5 6 15t24.5 10t45.5 3.5q24 0 40.5 -2t27.5 -6t19 -11t16 -18 l144 -231q7 -11 9 -19t-3.5 -13t-18 -8t-34.5 -3q-20 0 -33 1.5t-22.5 5t-16.5 9.5t-14 16l-181 233q-8 9 -9 17.5z" />
<glyph unicode="&#x45e;" horiz-adv-x="927" d="M24 951zM34 925q0 12 8 19t26 9.5t48 2.5t47 -1.5t27 -5.5t14.5 -11.5t9.5 -20.5l257 -722h3l248 726q6 19 14.5 24.5t25.5 8t49 2.5q28 0 46 -2.5t26.5 -9.5t8.5 -19t-6 -30l-323 -895l-120 -331q-6 -16 -30.5 -24.5t-74.5 -8.5q-26 0 -42 2.5t-24.5 8.5t-9.5 16t5 24 l124 313q-9 4 -17 13t-11 19l-321 860q-8 21 -8 33zM156 1350q0 10 3.5 17t13 11t25 6t37.5 2q24 0 38 -2.5t21.5 -7.5t10 -13t2.5 -19q0 -32 10 -59t30.5 -47t49.5 -31t67 -11q37 0 65.5 11t48.5 31t30 48t10 60q0 10 2.5 17.5t10 12.5t21 7.5t36.5 2.5q24 0 39.5 -2t25 -6 t13.5 -11t4 -17q0 -57 -17 -107t-54 -87.5t-95 -59t-141 -21.5q-76 0 -133.5 19t-96 54.5t-58 86.5t-19.5 115z" />
<glyph unicode="&#x45f;" horiz-adv-x="1075" d="M153 58v867q0 8 3.5 13.5t13 10t25.5 6t40 1.5t40 -1.5t25.5 -6t13.5 -10t4 -13.5v-783h439v783q0 8 3.5 13.5t13.5 10t26 6t41 1.5q24 0 39.5 -1.5t25 -6t13.5 -10t4 -13.5v-867q0 -29 -13.5 -43.5t-37.5 -14.5h-265v-306q0 -5 -4 -9t-12.5 -7t-21.5 -4.5t-31 -1.5 t-31 1.5t-21.5 4t-13 6.5t-4.5 10v306h-264q-24 0 -37.5 14.5t-13.5 43.5z" />
<glyph unicode="&#x460;" horiz-adv-x="1900" d="M97 660q0 149 31 269.5t89.5 205t142.5 130t191 45.5q63 0 111 -8t81 -19.5t51.5 -24.5t21.5 -23q2 -8 3 -28t1 -54q0 -60 -23 -60q-10 0 -27.5 10.5t-45 23t-66 23t-91.5 10.5q-65 0 -117.5 -34.5t-89.5 -100t-57 -159t-20 -211.5q0 -142 23 -241t67 -160.5t107.5 -89.5 t144.5 -28q80 0 141 34t98 88v343q0 16 19.5 24t66.5 8q50 0 68 -8t18 -24v-343q36 -54 97.5 -88t141.5 -34q81 0 144.5 28t107.5 89.5t67 160.5t23 241q0 118 -20 211.5t-57 159t-89.5 100t-117.5 34.5q-53 0 -91.5 -10.5t-66 -23t-45 -23t-27.5 -10.5q-23 0 -23 60 q0 34 1 54t3 28q3 10 21.5 23t51.5 24.5t81 19.5t111 8q106 0 190.5 -45.5t143 -130t89.5 -205t31 -269.5q0 -337 -133.5 -506.5t-385.5 -169.5q-54 0 -103.5 12t-92.5 32.5t-78 46t-60 52.5q-25 -27 -60.5 -52.5t-78 -46t-92 -32.5t-103.5 -12q-252 0 -385.5 169.5 t-133.5 506.5z" />
<glyph unicode="&#x461;" horiz-adv-x="1386" d="M34 926q0 19 17.5 24.5t65.5 5.5q28 0 45.5 -1.5t27.5 -5.5t14.5 -10t6.5 -15l237 -719q2 -6 3.5 -13t3.5 -13q2 -7 4 -15l13 31l159 341l-120 349q-4 11 -7 23.5t-3 17.5q0 19 17.5 24.5t65.5 5.5q28 0 45.5 -1.5t27.5 -5.5t14.5 -10t6.5 -15l230 -699l18 -61l5 13 q51 96 93 197t71.5 199t45.5 188t16 163q0 18 18 25t70 7q46 0 66.5 -6t20.5 -26q0 -63 -16 -147t-45.5 -180t-71 -199t-93.5 -205q-42 -81 -67.5 -125.5t-34.5 -53.5q-14 -14 -33.5 -17t-56.5 -3q-30 0 -49.5 2t-31 6t-17.5 11t-9 17l-110 316q-23 -51 -48.5 -107t-48 -104 t-40 -81.5t-23.5 -39.5q-14 -14 -33.5 -17t-56.5 -3q-30 0 -49.5 2t-31 6t-17.5 11t-9 17l-296 855q-4 11 -7 23.5t-3 17.5z" />
<glyph unicode="&#x462;" horiz-adv-x="1284" d="M0 1294zM15 1068q0 19 2.5 33t6.5 23t10.5 13t14.5 4h287v193q0 8 4.5 13.5t15 10t26.5 6t40 1.5t41 -1.5t26.5 -6t14 -10t4.5 -13.5v-193h341q9 0 15.5 -4t10.5 -13t6.5 -23t2.5 -33t-2.5 -32.5t-6.5 -22.5t-10.5 -13t-15.5 -4h-341v-252h191q154 0 237 -26t138.5 -73.5 t83.5 -114.5t28 -147q0 -91 -32 -162.5t-91.5 -120.5t-145.5 -74.5t-232 -25.5h-283q-11 0 -23 3.5t-21.5 12t-15.5 22t-6 32.5v926h-287q-8 0 -14.5 5t-10.5 14.5t-6.5 22.5t-2.5 30zM508 138h182q109 0 162.5 17t87 47t50 72.5t16.5 94.5q0 114 -71 177t-252 63h-175v-471 z" />
<glyph unicode="&#x463;" horiz-adv-x="1063" d="M24 882q0 18 2.5 31t6.5 21.5t10 12.5t14 4h178v214q0 7 3.5 13t13.5 10.5t26 6.5t40 2t40 -2t25 -6.5t13 -10.5t4 -13v-214h260q8 0 14.5 -4t10.5 -12.5t6 -21.5t2 -31t-2 -30.5t-6.5 -20t-10.5 -11t-14 -3.5h-260v-232q45 3 91 4t83 1q97 0 172.5 -18t127 -54 t78.5 -89.5t27 -124.5q0 -72 -26.5 -131.5t-80.5 -102t-135.5 -65t-190.5 -22.5q-26 0 -59.5 1t-67.5 3t-66.5 5t-57.5 7q-17 2 -28.5 7.5t-18.5 15.5t-10 25.5t-3 37.5v731h-179q-7 0 -13.5 3.5t-10.5 11.5t-6 20.5t-2 30.5zM400 119q39 -3 79 -5.5t77 -2.5 q124 0 188.5 46.5t64.5 134.5q0 86 -63 128t-195 42q-39 0 -80.5 -1t-70.5 -3v-339z" />
<glyph unicode="&#x464;" horiz-adv-x="1601" d="M172 25v1244q0 15 19.5 23t66.5 8q50 0 68 -8t18 -23v-524h238q12 130 54 235t113 179t169.5 113.5t222.5 39.5q64 0 121.5 -12.5t102.5 -29.5t74 -34t38 -27q16 -14 20 -32t4 -51q0 -40 -6 -56t-18 -16q-11 0 -35 17t-64 38t-98 38t-136 17q-92 0 -160.5 -33.5t-115 -91 t-72 -135t-32.5 -164.5h610q17 0 25.5 -16t8.5 -55q0 -37 -8.5 -53.5t-25.5 -16.5h-612q3 -102 26 -188t70.5 -148.5t122 -97.5t181.5 -35q74 0 129.5 18t95 39.5t63 39.5t34.5 18t17.5 -12.5t6.5 -50.5q0 -41 -4.5 -65t-23.5 -38q-14 -12 -47 -28.5t-79 -31.5t-102 -26 t-114 -11q-136 0 -238.5 41.5t-172 120.5t-106.5 194t-42 261h-235v-574q0 -15 -18 -23t-68 -8t-68 8t-18 23z" />
<glyph unicode="&#x465;" horiz-adv-x="1332" d="M153 25v900q0 8 3.5 13.5t13 10t25.5 6t40 1.5q25 0 41 -1.5t25 -6t13 -10t4 -13.5v-370h202q7 62 24 118q28 92 83.5 158t139 102.5t195.5 36.5q45 0 86.5 -9t76.5 -22.5t62 -30t36.5 -26.5t13.5 -17t6.5 -16t4 -22.5t1.5 -30.5q0 -18 -2 -31t-5.5 -20.5t-8 -11 t-9.5 -3.5q-13 0 -32 16.5t-50 37t-75 37.5t-108 17q-68 0 -117.5 -22.5t-82.5 -61t-51 -91t-22 -113.5h452q14 0 21.5 -15t7.5 -47q0 -33 -7.5 -47.5t-21.5 -14.5h-452q3 -73 20 -131t50.5 -98.5t83.5 -62t118 -21.5q67 0 113.5 16t78.5 34.5t52 34t33 15.5q11 0 16.5 -13 t5.5 -44q0 -19 -1 -32t-3 -22.5t-5 -16t-12 -15t-35 -25t-64.5 -31t-88 -24t-108.5 -9.5q-106 0 -185.5 33t-132.5 96t-80 154q-21 72 -25 160h-199v-399q0 -8 -4 -13.5t-13 -9.5t-25 -6t-41 -2q-24 0 -40 2t-25.5 6t-13 9.5t-3.5 13.5z" />
<glyph unicode="&#x466;" horiz-adv-x="1291" d="M37.5 25.5q1.5 12.5 9.5 36.5l486 1202q3 11 10 18t19.5 11t32 5.5t48.5 1.5q22 0 38.5 -0.5t29 -2.5t20.5 -4.5t14.5 -6.5t10 -10t5.5 -13l485 -1202q8 -22 8.5 -35.5t-8 -20.5t-28 -9t-53.5 -2q-32 0 -49.5 1.5t-26.5 5t-12 10t-6 15.5l-226 569h-121v-570 q0 -8 -4 -13.5t-13 -9.5t-25 -6t-41 -2q-24 0 -40 2t-25.5 6t-13 9.5t-3.5 13.5v570h-126l-220 -567q-3 -10 -7 -16.5t-13.5 -10.5t-26.5 -5.5t-46 -1.5q-31 0 -49 2.5t-26.5 9.5t-7 19.5zM492 745h294l-148 374h-1z" />
<glyph unicode="&#x467;" horiz-adv-x="1075" d="M27 26q0 6 2.5 15.5t6.5 20.5l400 867l-1 -1q5 21 26.5 27.5t72.5 6.5q58 0 80.5 -6.5t26.5 -28.5l-1 2l398 -867q8 -22 9.5 -35t-6.5 -20t-26.5 -9t-50.5 -2q-29 0 -45 1.5t-24 5t-11 9t-6 13.5v-1l-173 383h-94v-380q0 -14 -16 -22.5t-62 -8.5q-47 0 -62 8.5t-15 22.5 v380h-98l-168 -381q-4 -8 -8 -14t-12.5 -9.5t-23.5 -5t-41 -1.5q-43 0 -60.5 5t-17.5 25zM414 535h233l-117 261z" />
<glyph unicode="&#x468;" horiz-adv-x="1703" d="M172 25v1244q0 15 19.5 23t66.5 8q50 0 68 -8t18 -23v-524h391l210 519q3 11 10 18t19.5 11t32 5.5t48.5 1.5q22 0 38.5 -0.5t29 -2.5t20.5 -4.5t14.5 -6.5t10 -10t5.5 -13l485 -1202q8 -22 8.5 -35.5t-8 -20.5t-28 -9t-53.5 -2q-32 0 -49.5 1.5t-26.5 5t-12 10t-6 15.5 l-226 569h-121v-570q0 -8 -4 -13.5t-13 -9.5t-25 -6t-41 -2q-24 0 -40 2t-25.5 6t-13 9.5t-3.5 13.5v570h-126l-220 -567q-3 -10 -7 -16.5t-13.5 -10.5t-26.5 -5.5t-46 -1.5q-31 0 -49 2.5t-26.5 9.5t-7 19.5t9.5 36.5l217 537h-332v-574q0 -15 -18 -23t-68 -8t-68 8t-18 23 zM904 745h294l-148 374h-1z" />
<glyph unicode="&#x469;" horiz-adv-x="1455" d="M153 25v900q0 8 3.5 13.5t13 10t25.5 6t40 1.5q25 0 41 -1.5t25 -6t13 -10t4 -13.5v-370h325l173 374l-1 -1q5 21 26.5 27.5t72.5 6.5q58 0 80.5 -6.5t26.5 -28.5l-1 2l398 -867q8 -22 9.5 -35t-6.5 -20t-26.5 -9t-50.5 -2q-29 0 -45 1.5t-24 5t-11 9t-6 13.5v-1 l-173 383h-94v-380q0 -14 -16 -22.5t-62 -8.5q-47 0 -62 8.5t-15 22.5v380h-98l-168 -381q-4 -8 -8 -14t-12.5 -9.5t-23.5 -5t-41 -1.5q-43 0 -60.5 5t-17.5 25q0 6 2.5 15.5t6.5 20.5l167 362h-265v-399q0 -8 -4 -13.5t-13 -9.5t-25 -6t-41 -2q-24 0 -40 2t-25.5 6t-13 9.5 t-3.5 13.5zM794 535h233l-117 261z" />
<glyph unicode="&#x46a;" horiz-adv-x="1480" d="M85 27q0 6 2.5 19.5t10.5 35.5l101 293q36 106 69 170t73.5 101t93.5 54.5t127 29.5l-372 497q-19 25 -19 39q0 16 22 22t68 6h955q49 0 72 -6t23 -22q0 -15 -18 -39l-375 -499q73 -8 126.5 -26.5t94.5 -58t74.5 -104t67.5 -164.5l99 -293q15 -44 15 -55q0 -17 -18 -25 t-70 -8q-29 0 -46 2.5t-27.5 7.5t-15.5 12.5t-8 18.5l-107 326q-20 61 -42.5 106.5t-53 75.5t-72.5 44.5t-102 14.5h-6v-576q0 -16 -18 -24t-68 -8t-68.5 8t-18.5 24v576h-7q-65 0 -109 -17t-74.5 -48.5t-50.5 -76t-38 -99.5l-105 -326q-3 -11 -8 -18.5t-15.5 -12.5 t-28.5 -7.5t-46 -2.5q-51 0 -69 8t-18 25zM439 1148l184 -248q35 -48 64.5 -95t56.5 -107h2q23 57 52 104t65 95l187 251h-611z" />
<glyph unicode="&#x46b;" horiz-adv-x="1152" d="M27 29q0 5 2.5 15.5t9.5 27.5l83 213q27 68 55 114t62 75.5t75.5 46t95.5 25.5l-284 340q-17 22 -17 34q0 31 83 31h765q89 0 89 -31q0 -14 -17 -34l-287 -340q56 -7 98 -22t75 -44.5t60.5 -76.5t54.5 -118l81 -212q14 -31 14 -44q0 -17 -17 -25t-65 -8q-26 0 -40 2 t-21.5 6.5t-11 11t-6.5 15.5l-88 236q-16 42 -35 73.5t-44.5 52.5t-59.5 31.5t-79 11.5v-408q0 -16 -17 -24t-64 -8t-64.5 8t-17.5 24v408q-50 0 -86 -12t-61.5 -34t-42.5 -53t-30 -69l-86 -237q-4 -9 -7.5 -15.5t-11.5 -11t-22.5 -6.5t-39.5 -2q-47 0 -64 8t-17 25z M349 825l138 -164q32 -39 56.5 -75.5t37.5 -68.5q18 37 40 73.5t49 68.5l141 166h-462z" />
<glyph unicode="&#x46c;" horiz-adv-x="1855" d="M172 25v1244q0 15 19.5 23t66.5 8q50 0 68 -8t18 -23v-524h582l-361 482q-19 25 -19 39q0 16 22 22t68 6h955q49 0 72 -6t23 -22q0 -15 -18 -39l-375 -499q73 -8 126.5 -26.5t94.5 -58t74.5 -104t67.5 -164.5l99 -293q15 -44 15 -55q0 -17 -18 -25t-70 -8q-29 0 -46 2.5 t-27.5 7.5t-15.5 12.5t-8 18.5l-107 326q-20 61 -42.5 106.5t-53 75.5t-72.5 44.5t-102 14.5h-6v-576q0 -16 -18 -24t-68 -8t-68.5 8t-18.5 24v576h-7q-65 0 -109 -17t-74.5 -48.5t-50.5 -76t-38 -99.5l-105 -326q-3 -11 -8 -18.5t-15.5 -12.5t-28.5 -7.5t-46 -2.5 q-51 0 -69 8t-18 25q0 6 2.5 19.5t10.5 35.5l101 293q26 78 50.5 132t51.5 92h-332v-574q0 -15 -18 -23t-68 -8t-68 8t-18 23zM814 1148l184 -248q35 -48 64.5 -95t56.5 -107h2q23 57 52 104t65 95l187 251h-611z" />
<glyph unicode="&#x46d;" horiz-adv-x="1547" d="M153 25v900q0 8 3.5 13.5t13 10t25.5 6t40 1.5q25 0 41 -1.5t25 -6t13 -10t4 -13.5v-370h479l-276 331q-17 22 -17 34q0 31 83 31h765q89 0 89 -31q0 -14 -17 -34l-287 -340q56 -7 98 -22t75 -44.5t60.5 -76.5t54.5 -118l81 -212q14 -31 14 -44q0 -17 -17 -25t-65 -8 q-26 0 -40 2t-21.5 6.5t-11 11t-6.5 15.5l-88 236q-16 42 -35 73.5t-44.5 52.5t-59.5 31.5t-79 11.5v-408q0 -16 -17 -24t-64 -8t-64.5 8t-17.5 24v408q-50 0 -86 -12t-61.5 -34t-42.5 -53t-30 -69l-86 -237q-4 -9 -7.5 -15.5t-11.5 -11t-22.5 -6.5t-39.5 -2q-47 0 -64 8 t-17 25q0 5 2.5 15.5t9.5 27.5l83 213q17 44 35 78t37 61h-271v-399q0 -8 -4 -13.5t-13 -9.5t-25 -6t-41 -2q-24 0 -40 2t-25.5 6t-13 9.5t-3.5 13.5zM744 825l138 -164q32 -39 56.5 -75.5t37.5 -68.5q18 37 40 73.5t49 68.5l141 166h-462z" />
<glyph unicode="&#x46e;" horiz-adv-x="970" d="M33 -69q0 48 14.5 86.5t46.5 66.5t83 44.5t124 19.5q78 4 148.5 12.5t124 31.5t85 67t31.5 118q0 110 -79.5 167.5t-234.5 57.5h-152q-23 0 -31.5 15t-8.5 55q0 38 9 54t30 16h143q66 0 120.5 15t93 44t59.5 71.5t21 97.5q0 89 -58.5 143t-175.5 54q-64 0 -113.5 -14 t-86.5 -30.5t-61 -30t-37 -13.5q-14 0 -18.5 13.5t-4.5 52.5q0 27 4 47.5t19 35.5q7 7 28 18.5t53.5 23t73.5 22t89 16.5l-150 209q-23 29 -14.5 42.5t60.5 13.5q21 0 33.5 -1.5t20.5 -5t13.5 -9t11.5 -14.5l130 -181l74 123q15 24 27.5 41.5t26.5 29t31 17t40 5.5 q29 0 45.5 -5.5t29.5 -14.5q11 -8 14.5 -20.5t3.5 -34.5t-1 -36t-7 -14q-11 0 -22.5 5t-31.5 5q-14 0 -30 -14t-30 -35l-70 -112q134 -26 199.5 -107t65.5 -202q0 -66 -19.5 -118.5t-53 -91t-78.5 -63t-95 -33.5v-3q60 -7 112 -31t90 -62.5t60 -91t22 -116.5 q0 -107 -39.5 -179t-114 -117t-183 -65.5t-246.5 -24.5q-50 -2 -72 -24.5t-22 -60.5q0 -43 32 -63t107 -20q58 0 106 1.5t91.5 3.5t85 3.5t85.5 1.5q45 0 77 -3t53.5 -8t35 -12t21.5 -16q17 -18 22.5 -41t5.5 -52q0 -71 -33 -71q-13 0 -23 8.5t-28.5 18.5t-52 18.5 t-94.5 8.5q-43 0 -80 -1t-76 -2.5t-85.5 -2.5t-108.5 -1q-92 0 -152.5 19t-95.5 52t-49 78.5t-14 98.5z" />
<glyph unicode="&#x46f;" horiz-adv-x="846" d="M22 -98q0 46 13.5 82.5t51 63t104 43t173.5 21.5q106 5 161.5 44t55.5 121q0 69 -62 110.5t-203 41.5h-100q-19 0 -26.5 14.5t-7.5 49.5q0 33 8 47t25 14h97q126 0 185 39t59 114q0 33 -13.5 58t-38 41.5t-58 25t-72.5 8.5q-56 0 -100 -12t-76 -27t-52.5 -27t-29.5 -12 q-11 0 -17.5 11.5t-6.5 45.5q0 22 2 36.5t8.5 25.5t19 20t33.5 21q30 17 68.5 27.5t84.5 15.5l-130 159q-9 11 -14.5 18.5t-4.5 14.5q0 11 15.5 17t50.5 6t48 -6.5t24 -19.5l99 -120l54 78q13 18 24 31.5t23.5 22.5t27.5 13.5t35 4.5q19 0 37 -4.5t30 -12.5q12 -7 16 -18 t4 -30q0 -20 -3 -33t-14 -13q-12 0 -22.5 4t-21.5 4q-10 -1 -21 -10t-21 -23l-61 -85q109 -17 173.5 -78t64.5 -164q0 -36 -12 -70t-34.5 -62t-55 -50t-73.5 -34l-2 -1q39 -4 77 -22t68 -48t48.5 -70.5t18.5 -89.5q0 -136 -87.5 -210.5t-271.5 -81.5q-69 -2 -111.5 -9.5 t-65.5 -18t-31 -24t-8 -28.5q0 -24 10 -38.5t32 -22t57.5 -9.5t86.5 -2q67 0 128 5.5t125 5.5q65 0 94 -11t41 -28q12 -18 16 -41t4 -52q0 -71 -24 -71q-9 0 -16.5 8.5t-21 18.5t-37.5 18.5t-68 8.5q-62 0 -119.5 -4t-122.5 -4q-62 0 -117 6.5t-98 23.5q-42 17 -67 38.5 t-39 46t-18.5 50.5t-4.5 53z" />
<glyph unicode="&#x470;" horiz-adv-x="1536" d="M144 758v511q0 7 4.5 13t14 10t26 6t41.5 2t41.5 -2t26.5 -6t14 -10t4 -13v-496q0 -83 22 -149.5t66 -113t111.5 -72t157.5 -27.5v858q0 7 4.5 13t15 10t27 6t39.5 2q25 0 41.5 -2t26.5 -6t14 -10t4 -13v-858q90 1 157 27.5t111.5 73t67 112t22.5 145.5v500q0 7 4 13 t14 10t26 6t42 2q24 0 40.5 -2t26 -6t14 -10t4.5 -13v-493q0 -118 -37 -211.5t-105.5 -159.5t-166 -102t-220.5 -39v-239q0 -8 -4 -14t-14 -9.5t-26.5 -5.5t-41.5 -2t-41.5 2t-26 5.5t-14 9.5t-4.5 14v239q-125 3 -223 36t-166 95.5t-104 153.5t-36 209z" />
<glyph unicode="&#x471;" horiz-adv-x="1449" d="M150 436q0 82 5 161.5t5 160.5q0 41 -2.5 83t-7.5 82q-2 8 2 14.5t13 11t25.5 6t39.5 1.5q25 0 40.5 -2t25 -6t14 -10t5.5 -14q5 -40 7.5 -80.5t2.5 -80.5q0 -78 -5 -154.5t-5 -154.5q0 -84 18 -145t55.5 -101.5t97 -61.5t142.5 -25v1239q0 8 4 14.5t13.5 10.5t25 6 t40.5 2q24 0 40 -2t25 -6t13.5 -10t4.5 -14v-1240q85 5 147.5 28.5t103 67.5t59.5 111t19 160q0 71 -7 144.5t-15.5 136.5t-15.5 106.5t-7 54.5q0 6 4 11t13 8.5t24.5 5t40.5 1.5q23 0 39 -1.5t25.5 -5.5t14 -10t6.5 -14q11 -75 19 -137.5t13 -115t7.5 -96t2.5 -79.5 q0 -122 -31 -214.5t-92.5 -156.5t-154.5 -99.5t-215 -43.5v-315q0 -8 -4.5 -14t-13.5 -10t-25 -6t-40 -2q-25 0 -40.5 2t-25 6t-13.5 10t-4 14v313q-127 5 -217.5 36t-148.5 87.5t-85 139.5t-27 192z" />
<glyph unicode="&#x472;" horiz-adv-x="1356" d="M99 640q0 155 37.5 279.5t112.5 212t185.5 134.5t256.5 47q140 0 246 -42t177 -124.5t106.5 -204t35.5 -279.5t-37 -284t-111 -214.5t-185 -136t-258 -47.5q-145 0 -251.5 42.5t-176 126t-104 206.5t-34.5 284zM281 584q5 -102 27.5 -187t68.5 -145t119 -93.5t178 -33.5 q106 0 180.5 35t122.5 97t71.5 145.5t26.5 181.5h-794zM281 722h793q-5 97 -28.5 179t-70 142t-119 94t-175.5 34t-177.5 -34.5t-122.5 -95t-72 -142.5t-28 -177z" />
<glyph unicode="&#x473;" horiz-adv-x="1073" d="M90 470q0 110 28.5 201.5t85.5 158t142 103.5t199 37q109 0 191.5 -34t137 -97t82 -153.5t27.5 -202.5q0 -111 -28.5 -203t-85.5 -158.5t-142.5 -103.5t-199.5 -37q-112 0 -194 35t-136 98.5t-80.5 154.5t-26.5 201zM260 419q2 -69 19.5 -125.5t51 -97.5t85 -63 t120.5 -22q64 0 114.5 20t86 59t55 96.5t21.5 132.5h-553zM260 540h553q-3 61 -19 115t-48.5 95t-83.5 65.5t-125 24.5q-70 0 -121 -24t-85 -65t-51 -95.5t-20 -115.5z" />
<glyph unicode="&#x474;" horiz-adv-x="1208" d="M35 1268.5q-1 13.5 7 20.5t27 9t54 2q31 0 48.5 -1.5t27 -5.5t14 -10.5t8.5 -17.5l367 -1088h2l185 663q41 144 76 235.5t73 143.5t82.5 71.5t103.5 19.5q26 0 45 -4t28.5 -9.5t13 -11t4.5 -12t2 -17.5t1 -28q0 -42 -5.5 -64t-19.5 -22q-10 0 -21 1t-21 1 q-26 0 -47.5 -12t-42.5 -46t-44.5 -95.5t-54.5 -160.5l-249 -800q-3 -11 -10 -18t-20 -11t-33.5 -5.5t-48.5 -1.5q-33 0 -55 1.5t-34.5 5.5t-20 11.5t-11.5 18.5l-422 1202q-8 22 -9 35.5z" />
<glyph unicode="&#x475;" horiz-adv-x="978" d="M34 927q0 8 4 14t13.5 9.5t25.5 4.5t40 1q29 0 45.5 -1.5t26 -5.5t14 -10t8.5 -15l253 -742l5 -24l5 24l158 557q15 58 34 101.5t46 71.5t63.5 42t86.5 14q27 0 49.5 -5t30 -13t11 -22.5t3.5 -47.5q0 -21 -2 -34.5t-5.5 -20.5t-8.5 -10t-10 -3q-9 0 -18 0.5t-20 0.5 q-18 0 -32 -3.5t-26.5 -16.5t-25 -39t-26.5 -71l-203 -653q-4 -11 -10.5 -18t-19.5 -11t-33 -5.5t-50 -1.5t-51 2t-34 6t-20 11t-11 17l-306 854q-5 16 -7.5 26t-2.5 17z" />
<glyph unicode="&#x476;" horiz-adv-x="1208" d="M28 1294zM35 1268.5q-1 13.5 7 20.5t27 9t54 2q31 0 48.5 -1.5t27 -5.5t14 -10.5t8.5 -17.5l367 -1088h2l185 663q41 144 76 235.5t73 143.5t82.5 71.5t103.5 19.5q26 0 45 -4t28.5 -9.5t13 -11t4.5 -12t2 -17.5t1 -28q0 -42 -5.5 -64t-19.5 -22q-10 0 -21 1t-21 1 q-26 0 -47.5 -12t-42.5 -46t-44.5 -95.5t-54.5 -160.5l-249 -800q-3 -11 -10 -18t-20 -11t-33.5 -5.5t-48.5 -1.5q-33 0 -55 1.5t-34.5 5.5t-20 11.5t-11.5 18.5l-422 1202q-8 22 -9 35.5zM126.5 1666q-0.5 7 8.5 13t29 9.5t53 3.5q27 0 46 -1.5t32 -5t21.5 -9t13.5 -12.5 l179 -237q5 -7 4 -13.5t-8.5 -10.5t-20.5 -6t-32 -2q-20 0 -33.5 0.5t-23 2.5t-16.5 6.5t-14 12.5l-229 233q-9 9 -9.5 16zM508 1665q-3 9 6 15t31.5 9t60.5 3q25 0 42.5 -1.5t29.5 -5t20 -9t14 -13.5l169 -234q10 -15 -2 -24.5t-44 -9.5q-19 0 -33 0.5t-24.5 2.5t-18 6.5 t-14.5 11.5l-223 229q-11 11 -14 20z" />
<glyph unicode="&#x477;" horiz-adv-x="978" d="M-60 958zM34 927q0 8 4 14t13.5 9.5t25.5 4.5t40 1q29 0 45.5 -1.5t26 -5.5t14 -10t8.5 -15l253 -742l5 -24l5 24l158 557q15 58 34 101.5t46 71.5t63.5 42t86.5 14q27 0 49.5 -5t30 -13t11 -22.5t3.5 -47.5q0 -21 -2 -34.5t-5.5 -20.5t-8.5 -10t-10 -3q-9 0 -18 0.5 t-20 0.5q-18 0 -32 -3.5t-26.5 -16.5t-25 -39t-26.5 -71l-203 -653q-4 -11 -10.5 -18t-19.5 -11t-33 -5.5t-50 -1.5t-51 2t-34 6t-20 11t-11 17l-306 854q-5 16 -7.5 26t-2.5 17zM76 1355.5q-2 9.5 5.5 16t25 9.5t45.5 3q26 0 43 -1.5t28 -4.5t17.5 -7.5t11.5 -12.5 l182 -262q10 -15 -3.5 -22t-47.5 -7q-17 0 -29 1t-21 3t-16 6t-13 11l-215 247q-11 11 -13 20.5zM418 1356q-2 9 6 15.5t27 9.5t50 3q23 0 38.5 -1.5t26.5 -5t18 -9t12 -13.5l171 -258q4 -8 4 -14t-6 -9.5t-17.5 -5t-30.5 -1.5q-17 0 -29 1t-20.5 3.5t-14.5 6.5t-11 10 l-211 246q-11 13 -13 22z" />
<glyph unicode="&#x478;" horiz-adv-x="2140" d="M99 640q0 153 34 278t102.5 212.5t170.5 135t239 47.5q132 0 229.5 -43t162.5 -125.5t97 -204t32 -278.5t-34 -283t-102 -214.5t-170.5 -136t-238.5 -47.5q-135 0 -233 43.5t-162 126.5t-95.5 206t-31.5 283zM281 652q0 -114 17 -210t56.5 -165.5t106.5 -108t168 -38.5 t169 42t110 113.5t59.5 165.5t17.5 199q0 110 -17.5 204.5t-57.5 164t-107.5 108.5t-166.5 39q-100 0 -167 -42t-109.5 -112t-60.5 -163.5t-18 -196.5zM1247 925q0 12 8 19t26 9.5t48 2.5t47 -1.5t27 -5.5t14.5 -11.5t9.5 -20.5l257 -722h3l248 726q6 19 14.5 24.5t25.5 8 t49 2.5q28 0 46 -2.5t26.5 -9.5t8.5 -19t-6 -30l-323 -895l-120 -331q-6 -16 -30.5 -24.5t-74.5 -8.5q-26 0 -42 2.5t-24.5 8.5t-9.5 16t5 24l124 313q-9 4 -17 13t-11 19l-321 860q-8 21 -8 33z" />
<glyph unicode="&#x479;" horiz-adv-x="1861" d="M90 467q0 110 26.5 202.5t80.5 159.5t134 104t187 37q104 0 181 -33t128.5 -96t77 -153t25.5 -203q0 -110 -27 -202.5t-80.5 -159.5t-134.5 -104.5t-187 -37.5q-104 0 -181 33t-128.5 96t-76.5 153t-25 204zM263 478q0 -74 12 -139t40 -113.5t75.5 -77t117.5 -28.5 q64 0 111.5 26t77.5 73t44.5 112t14.5 143q0 73 -12 138t-39.5 114t-75 77.5t-117.5 28.5q-65 0 -112 -26t-77.5 -73.5t-45 -112.5t-14.5 -142zM968 925q0 12 8 19t26 9.5t48 2.5t47 -1.5t27 -5.5t14.5 -11.5t9.5 -20.5l257 -722h3l248 726q6 19 14.5 24.5t25.5 8t49 2.5 q28 0 46 -2.5t26.5 -9.5t8.5 -19t-6 -30l-323 -895l-120 -331q-6 -16 -30.5 -24.5t-74.5 -8.5q-26 0 -42 2.5t-24.5 8.5t-9.5 16t5 24l124 313q-9 4 -17 13t-11 19l-321 860q-8 21 -8 33z" />
<glyph unicode="&#x47a;" horiz-adv-x="1356" d="M59 640q0 135 30.5 248t92 198t154 140.5t215.5 75.5q7 33 25 51q31 31 109 31q77 0 107 -30q16 -17 23 -49q243 -33 362 -198t119 -445q0 -137 -30 -250.5t-90 -199t-150 -141.5t-210 -77q-8 -41 -25 -58q-31 -31 -110 -31q-76 0 -106 30q-18 18 -25 53 q-126 15 -218.5 64.5t-153 132t-90 197t-29.5 258.5zM241 652q0 -100 15.5 -185.5t52 -152.5t97 -111.5t150.5 -62.5q7 21 20 34q31 31 109 31q77 0 107 -30q11 -11 17 -29q85 22 143.5 70t94.5 115t52 148.5t16 170.5q0 94 -15.5 177t-51 148.5t-94 111t-143.5 65.5 q-8 -26 -20 -38q-30 -30 -110 -30q-76 0 -106 30q-14 14 -21 38q-86 -21 -146 -68.5t-97 -114t-53.5 -148t-16.5 -169.5z" />
<glyph unicode="&#x47b;" horiz-adv-x="1180" d="M90 467q0 95 23 177t69.5 146t117.5 107t167 61q7 32 23 48q28 28 98 28q69 0 96 -27q14 -16 20 -44q99 -14 171.5 -52.5t120 -99.5t71 -143.5t23.5 -182.5q0 -96 -24 -179t-72.5 -147.5t-121.5 -108t-171 -59.5q-7 -28 -21 -43q-28 -28 -99 -28q-68 0 -95 27 q-15 15 -21 42q-96 14 -167 53t-117 100t-68.5 143t-22.5 182zM263 478q0 -61 10 -116t33.5 -100.5t63.5 -78.5t100 -49q5 16 17 28q28 28 98 28q69 0 96 -27q10 -11 17 -30q58 15 99 46t67.5 75t39 99.5t12.5 120.5q0 61 -10 117.5t-35 102t-67 78.5t-105 48 q-6 -18 -16 -28q-28 -28 -99 -28q-68 0 -95 27q-9 8 -16 25q-56 -16 -95.5 -47.5t-65 -75.5t-37.5 -98.5t-12 -116.5z" />
<glyph unicode="&#x47c;" horiz-adv-x="1900" d="M97 660q0 149 31 269.5t89.5 205t142.5 130t191 45.5q63 0 111 -8t81 -19.5t51.5 -24.5t21.5 -23q2 -8 3 -28t1 -54q0 -60 -23 -60q-10 0 -27.5 10.5t-45 23t-66 23t-91.5 10.5q-65 0 -117.5 -34.5t-89.5 -100t-57 -159t-20 -211.5q0 -142 23 -241t67 -160.5t107.5 -89.5 t144.5 -28q80 0 141 34t98 88q5 7 11 14t15.5 12t23.5 8t36 3t36.5 -3.5t24 -8.5t15 -11.5t10.5 -13.5q36 -54 97.5 -88t141.5 -34q81 0 144.5 28t107.5 89.5t67 160.5t23 241q0 118 -20 211.5t-57 159t-89.5 100t-117.5 34.5q-53 0 -91.5 -10.5t-66 -23t-45 -23 t-27.5 -10.5q-23 0 -23 60q0 34 1 54t3 28q3 10 21.5 23t51.5 24.5t81 19.5t111 8q106 0 190.5 -45.5t143 -130t89.5 -205t31 -269.5q0 -337 -133.5 -506.5t-385.5 -169.5q-54 0 -103.5 12t-92.5 32.5t-78 46t-60 52.5q-25 -27 -60.5 -52.5t-78 -46t-92 -32.5t-103.5 -12 q-252 0 -385.5 169.5t-133.5 506.5zM648 1700q0 42 15 78.5t42.5 62.5t67.5 41t91 15q56 0 112 -20.5t115.5 -45.5t124 -45.5t137.5 -20.5q20 0 29 -7.5t9 -42.5q0 -18 -1.5 -29.5t-6 -17.5t-12.5 -8t-21 -2q-83 0 -153.5 20.5t-129.5 45.5t-108.5 45.5t-90.5 20.5 q-45 0 -73.5 -30.5t-28.5 -75.5q0 -16 -10.5 -21t-50.5 -5q-32 0 -44.5 7.5t-12.5 34.5zM866 1376q0 8 3 14t11 12l34 30l16.5 16.5t12.5 16t7.5 19.5t2.5 26q-16 0 -31 2.5t-26.5 11t-18.5 25t-7 45.5q0 26 5.5 42t17.5 25t30 12t44 3q25 0 43 -3t29.5 -13t17 -27.5 t5.5 -45.5q0 -17 -1 -37t-5 -40.5t-12 -40.5t-21 -37l-17 -21q-13 -16 -23 -26t-21 -16t-24 -8t-32 -2q-26 0 -33 4t-7 13z" />
<glyph unicode="&#x47d;" horiz-adv-x="1602" d="M89 487q0 111 26 200t75.5 151.5t121 96t161.5 33.5q53 0 94.5 -6.5t70 -16t44 -20.5t18.5 -19q2 -6 3 -21t1 -41q0 -53 -30 -53q-7 0 -14 3.5t-18 8.5q-21 11 -59 23.5t-98 12.5q-51 0 -92.5 -24.5t-70.5 -70t-44.5 -111.5t-15.5 -149q0 -101 18.5 -170t53 -111.5 t85 -61t114.5 -18.5t112 23t77 61q5 6 10.5 11.5t14 9.5t21.5 6.5t33 2.5t33 -2.5t21.5 -7t13.5 -10t10 -10.5q29 -38 77.5 -61t111.5 -23q64 0 114.5 18.5t85.5 61t53 111.5t18 170q0 83 -15.5 149t-44.5 111.5t-70.5 70t-92.5 24.5q-60 0 -97.5 -12.5t-59.5 -23.5 l-17 -8.5t-15 -3.5q-29 0 -29 53q0 26 1 41t3 21q3 8 18.5 19t44 20.5t70 16t94.5 6.5q90 0 161 -33.5t120.5 -96t76 -151.5t26.5 -200q0 -249 -113 -376.5t-324 -127.5q-44 0 -84.5 8.5t-75.5 22.5t-64.5 32t-50.5 37q-22 -19 -51.5 -37t-65 -32t-75.5 -22.5t-83 -8.5 q-212 0 -324.5 127.5t-112.5 376.5zM498 1318q0 42 15 78.5t42.5 62.5t67.5 41t91 15q56 0 112 -20.5t115.5 -45.5t124 -45.5t137.5 -20.5q20 0 29 -7.5t9 -42.5q0 -18 -1.5 -29.5t-6 -17.5t-12.5 -8t-21 -2q-83 0 -153.5 20.5t-129.5 45.5t-108.5 45.5t-90.5 20.5 q-45 0 -73.5 -30.5t-28.5 -75.5q0 -16 -10.5 -21t-50.5 -5q-32 0 -44.5 7.5t-12.5 34.5zM717 995q0 8 3 14t11 12l34 30l16.5 16.5t12.5 16t7.5 19.5t2.5 26q-16 0 -31 2.5t-26.5 11t-18.5 25t-7 45.5q0 26 5.5 42t17.5 25t30 12t44 3q25 0 43 -3t29.5 -13t17 -27.5 t5.5 -45.5q0 -17 -1 -37t-5 -40.5t-12 -40.5t-21 -37l-17 -21q-13 -16 -23 -26t-21 -16t-24 -8t-32 -2q-26 0 -33 4t-7 13z" />
<glyph unicode="&#x47e;" horiz-adv-x="1900" d="M97 660q0 149 31 269.5t89.5 205t142.5 130t191 45.5q63 0 111 -8t81 -19.5t51.5 -24.5t21.5 -23q2 -8 3 -28t1 -54q0 -60 -23 -60q-10 0 -27.5 10.5t-45 23t-66 23t-91.5 10.5q-65 0 -117.5 -34.5t-89.5 -100t-57 -159t-20 -211.5q0 -142 23 -241t67 -160.5t107.5 -89.5 t144.5 -28q80 0 141 34t98 88v343q0 16 19.5 24t66.5 8q50 0 68 -8t18 -24v-343q36 -54 97.5 -88t141.5 -34q81 0 144.5 28t107.5 89.5t67 160.5t23 241q0 118 -20 211.5t-57 159t-89.5 100t-117.5 34.5q-53 0 -91.5 -10.5t-66 -23t-45 -23t-27.5 -10.5q-23 0 -23 60 q0 34 1 54t3 28q3 10 21.5 23t51.5 24.5t81 19.5t111 8q106 0 190.5 -45.5t143 -130t89.5 -205t31 -269.5q0 -337 -133.5 -506.5t-385.5 -169.5q-54 0 -103.5 12t-92.5 32.5t-78 46t-60 52.5q-25 -27 -60.5 -52.5t-78 -46t-92 -32.5t-103.5 -12q-252 0 -385.5 169.5 t-133.5 506.5zM493 1590h914l-90 -195h-34l-48 100h-220l-48 -100h-34l-48 100h-220l-48 -100h-34zM609 1294z" />
<glyph unicode="&#x47f;" horiz-adv-x="1386" d="M34 926q0 19 17.5 24.5t65.5 5.5q28 0 45.5 -1.5t27.5 -5.5t14.5 -10t6.5 -15l237 -719q2 -6 3.5 -13t3.5 -13q2 -7 4 -15l13 31l159 341l-120 349q-4 11 -7 23.5t-3 17.5q0 19 17.5 24.5t65.5 5.5q28 0 45.5 -1.5t27.5 -5.5t14.5 -10t6.5 -15l230 -699l18 -61l5 13 q51 96 93 197t71.5 199t45.5 188t16 163q0 18 18 25t70 7q46 0 66.5 -6t20.5 -26q0 -63 -16 -147t-45.5 -180t-71 -199t-93.5 -205q-42 -81 -67.5 -125.5t-34.5 -53.5q-14 -14 -33.5 -17t-56.5 -3q-30 0 -49.5 2t-31 6t-17.5 11t-9 17l-110 316q-23 -51 -48.5 -107t-48 -104 t-40 -81.5t-23.5 -39.5q-14 -14 -33.5 -17t-56.5 -3q-30 0 -49.5 2t-31 6t-17.5 11t-9 17l-296 855q-4 11 -7 23.5t-3 17.5zM236 1288h914l-90 -195h-34l-48 100h-220l-48 -100h-34l-48 100h-220l-48 -100h-34zM352 992z" />
<glyph unicode="&#x480;" horiz-adv-x="1092" d="M97 630q0 160 41.5 286.5t116.5 214t179.5 133.5t231.5 46q57 0 109.5 -10.5t97.5 -26.5t80 -37t48 -35q14 -13 18 -20t6 -17q6 -18 6 -53q0 -76 -31 -76q-15 0 -39.5 19.5t-64 43t-96 43t-135.5 19.5q-86 0 -156.5 -35t-120.5 -101.5t-77.5 -163t-27.5 -220.5 q0 -123 26.5 -217.5t76 -158t121.5 -96t163 -32.5q45 0 74 5.5t45 5.5q14 0 18.5 -15t4.5 -61v-403q0 -16 -18 -24t-68 -8t-68 8t-18 24v316q-125 1 -225.5 43.5t-171 124t-108.5 202t-38 276.5z" />
<glyph unicode="&#x481;" horiz-adv-x="866" d="M90 464q0 133 32.5 228.5t89 157t133 90.5t165.5 29q43 1 83.5 -7.5t75 -22t60 -29.5t38.5 -29q10 -11 16 -19t8.5 -17t3 -21t1.5 -30q0 -39 -9 -54.5t-22 -15.5q-14 0 -34 16.5t-50 36.5t-72.5 36.5t-100.5 16.5q-120 0 -183 -91t-63 -266q0 -176 64.5 -262.5 t185.5 -86.5q28 0 50 4.5t38.5 10.5t26.5 10.5t15 4.5q11 0 16.5 -12t5.5 -52v-423q0 -15 -16.5 -23t-66.5 -8q-49 0 -65.5 8t-16.5 23v314h-8q-97 0 -172 32t-126 93.5t-77 151.5t-26 206z" />
<glyph unicode="&#x482;" horiz-adv-x="1248" d="M89 574q0 18 8.5 35.5t20 31.5t24 23t20.5 9q7 0 13 -3l285 -164l199 346l-284 164q-15 7 -15 28q0 18 8.5 35.5t20 31.5t24 23t20.5 9q7 0 13 -3l285 -164l182 315q8 13 25 13t36 -9t34.5 -21t26 -24.5t10.5 -19.5q0 -8 -4 -13l-182 -315l285 -165q14 -8 14 -28 q0 -19 -8.5 -36.5t-20 -31.5t-24 -22.5t-19.5 -8.5q-9 0 -14 4l-284 164l-200 -346l285 -165q14 -8 14 -28q0 -19 -8.5 -36.5t-20 -31.5t-24 -22.5t-19.5 -8.5q-9 0 -14 4l-284 164l-182 -315q-8 -13 -23 -13q-17 0 -36 9t-35 21.5t-27 25.5t-11 20q0 5 3 11l182 315 l-284 164q-15 7 -15 28z" />
<glyph unicode="&#x483;" horiz-adv-x="0" d="M-862 958zM-833 1185q0 56 21.5 77t78.5 21h447q5 44 27.5 69t70.5 25q56 0 77.5 -25.5t21.5 -79.5q0 -56 -22 -77t-79 -21h-447q-6 -44 -28 -69t-70 -25q-56 0 -77 25.5t-21 79.5z" />
<glyph unicode="&#x484;" horiz-adv-x="0" d="M-861 958zM-832 1163q0 35 9 42.5t29 7.5q73 0 137.5 20.5t124 45.5t115.5 45.5t112 20.5q51 0 91 -15t67.5 -41t42.5 -62.5t15 -78.5q0 -27 -12.5 -34.5t-44.5 -7.5q-40 0 -50.5 5t-10.5 21q0 45 -28.5 75.5t-73.5 30.5q-41 0 -90.5 -20.5t-108.5 -45.5t-129.5 -45.5 t-153.5 -20.5q-13 0 -21 2t-12.5 8t-6 17.5t-1.5 29.5z" />
<glyph unicode="&#x485;" horiz-adv-x="0" d="M-559 1319q0 28 5.5 45.5t17 27.5t29.5 13t43 3t43.5 -3t30.5 -12t17.5 -25t5.5 -42q0 -29 -7 -45.5t-18.5 -25t-26.5 -11t-31 -2.5q0 -15 2.5 -26t7.5 -19.5t12.5 -16l16.5 -16.5l34 -30q8 -6 11 -12t3 -14q0 -9 -7 -13t-33 -4q-19 0 -32 2t-24 8t-21 16t-23 26l-17 21 q-14 17 -21.5 37t-11.5 40.5t-5 40.5t-1 37z" />
<glyph unicode="&#x486;" horiz-adv-x="0" d="M-559 1108q0 8 3 14t11 12l34 30l16.5 16.5t12.5 16t7.5 19.5t2.5 26q-16 0 -31 2.5t-26.5 11t-18.5 25t-7 45.5q0 26 5.5 42t17.5 25t30 12t44 3q25 0 43 -3t29.5 -13t17 -27.5t5.5 -45.5q0 -17 -1 -37t-5 -40.5t-12 -40.5t-21 -37l-17 -21q-13 -16 -23 -26t-21 -16 t-24 -8t-32 -2q-26 0 -33 4t-7 13z" />
<glyph unicode="&#x488;" horiz-adv-x="2018" d="M20 439q0 51 11.5 91t36.5 67t64 41.5t93 14.5q51 0 90 -13.5t65 -41t39 -67.5t13 -95q0 -5 -2 -9.5t-7 -7.5t-14 -4t-25 -1q-27 0 -36.5 6t-9.5 18q-2 33 -10.5 55.5t-23.5 37.5t-35 21.5t-44 6.5q-28 0 -48.5 -8t-33.5 -24t-20 -39t-9 -50q0 -7 -2.5 -11t-7.5 -7 t-14.5 -4.5t-23.5 -1.5q-27 0 -36.5 6t-9.5 19zM138 -61q0 51 11.5 91t36.5 67t64 41.5t93 14.5q51 0 90 -13.5t65 -41t39 -67.5t13 -95q0 -5 -2 -9.5t-7 -7.5t-14 -4t-25 -1q-27 0 -36.5 6t-9.5 18q-2 33 -10.5 55.5t-23.5 37.5t-35 21.5t-44 6.5q-28 0 -48.5 -8t-33.5 -24 t-20 -39t-9 -50q0 -7 -2.5 -11t-7.5 -7t-14.5 -4.5t-23.5 -1.5q-27 0 -36.5 6t-9.5 19zM138 927q0 51 11.5 91t36.5 67t64 41.5t93 14.5q51 0 90 -13.5t65 -41t39 -67.5t13 -95q0 -5 -2 -9.5t-7 -7.5t-14 -4t-25 -1q-27 0 -36.5 6t-9.5 18q-2 33 -10.5 55.5t-23.5 37.5 t-35 21.5t-44 6.5q-28 0 -48.5 -8t-33.5 -24t-20 -39t-9 -50q0 -7 -2.5 -11t-7.5 -7t-14.5 -4.5t-23.5 -1.5q-27 0 -36.5 6t-9.5 19zM792 -338q0 51 11.5 91t36.5 67t64 41.5t93 14.5q51 0 90 -13.5t65 -41t39 -67.5t13 -95q0 -5 -2 -9.5t-7 -7.5t-14 -4t-25 -1 q-27 0 -36.5 6t-9.5 18q-2 33 -10.5 55.5t-23.5 37.5t-35 21.5t-44 6.5q-28 0 -48.5 -8t-33.5 -24t-20 -39t-9 -50q0 -7 -2.5 -11t-7.5 -7t-14.5 -4.5t-23.5 -1.5q-27 0 -36.5 6t-9.5 19zM792 1212q0 51 11.5 91t36.5 67t64 41.5t93 14.5q51 0 90 -13.5t65 -41t39 -67.5 t13 -95q0 -5 -2 -9.5t-7 -7.5t-14 -4t-25 -1q-27 0 -36.5 6t-9.5 18q-2 33 -10.5 55.5t-23.5 37.5t-35 21.5t-44 6.5q-28 0 -48.5 -8t-33.5 -24t-20 -39t-9 -50q0 -7 -2.5 -11t-7.5 -7t-14.5 -4.5t-23.5 -1.5q-27 0 -36.5 6t-9.5 19zM1454 -61q0 51 11.5 91t36.5 67t64 41.5 t93 14.5q51 0 90 -13.5t65 -41t39 -67.5t13 -95q0 -5 -2 -9.5t-7 -7.5t-14 -4t-25 -1q-27 0 -36.5 6t-9.5 18q-2 33 -10.5 55.5t-23.5 37.5t-35 21.5t-44 6.5q-28 0 -48.5 -8t-33.5 -24t-20 -39t-9 -50q0 -7 -2.5 -11t-7.5 -7t-14.5 -4.5t-23.5 -1.5q-27 0 -36.5 6t-9.5 19z M1454 927q0 51 11.5 91t36.5 67t64 41.5t93 14.5q51 0 90 -13.5t65 -41t39 -67.5t13 -95q0 -5 -2 -9.5t-7 -7.5t-14 -4t-25 -1q-27 0 -36.5 6t-9.5 18q-2 33 -10.5 55.5t-23.5 37.5t-35 21.5t-44 6.5q-28 0 -48.5 -8t-33.5 -24t-20 -39t-9 -50q0 -7 -2.5 -11t-7.5 -7 t-14.5 -4.5t-23.5 -1.5q-27 0 -36.5 6t-9.5 19zM1583 439q0 51 11.5 91t36.5 67t64 41.5t93 14.5q51 0 90 -13.5t65 -41t39 -67.5t13 -95q0 -5 -2 -9.5t-7 -7.5t-14 -4t-25 -1q-27 0 -36.5 6t-9.5 18q-2 33 -10.5 55.5t-23.5 37.5t-35 21.5t-44 6.5q-28 0 -48.5 -8 t-33.5 -24t-20 -39t-9 -50q0 -7 -2.5 -11t-7.5 -7t-14.5 -4.5t-23.5 -1.5q-27 0 -36.5 6t-9.5 19z" />
<glyph unicode="&#x489;" horiz-adv-x="1944" d="M3 637q0 29 5.5 36.5t19.5 1.5l220 -107h102q41 0 53.5 -18.5t12.5 -58.5q0 -41 -12.5 -58.5t-53.5 -17.5q-25 0 -45.5 2.5t-39.5 8t-37 14.5t-37 23l-164 109q-12 9 -18 22t-6 43zM183.5 -53q-1.5 9 12.5 15l231 80l72 72q29 29 51 25t51 -33q14 -14 22.5 -26t10 -23.5 t-4.5 -23.5t-21 -27q-35 -35 -68 -52.5t-79 -25.5l-193 -39q-15 -2 -28 2.5t-35 26.5q-20 20 -21.5 29zM340 1226q-2 15 2.5 28t26.5 35q20 20 29 21.5t15 -12.5l80 -231l72 -72q29 -29 25 -51t-33 -51q-14 -14 -26 -22.5t-23.5 -10t-23.5 4.5t-27 21q-18 18 -30.5 34.5 t-22 33.5t-15.5 36.5t-10 42.5zM819 -423l107 220v102q0 41 18 53.5t59 12.5q40 0 58 -12.5t18 -53.5q0 -25 -2.5 -45.5t-8 -39.5t-15 -37t-22.5 -37l-109 -164q-9 -12 -22 -18t-43 -6q-29 0 -36.5 5.5t-1.5 19.5zM866 1144q0 49 10.5 84.5t37.5 74.5l109 164q9 12 22 18 t43 6q29 0 36.5 -5.5t1.5 -19.5l-107 -220v-102q0 -41 -18.5 -53.5t-58.5 -12.5q-41 0 -58.5 12.5t-17.5 53.5zM1311.5 986.5q-3.5 21.5 25.5 50.5q18 18 34.5 30.5t33.5 22t36.5 15.5t42.5 10l193 39q15 2 28 -2.5t35 -26.5q20 -20 21.5 -29t-12.5 -15l-231 -80l-72 -72 q-29 -29 -51 -25t-51 33q-29 28 -32.5 49.5zM1355 99q4 22 33 51q28 28 49.5 32t50.5 -25q35 -35 52.5 -68t25.5 -79l39 -193q2 -15 -2.5 -28t-26.5 -35q-20 -20 -29 -21.5t-15 12.5l-80 231l-72 72q-29 29 -25 51zM1529 552q0 40 12.5 58t53.5 18q49 0 84.5 -10.5 t74.5 -37.5l164 -109q12 -9 18 -22t6 -43q0 -29 -5.5 -36.5t-19.5 -1.5l-220 107h-102q-41 0 -53.5 18t-12.5 59z" />
<glyph unicode="&#x48a;" horiz-adv-x="1358" d="M172 28v1241q0 15 19.5 23t66.5 8q50 0 68 -8t18 -23v-854q0 -27 -0.5 -58t-3.5 -60h2q16 25 37.5 60.5t45.5 70.5l559 843q10 14 26.5 21.5t55.5 7.5q45 0 60.5 -8t15.5 -25v-1119h136q23 0 35 -2t16.5 -7t2.5 -13t-8 -21l-188 -410q-12 -26 -41 -32t-78 -6 q-30 0 -46 3.5t-22 10t-4 16t9 21.5l156 286h-54q-50 0 -67.5 8t-17.5 23v849q0 31 1 64.5t3 60.5h-2q-16 -28 -38 -63.5t-44 -69.5l-560 -842q-6 -8 -12 -14t-15 -9.5t-22.5 -5t-33.5 -1.5q-45 0 -60.5 8.5t-15.5 25.5zM350 1630q0 10 3.5 17t13 11t25 6t37.5 2 q24 0 38 -2.5t21.5 -7.5t10 -13t2.5 -19q0 -25 10 -49t30.5 -42.5t49.5 -29.5t67 -11q37 0 65.5 11t48.5 29.5t30 43t10 52.5q0 9 2.5 16.5t10 12t21 7t36.5 2.5q24 0 39.5 -2t25 -6t13.5 -11t4 -17q0 -51 -17 -98t-54 -82.5t-95 -57t-141 -21.5q-76 0 -133.5 18.5t-96 53 t-58 82t-19.5 105.5z" />
<glyph unicode="&#x48b;" horiz-adv-x="1119" d="M153 24v902q0 16 16.5 23t64.5 7t66 -7.5t18 -22.5v-521q0 -39 -2 -77.5t-5 -76.5q23 38 46.5 74.5t50.5 71.5l387 529q6 8 12.5 14t16 9.5t23 5t33.5 1.5q43 0 58.5 -7t15.5 -24v-777h95q23 0 35 -2t16.5 -7t2.5 -13t-8 -21l-181 -395q-6 -13 -11.5 -20.5t-14.5 -11.5 t-24 -5t-39 -1q-30 0 -46 3.5t-22 10t-4 16t9 21.5l149 271h-39q-48 0 -66 7.5t-18 22.5v518q0 39 2 79.5t5 79.5q-23 -40 -50.5 -78.5t-55.5 -76.5l-382 -522q-7 -8 -13 -14t-14 -9.5t-20.5 -5t-32.5 -1.5q-44 0 -59 7.5t-15 22.5zM252 1350q0 20 16.5 28t62.5 8 q24 0 38 -2.5t21.5 -7.5t10 -13t2.5 -19q0 -64 40.5 -106t116.5 -42q37 0 66 11t48.5 31t29.5 47.5t10 60.5q0 20 12.5 30t57.5 10q48 0 65 -8t17 -28q0 -57 -17 -107t-54 -87.5t-95.5 -59t-140.5 -21.5q-153 0 -230 73t-77 202z" />
<glyph unicode="&#x48c;" horiz-adv-x="1088" d="M10 1095q0 19 2 32.5t6.5 22.5t11 13t14.5 4h128v102q0 7 4.5 13t15 10t27 6t39.5 2q25 0 41.5 -2t26.5 -6t14 -10t4 -13v-102h237q7 0 13.5 -4t11 -13t6.5 -22.5t2 -32.5t-2 -32t-6.5 -22t-11 -13t-13.5 -4h-237v-240h195q142 0 226.5 -24t144 -71.5t92.5 -119 t33 -165.5q0 -79 -24.5 -150t-80 -127.5t-147.5 -91.5t-258 -35h-286q-12 0 -24 3.5t-21 12t-15.5 22t-6.5 32.5v954h-128q-8 0 -14.5 4t-11 12.5t-6.5 22t-2 32.5zM344 143h192q119 0 177 24t88.5 60.5t42.5 79.5t12 81q0 61 -17.5 107.5t-54 79t-92.5 50t-168 17.5h-180 v-499z" />
<glyph unicode="&#x48d;" horiz-adv-x="991" d="M39 1168q0 18 2 30.5t6.5 20.5t10.5 11t14 3h110v129q0 8 3.5 13.5t13 10t25.5 6t40 1.5t40 -1.5t25.5 -6t13.5 -10t4 -13.5v-129h245q8 0 14 -3t10.5 -11t6.5 -20.5t2 -30.5q0 -17 -2 -29.5t-6.5 -20.5t-10.5 -11.5t-14 -3.5h-245v-495q37 3 80 4.5t88 1.5 q109 0 187.5 -21.5t128.5 -61.5t74 -95.5t24 -124.5t-25.5 -129t-79.5 -104t-138 -69.5t-201 -25.5q-27 0 -56 0.5t-57 2t-55 3.5t-53 5q-42 5 -62 27t-20 67v1015h-111q-8 0 -13.5 3.5t-10 11.5t-6.5 20.5t-2 29.5zM347 127q35 -4 75 -7t89 -3q124 0 184 48.5t60 134.5 q0 41 -13 74.5t-43 57t-78 36t-118 12.5q-42 0 -82.5 -2t-73.5 -5v-346z" />
<glyph unicode="&#x48e;" horiz-adv-x="1058" d="M172 26v1194q0 40 21 57t47 17h277q42 0 80.5 -3.5t91 -15t107 -43t92.5 -77.5t58.5 -106.5t20.5 -133.5q0 -97 -32 -175t-91.5 -133t-146 -85t-206.5 -30h-147v-466q0 -8 -4.5 -14t-14 -9.5t-26 -6t-41.5 -2.5t-41.5 2.5t-26.5 6t-14 9.5t-4 14zM344 633h155 q78 0 129.5 20t86.5 55.5t53 85t18 107.5q0 79 -29.5 132t-73 79t-90 33t-90.5 7h-159v-519zM485 777q0 11 9 22.5t32 25.5q29 23 49 21q14 0 20 -11l275 -391q4 -5 5 -9.5t1 -9.5q-1 -19 -39 -46q-18 -12 -30 -17t-20 -5q-13 0 -22 12l-275 392q-5 8 -5 16z" />
<glyph unicode="&#x48f;" horiz-adv-x="1076" d="M153 -332v1257q0 9 3 14.5t12 9.5t23 5.5t34 1.5q21 0 34.5 -1.5t22.5 -5.5t12.5 -9.5t3.5 -14.5v-121q41 42 79 73t76.5 51.5t79 31t85.5 10.5q98 0 167 -38t112.5 -104t63.5 -153.5t20 -185.5q0 -118 -25.5 -212t-75 -159.5t-122.5 -101t-167 -35.5q-40 0 -74 8 t-66.5 25t-64.5 43t-68 61v-450q0 -8 -4 -14t-13 -10t-25 -6t-41 -2q-24 0 -40 2t-25.5 6t-13 10t-3.5 14zM318 294q68 -83 129 -127t128 -44q62 0 106.5 30t72 80t40.5 112t13 125q0 69 -10.5 133.5t-36 114.5t-68.5 80t-107 30q-32 0 -63 -9.5t-63 -30t-67 -54t-74 -82.5 v-358zM559 282q0 11 9 22.5t32 25.5q29 23 49 21q14 0 20 -11l275 -391q4 -5 5 -9.5t1 -9.5q-1 -19 -39 -46q-18 -12 -30 -17t-20 -5q-13 0 -22 12l-275 392q-5 8 -5 16z" />
<glyph unicode="&#x490;" horiz-adv-x="886" d="M172 25v1199q0 35 18.5 52.5t45.5 17.5h481v255q0 8 3 13.5t10.5 9t22 5t37.5 1.5q24 0 38.5 -2t22 -6t10 -9.5t2.5 -12.5v-328q0 -38 -18 -56t-45 -18h-456v-1121q0 -8 -4 -13.5t-14 -9.5t-26.5 -6t-41.5 -2q-24 0 -41 2t-27 6t-14 9.5t-4 13.5z" />
<glyph unicode="&#x491;" horiz-adv-x="725" d="M153 25v867q0 30 13.5 44.5t37.5 14.5h355v212q0 5 3.5 9.5t11.5 7.5t21 5t34 2t34 -2t20.5 -5.5t10.5 -8.5t3 -9v-301q0 -29 -13.5 -43.5t-37.5 -14.5h-328v-778q0 -8 -4 -13.5t-13 -9.5t-25 -6t-41 -2q-24 0 -40 2t-25.5 6t-13 9.5t-3.5 13.5z" />
<glyph unicode="&#x492;" horiz-adv-x="870" d="M27 672q0 37 9 54.5t28 17.5h127v476q0 40 21 57t47 17h572q8 0 14.5 -4t11 -12.5t6.5 -22.5t2 -32q0 -19 -2 -33t-6.5 -22.5t-11 -12.5t-14.5 -4h-468v-407h229q9 0 16.5 -4.5t12 -13t7 -22t2.5 -32.5q0 -38 -9.5 -54.5t-28.5 -16.5h-229v-575q0 -8 -4 -14t-14 -9.5 t-26 -6t-42 -2.5q-24 0 -41 2.5t-27 6t-14 9.5t-4 14v575h-127q-19 0 -28 16.5t-9 54.5z" />
<glyph unicode="&#x493;" horiz-adv-x="761" d="M39 482q0 18 2 30.5t6.5 20.5t10.5 11t14 3h134v345q0 30 13.5 44.5t37.5 14.5h453q8 0 13.5 -4.5t10 -14t7 -23t2.5 -32.5q0 -20 -2.5 -34t-7 -23t-10 -13t-13.5 -4h-339v-256h246q8 0 14 -3t10.5 -11t6.5 -20.5t2 -30.5q0 -17 -2 -29.5t-6.5 -20.5t-10.5 -11.5 t-14 -3.5h-246v-392q0 -8 -4 -13.5t-13 -9.5t-25 -6t-41 -2q-24 0 -40 2t-25.5 6t-13 9.5t-3.5 13.5v392h-135q-8 0 -13.5 3.5t-10 11.5t-6.5 20.5t-2 29.5z" />
<glyph unicode="&#x494;" horiz-adv-x="1089" d="M172 26v1194q0 40 21 57t47 17h572q17 0 25.5 -16.5t8.5 -54.5q0 -39 -8.5 -55.5t-25.5 -16.5h-468v-372q26 5 63 8.5t74 3.5q132 0 235.5 -39t174.5 -112.5t108 -180.5t37 -243q0 -144 -31 -252.5t-87.5 -181t-136.5 -109.5t-178 -37q-84 0 -129 11.5t-63 34.5 q-10 14 -13.5 29.5t-3.5 42.5q0 41 4.5 53t16.5 12q4 0 15.5 -5t32.5 -10.5t52.5 -10.5t75.5 -5q57 0 104.5 26t82 79t53.5 133.5t19 189.5q0 221 -97 323t-285 102q-36 0 -67 -4t-57 -12v-599q0 -16 -18 -24t-68 -8t-68 8t-18 24z" />
<glyph unicode="&#x495;" horiz-adv-x="927" d="M153 25v867q0 30 13.5 44.5t37.5 14.5h453q8 0 13.5 -4.5t10 -14t7 -23t2.5 -32.5q0 -20 -2.5 -34t-7 -23t-10 -13t-13.5 -4h-339v-256q31 3 66 3q111 0 200.5 -32.5t151.5 -91t95.5 -141.5t33.5 -183q0 -107 -28.5 -193t-78.5 -146.5t-119.5 -93.5t-151.5 -33 q-72 0 -109.5 8.5t-52.5 25.5q-4 5 -7 14.5t-4.5 21t-2 23.5t-0.5 22q0 31 3.5 41t14.5 10q3 0 13 -3.5t27.5 -8t43.5 -8t63 -3.5q48 0 88 19.5t69 59.5t45 99.5t16 140.5q0 155 -81 233t-240 78q-30 0 -55 -3v-381q0 -8 -4 -13.5t-13 -9.5t-25 -6t-41 -2q-24 0 -40 2 t-25.5 6t-13 9.5t-3.5 13.5z" />
<glyph unicode="&#x496;" horiz-adv-x="1714" d="M85 27q0 3 0.5 8t2 12t4 15.5t6.5 19.5l101 293q23 68 48.5 116.5t55.5 82.5t68 56.5t86 37.5v1q-40 10 -72.5 29t-59.5 51.5t-50 79.5t-45 113l-91 270q-6 18 -9.5 31.5t-3.5 24.5q0 8 3.5 14t13 10t25.5 6t41 2q29 0 46 -2.5t27 -7.5t14 -13t8 -18l94 -306 q17 -55 39 -95t54.5 -66.5t77.5 -39t108 -12.5h59v529q0 7 3.5 13t13 9.5t26 6t40.5 2.5q25 0 41.5 -2.5t26 -6t13.5 -9.5t4 -13v-529h59q60 0 105.5 14t79 42t56.5 68t38 91l94 304q3 10 7.5 18t14 13t27 7.5t45.5 2.5q26 0 42 -2t25.5 -6t12.5 -10t3 -14q0 -11 -4 -24.5 t-8 -31.5l-90 -264q-21 -61 -42.5 -106t-48 -76.5t-60 -53t-77.5 -34.5v-2q50 -17 88 -41t68 -59t54.5 -84t47.5 -117l77 -227h114q20 0 28.5 -11.5t8.5 -37.5v-414q0 -8 -3.5 -13t-11.5 -8t-22 -5t-38 -2q-20 0 -34 2t-23 5t-12.5 8t-3.5 13v312l-19 -2l-35 -1 q-28 0 -45.5 2.5t-28 7.5t-15 12.5t-8.5 18.5l-107 326q-20 62 -47 105t-63 71.5t-83.5 41.5t-106.5 13h-59v-566q0 -8 -4 -14t-13.5 -9.5t-26 -6t-41.5 -2.5q-24 0 -40.5 2.5t-26 6t-13 9.5t-3.5 14v566h-59q-65 0 -113.5 -15.5t-84.5 -45t-61 -72.5t-43 -98l-105 -326 q-4 -11 -9 -18.5t-15 -12.5t-27.5 -7.5t-46.5 -2.5q-26 0 -42.5 2t-26.5 6t-14 10t-4 15z" />
<glyph unicode="&#x497;" horiz-adv-x="1472" d="M62 18q0 6 2.5 15.5t9.5 24.5l99 227q19 45 41 79t46.5 59t53 42.5t62.5 28.5v2q-24 8 -47.5 20.5t-46.5 35t-45 56.5t-43 84l-83 199q-5 13 -8 23t-3 19q0 5 3.5 9.5t12 7.5t24 4.5t39.5 1.5q27 0 45 -1.5t29 -5.5t16.5 -10t7.5 -14l79 -208q17 -43 35.5 -74t42.5 -50.5 t53.5 -28t68.5 -8.5h67v378q0 5 5 9.5t15 7t26 4t37 1.5t36.5 -1.5t25.5 -4t15 -7t5 -9.5v-378h67q39 0 69 9t54.5 28.5t44 50t36.5 73.5l84 208q4 8 8.5 14t14 10t26 5.5t43.5 1.5q24 0 39.5 -1.5t24 -4.5t12 -7.5t3.5 -9.5q0 -9 -3 -19t-8 -23l-86 -199 q-21 -50 -43.5 -83.5t-45.5 -55.5t-45.5 -35t-45.5 -20v-2q34 -12 62.5 -29t53 -42.5t45.5 -60t41 -79.5l62 -145h103q21 0 30 -8t9 -33v-401q0 -7 -3 -11.5t-11.5 -7.5t-22.5 -5t-33 -2q-20 0 -33 2t-21.5 5t-12 7.5t-3.5 11.5v299q-20 -3 -40 -3q-24 0 -41.5 2t-28 5.5 t-15.5 9t-8 12.5l-96 232q-19 45 -39.5 77.5t-45.5 52.5t-57.5 29.5t-76.5 9.5h-67v-407q0 -5 -5 -9.5t-15 -7.5t-25.5 -4.5t-36.5 -1.5t-37 1.5t-26 4.5t-15 7.5t-5 9.5v407h-67q-44 0 -77 -9.5t-59 -29.5t-46.5 -52.5t-39.5 -77.5l-96 -232q-2 -7 -7.5 -12.5t-15 -9 t-27 -5.5t-44.5 -2q-23 0 -39 1.5t-25.5 4.5t-13.5 7.5t-4 10.5z" />
<glyph unicode="&#x498;" horiz-adv-x="970" d="M75 163q0 31 6 42t18 11t33.5 -13t56.5 -30.5t85.5 -30.5t120.5 -13q66 0 120.5 16.5t93 46.5t60 72t21.5 93q0 55 -20 100t-59.5 77t-98.5 50t-136 18h-152q-12 0 -19 3.5t-12 11.5t-7 21.5t-2 33.5q0 19 2 32t7 21.5t12.5 12.5t17.5 4h143q66 0 120.5 15t93 44 t59.5 71.5t21 97.5q0 44 -14.5 81t-44 62.5t-73 39.5t-102.5 14q-64 0 -114 -13.5t-86 -30t-61 -30.5t-37 -14q-7 0 -11 3t-7 10.5t-4 20.5t-1 32q0 13 1 25.5t3.5 22.5t6.5 18.5t12 16.5t38 23.5t74 29t99.5 23t119.5 9.5q96 0 167.5 -23t120 -65t72 -101t23.5 -131 q0 -66 -19.5 -118.5t-53 -91t-78.5 -63t-95 -33.5v-3q60 -7 112 -34t90 -69.5t60 -98t22 -119.5q0 -86 -31.5 -156.5t-93 -121t-151.5 -77.5t-207 -27q-65 0 -117 10t-90 24t-59.5 26t-30 19.5t-13 15t-6.5 19t-4 28t-2 40.5zM281 -291q0 15 1.5 24.5t5 14.5t9.5 7t13 2h114 q37 0 55 13t18 39q0 17 -8.5 36.5t-38.5 49.5l-105 105h177l57 -57q26 -26 41.5 -47.5t23.5 -40.5t10.5 -35.5t2.5 -32.5q0 -38 -14.5 -66t-40.5 -47t-63.5 -29t-82.5 -10q-40 0 -74.5 4.5t-67.5 13.5q-9 3 -16 6.5t-10 9.5t-5 15.5t-2 24.5z" />
<glyph unicode="&#x499;" horiz-adv-x="866" d="M75 141q0 16 2 27t5 18t7 10.5t11 3.5q11 0 30.5 -13.5t52.5 -30t81.5 -30.5t119.5 -14q50 0 90 10.5t68 31t43.5 51.5t15.5 72q0 35 -15 63t-47 47.5t-82 30.5t-121 11h-100q-10 0 -16 3.5t-10.5 11t-6 20t-1.5 29.5q0 16 2 28t6 19t10 10.5t15 3.5h97q63 0 108.5 10 t76 29.5t45 48t14.5 65.5q0 33 -14 58t-37.5 41.5t-57.5 25t-73 8.5q-61 0 -108.5 -14t-82 -30.5t-56.5 -30t-31 -13.5q-5 0 -9.5 2.5t-8 9t-5 18t-1.5 27.5q0 29 4.5 46t16.5 29t42 28t70.5 28.5t88 21t97.5 8.5q73 0 134 -15.5t104.5 -47t67.5 -78t24 -108.5 q0 -37 -12 -70.5t-34.5 -61.5t-55.5 -50t-73 -34l-2 -1q39 -4 77 -22.5t68 -48t48.5 -70t18.5 -89.5q0 -68 -27 -122t-77.5 -92.5t-123.5 -58.5t-166 -20q-52 0 -97.5 7.5t-83 19t-63 25t-36 22.5t-15.5 16.5t-7 16.5t-3.5 22t-1.5 31zM230 -291q0 15 1.5 24.5t5 14.5t9.5 7 t13 2h114q37 0 55 13t18 39q0 17 -8.5 36.5t-38.5 49.5l-105 105h177l57 -57q26 -26 41.5 -47.5t23.5 -40.5t10.5 -35.5t2.5 -32.5q0 -38 -14.5 -66t-40.5 -47t-63.5 -29t-82.5 -10q-40 0 -74.5 4.5t-67.5 13.5q-9 3 -16 6.5t-10 9.5t-5 15.5t-2 24.5z" />
<glyph unicode="&#x49a;" horiz-adv-x="1189" d="M172 26v1243q0 7 4 13t14 9.5t27 6t41 2.5q25 0 41.5 -2.5t26.5 -6t14 -9.5t4 -13v-529h72q60 0 105 14.5t79.5 43.5t61 73.5t47.5 105.5l98 282q3 10 8 18t15 13t27.5 7.5t45.5 2.5q26 0 42 -2t25.5 -6t12.5 -10t3 -14q0 -11 -3.5 -24.5t-9.5 -31.5l-103 -269 q-22 -61 -45.5 -105t-51.5 -75.5t-61 -52t-74 -32.5v-2q47 -17 83.5 -39.5t67.5 -55.5t57 -79.5t51 -111.5l96 -242h114q20 0 28.5 -11.5t8.5 -37.5v-414q0 -8 -3.5 -13t-11.5 -8t-22 -5t-38 -2q-20 0 -34 2t-23 5t-12.5 8t-3.5 13v309h-44q-34 0 -51.5 2.5t-28 7.5 t-16 12.5t-8.5 18.5l-119 316q-24 64 -53 109t-66.5 74.5t-85.5 43.5t-108 14h-72v-566q0 -8 -4 -14t-14 -9.5t-26.5 -6t-41.5 -2.5q-24 0 -41 2.5t-27 6t-14 9.5t-4 14z" />
<glyph unicode="&#x49b;" horiz-adv-x="1012" d="M153 19v914q0 5 4.5 9.5t14.5 7.5t26 4.5t37 1.5t37 -1.5t26 -4.5t15 -7.5t5 -9.5v-377h70q38 0 69.5 8.5t57.5 28t46.5 50.5t37.5 75l84 207q2 8 7 14t15 10t26.5 5.5t43.5 1.5q24 0 39.5 -1.5t24 -4.5t11.5 -7.5t3 -9.5q0 -9 -2.5 -19t-7.5 -23l-86 -198 q-20 -50 -43.5 -84t-47.5 -56.5t-49 -35t-48 -19.5v-2q35 -12 64.5 -29t55 -42t47.5 -59.5t41 -79.5l64 -146h103q21 0 30 -8t9 -33v-401q0 -7 -3 -11.5t-11.5 -7.5t-22.5 -5t-33 -2q-20 0 -33 2t-21.5 5t-12 7.5t-3.5 11.5v296h-40q-25 0 -42.5 2t-28.5 5.5t-16 9t-7 12.5 l-96 233q-18 45 -38.5 77.5t-47.5 52.5t-61 29t-78 9h-70v-405q0 -5 -5 -10t-15 -8t-26 -5t-37 -2t-37 2t-26 5t-14.5 8t-4.5 10z" />
<glyph unicode="&#x49c;" horiz-adv-x="1112" d="M172 26v1243q0 7 4 13t14 9.5t27 6t41 2.5q25 0 41.5 -2.5t26.5 -6t14 -9.5t4 -13v-529h72h28v131q0 28 0.5 47t6 30t16.5 16t32 5t32 -4.5t16 -16t5.5 -29.5t0.5 -45v-107q26 12 47 31q35 29 61.5 73.5t47.5 105.5l98 282q3 10 8 18t15 13t27.5 7.5t45.5 2.5q26 0 42 -2 t25.5 -6t12.5 -10t3 -14q0 -11 -3.5 -24.5t-9.5 -31.5l-103 -269q-22 -61 -45.5 -105t-51.5 -75.5t-61 -52t-74 -32.5v-2q47 -17 83.5 -39.5t67.5 -55.5t57 -79.5t51 -111.5l122 -308q10 -26 12 -36.5t2 -18.5q0 -9 -4 -15t-13.5 -10t-26.5 -6t-42 -2q-29 0 -46.5 2.5 t-28 7.5t-16 12.5t-8.5 18.5l-119 316q-24 64 -53 109t-67 74q-26 21 -56 33v-114q0 -28 -1 -47t-6 -30t-16.5 -16t-32.5 -5q-20 0 -31 4.5t-16 16t-5.5 29.5t-0.5 45v141q-14 1 -28 1h-72v-566q0 -8 -4 -14t-14 -9.5t-26.5 -6t-41.5 -2.5q-24 0 -41 2.5t-27 6t-14 9.5 t-4 14z" />
<glyph unicode="&#x49d;" horiz-adv-x="950" d="M153 19v914q0 5 4.5 9.5t14.5 7.5t26 4.5t37 1.5t37 -1.5t26 -4.5t15 -7.5t5 -9.5v-377h70h8v123q0 28 0.5 47t6 30t16.5 16t32 5t32 -4.5t16 -16t5.5 -29.5t0.5 -45v-97l10 7q26 20 46.5 51t37.5 75l84 207q2 8 7 14t15 10t26.5 5.5t43.5 1.5q24 0 39.5 -1.5t24 -4.5 t11.5 -7.5t3 -9.5q0 -9 -2.5 -19t-7.5 -23l-86 -198q-20 -50 -43.5 -84t-47.5 -56.5t-49 -35t-48 -19.5v-2q35 -12 64.5 -29t55 -42t47.5 -59.5t41 -79.5l99 -228q4 -7 6 -13t3 -11.5t1.5 -9t0.5 -6.5q0 -6 -3.5 -10.5t-13 -7.5t-25 -4.5t-39.5 -1.5q-28 0 -45.5 2 t-28.5 5.5t-16 9t-7 12.5l-96 233q-18 45 -38.5 77.5t-47.5 52.5q-11 7 -22 13v-98q0 -28 -1 -47t-6 -30t-16.5 -16t-32.5 -5q-20 0 -31 4.5t-16 16t-5.5 29.5t-0.5 45v126h-8h-70v-405q0 -5 -5 -10t-15 -8t-26 -5t-37 -2t-37 2t-26 5t-14.5 8t-4.5 10z" />
<glyph unicode="&#x49e;" horiz-adv-x="1130" d="M27 1044q0 37 9 54.5t28 17.5h126v153q0 7 4 13t14 9.5t27 6t41 2.5q25 0 41.5 -2.5t26.5 -6t14 -9.5t4 -13v-153h230q9 0 16.5 -4.5t12 -13t7 -22t2.5 -32.5q0 -38 -9.5 -54.5t-28.5 -16.5h-230v-233h72q60 0 105 14.5t79.5 43.5t61 73.5t47.5 105.5l98 282q3 10 8 18 t15 13t27.5 7.5t45.5 2.5q26 0 42 -2t25.5 -6t12.5 -10t3 -14q0 -11 -3.5 -24.5t-9.5 -31.5l-103 -269q-22 -61 -45.5 -105t-51.5 -75.5t-61 -52t-74 -32.5v-2q47 -17 83.5 -39.5t67.5 -55.5t57 -79.5t51 -111.5l122 -308q10 -26 12 -36.5t2 -18.5q0 -9 -4 -15t-13.5 -10 t-26.5 -6t-42 -2q-29 0 -46.5 2.5t-28 7.5t-16 12.5t-8.5 18.5l-119 316q-24 64 -53 109t-66.5 74.5t-85.5 43.5t-108 14h-72v-566q0 -8 -4 -14t-14 -9.5t-26.5 -6t-41.5 -2.5q-24 0 -41 2.5t-27 6t-14 9.5t-4 14v947h-126q-19 0 -28 16.5t-9 54.5z" />
<glyph unicode="&#x49f;" horiz-adv-x="1003" d="M39 1168q0 18 2 30.5t6.5 20.5t10.5 11t14 3h134v137q0 5 4.5 9.5t14.5 7.5t26 4.5t37 1.5t37 -1.5t26 -4.5t15 -7.5t5 -9.5v-137h246q8 0 14 -3t10.5 -11t6.5 -20.5t2 -30.5q0 -17 -2 -29.5t-6.5 -20.5t-10.5 -11.5t-14 -3.5h-246v-547h70q38 0 69.5 8.5t57.5 28 t46.5 50.5t37.5 75l84 207q2 8 7 14t15 10t26.5 5.5t43.5 1.5q24 0 39.5 -1.5t24 -4.5t11.5 -7.5t3 -9.5q0 -9 -2.5 -19t-7.5 -23l-86 -198q-20 -50 -43.5 -84t-47.5 -56.5t-49 -35t-48 -19.5v-2q35 -12 64.5 -29t55 -42t47.5 -59.5t41 -79.5l99 -228q4 -7 6 -13t3 -11.5 t1.5 -9t0.5 -6.5q0 -6 -3.5 -10.5t-13 -7.5t-25 -4.5t-39.5 -1.5q-28 0 -45.5 2t-28.5 5.5t-16 9t-7 12.5l-96 233q-18 45 -38.5 77.5t-47.5 52.5t-61 29t-78 9h-70v-405q0 -5 -5 -10t-15 -8t-26 -5t-37 -2t-37 2t-26 5t-14.5 8t-4.5 10v1084h-135q-8 0 -13.5 3.5t-10 11.5 t-6.5 20.5t-2 29.5z" />
<glyph unicode="&#x4a0;" horiz-adv-x="1292" d="M15 1221q0 41 9 57t25 16h408q26 0 46.5 -17t20.5 -57v-480h72q60 0 105 14.5t79.5 43.5t61 73.5t47.5 105.5l98 282q3 10 8 18t15 13t27.5 7.5t45.5 2.5q26 0 42 -2t25.5 -6t12.5 -10t3 -14q0 -11 -3.5 -24.5t-9.5 -31.5l-103 -269q-22 -61 -45.5 -105t-51.5 -75.5 t-61 -52t-74 -32.5v-2q47 -17 83.5 -39.5t67.5 -55.5t57 -79.5t51 -111.5l122 -308q10 -26 12 -36.5t2 -18.5q0 -9 -4 -15t-13.5 -10t-26.5 -6t-42 -2q-29 0 -46.5 2.5t-28 7.5t-16 12.5t-8.5 18.5l-119 316q-24 64 -53 109t-66.5 74.5t-85.5 43.5t-108 14h-72v-566 q0 -8 -4 -14t-14 -9.5t-26.5 -6t-41.5 -2.5q-24 0 -41 2.5t-27 6t-14 9.5t-4 14v1122h-303q-8 0 -14.5 3.5t-10.5 12.5t-6.5 22.5t-2.5 34.5z" />
<glyph unicode="&#x4a1;" horiz-adv-x="1095" d="M10 878q0 39 9 56t25 17h372q21 0 34 -12.5t13 -39.5v-343h70q38 0 69.5 8.5t57.5 28t46.5 50.5t37.5 75l84 207q2 8 7 14t15 10t26.5 5.5t43.5 1.5q24 0 39.5 -1.5t24 -4.5t11.5 -7.5t3 -9.5q0 -9 -2.5 -19t-7.5 -23l-86 -198q-20 -50 -43.5 -84t-47.5 -56.5t-49 -35 t-48 -19.5v-2q35 -12 64.5 -29t55 -42t47.5 -59.5t41 -79.5l99 -228q4 -7 6 -13t3 -11.5t1.5 -9t0.5 -6.5q0 -6 -3.5 -10.5t-13 -7.5t-25 -4.5t-39.5 -1.5q-28 0 -45.5 2t-28.5 5.5t-16 9t-7 12.5l-96 233q-18 45 -38.5 77.5t-47.5 52.5t-61 29t-78 9h-70v-405q0 -5 -5 -10 t-15 -8t-26 -5t-37 -2t-37 2t-26 5t-14.5 8t-4.5 10v783h-254q-8 0 -14 4t-10.5 13.5t-7 23.5t-2.5 35z" />
<glyph unicode="&#x4a2;" horiz-adv-x="1316" d="M172 26v1242q0 8 4 14t14 9.5t27 6t41 2.5q25 0 41.5 -2.5t26.5 -6t14 -9.5t4 -14v-518h589v518q0 8 4 14t14 9.5t26 6t42 2.5q24 0 40.5 -2.5t26.5 -6t14 -9.5t4 -14v-1120h131q20 0 28.5 -11.5t8.5 -37.5v-414q0 -8 -3.5 -13t-11.5 -8t-22 -5t-38 -2q-20 0 -34 2t-23 5 t-12.5 8t-3.5 13v309h-105q-26 0 -42 2.5t-26 6t-14 9.5t-4 14v574h-589v-574q0 -8 -4 -14t-14 -9.5t-26.5 -6t-41.5 -2.5q-24 0 -41 2.5t-27 6t-14 9.5t-4 14z" />
<glyph unicode="&#x4a3;" horiz-adv-x="1137" d="M153 25v900q0 8 3.5 13.5t13 10t25.5 6t40 1.5q25 0 41 -1.5t25 -6t13 -10t4 -13.5v-366h459v366q0 8 4 13.5t13 10t25 6t41 1.5q24 0 40 -1.5t25 -6t13 -10t4 -13.5v-783h122q23 0 33 -9t8 -32v-407q0 -6 -3.5 -10t-12 -6.5t-21 -4t-30.5 -1.5q-19 0 -33 1.5t-22.5 4.5 t-12 6.5t-3.5 8.5v301h-107q-25 0 -41 2t-25 6t-13 9.5t-4 13.5v395h-459v-395q0 -8 -4 -13.5t-13 -9.5t-25 -6t-41 -2q-24 0 -40 2t-25.5 6t-13 9.5t-3.5 13.5z" />
<glyph unicode="&#x4a4;" horiz-adv-x="1457" d="M172 26v1242q0 8 4 14t14 9.5t27 6t41 2.5q25 0 41.5 -2.5t26.5 -6t14 -9.5t4 -14v-518h589v470q0 40 20.5 57t46.5 17h408q16 0 25 -16t9 -57q0 -21 -2.5 -34.5t-6.5 -22.5t-10.5 -12.5t-14.5 -3.5h-303l-1 -2v-1120q0 -8 -4 -14t-14 -9.5t-26.5 -6t-40.5 -2.5 q-26 0 -42 2.5t-26 6t-14 9.5t-4 14v574h-589v-574q0 -8 -4 -14t-14 -9.5t-26.5 -6t-41.5 -2.5q-24 0 -41 2.5t-27 6t-14 9.5t-4 14z" />
<glyph unicode="&#x4a5;" horiz-adv-x="1240" d="M153 25v900q0 8 3.5 13.5t13 10t25.5 6t40 1.5q25 0 41 -1.5t25 -6t13 -10t4 -13.5v-366h459v340q0 27 13 39.5t34 12.5h372q16 0 25 -17t9 -56q0 -21 -2.5 -35t-7 -23.5t-10.5 -13.5t-14 -4h-254v-777q0 -8 -4 -13.5t-13 -9.5t-25 -6t-40 -2q-25 0 -41 2t-25 6t-13 9.5 t-4 13.5v395h-459v-395q0 -8 -4 -13.5t-13 -9.5t-25 -6t-41 -2q-24 0 -40 2t-25.5 6t-13 9.5t-3.5 13.5z" />
<glyph unicode="&#x4a6;" horiz-adv-x="1848" d="M172 25v1199q0 35 17.5 52.5t44.5 17.5h807q28 0 44 -17.5t16 -52.5v-446q26 5 63.5 9t75.5 4q132 0 235.5 -39t174.5 -112.5t108 -180.5t37 -243q0 -144 -31 -252.5t-87.5 -181t-136.5 -109.5t-178 -37q-84 0 -129 11.5t-63 34.5q-10 14 -13.5 29.5t-3.5 42.5 q0 41 4.5 53t16.5 12q4 0 15.5 -5t32.5 -10.5t52.5 -10.5t75.5 -5q57 0 104.5 26t82 79t53.5 133.5t19 189.5q0 221 -97 323t-285 102q-37 0 -68 -4.5t-58 -12.5v-599q0 -8 -4 -13.5t-14 -9.5t-26.5 -6t-41.5 -2q-24 0 -41 2t-26.5 6t-14 9.5t-4.5 13.5v1120h-585v-1120 q0 -8 -4.5 -13.5t-14 -9.5t-26 -6t-41.5 -2t-41.5 2t-26.5 6t-14 9.5t-4 13.5z" />
<glyph unicode="&#x4a7;" horiz-adv-x="1521" d="M153 25v867q0 30 13.5 44.5t37.5 14.5h659q24 0 37 -14.5t13 -44.5v-345q31 3 65 3q111 0 200.5 -32.5t151.5 -91t95.5 -141.5t33.5 -183q0 -107 -28.5 -193t-78.5 -146.5t-119.5 -93.5t-151.5 -33q-72 0 -109.5 8.5t-52.5 25.5q-4 5 -7 14.5t-4.5 21t-2 23.5t-0.5 22 q0 31 3.5 41t14.5 10q3 0 13 -3.5t27.5 -8t43.5 -8t63 -3.5q48 0 88 19.5t69 59.5t45 99.5t16 140.5q0 155 -81 233t-240 78q-29 0 -54 -3v-381q0 -8 -4 -13.5t-13 -9.5t-25 -6t-40 -2q-25 0 -41 2t-25.5 6t-13.5 9.5t-4 13.5v786h-429v-786q0 -8 -4 -13.5t-13.5 -9.5 t-25.5 -6t-40 -2t-40 2t-25.5 6t-13 9.5t-3.5 13.5z" />
<glyph unicode="&#x4a8;" horiz-adv-x="1305" d="M97 630q0 160 41.5 286.5t116.5 214t179.5 133.5t231.5 46q35 0 69 -5t60 -15q20 -7 27 -30q2 -9 4 -22t2 -31q0 -39 -8 -54t-23 -15q-5 0 -19 3.5t-32.5 7.5t-40 7.5t-40.5 3.5q-86 0 -156.5 -35t-120.5 -101.5t-77.5 -163t-27.5 -220.5q0 -123 26.5 -217.5t76 -158 t121.5 -96t163 -32.5q15 0 30 1t29 3q-70 93 -111 213t-41 256q0 118 24.5 203t67 140t100.5 81t125 26t126 -24.5t103 -79.5t69.5 -142t25.5 -212q0 -161 -60 -287.5t-160 -207.5q58 -30 123 -30q19 0 40.5 3.5t40 7.5t32.5 7.5t19 3.5q15 0 23 -15t8 -54q0 -18 -2 -31 t-4 -22q-7 -23 -27 -30q-26 -10 -60 -15t-69 -5q-74 0 -142.5 24.5t-129.5 69.5q-96 -36 -204 -36q-126 0 -227.5 42t-173 124t-110 202.5t-38.5 277.5zM759 601q0 -128 33.5 -227.5t88.5 -168.5q75 58 115 156.5t40 226.5q0 74 -8.5 135.5t-26 106t-43.5 69t-61 24.5 q-36 0 -62 -24t-43 -67t-25 -102t-8 -129z" />
<glyph unicode="&#x4a9;" horiz-adv-x="1116" d="M89 466q0 119 34.5 212.5t97.5 158.5t151 99t194 34q29 0 60 -4.5t54 -11.5q22 -7 26 -25t4 -44q0 -33 -9 -46t-23 -13q-7 0 -13.5 1t-14.5 3q-14 3 -34 7t-50 4q-69 0 -125 -24.5t-95.5 -71.5t-61.5 -115.5t-22 -155.5q0 -175 81 -265t227 -90q8 0 17 0.5t14 2.5 q-54 67 -85.5 147.5t-31.5 185.5q0 83 21 142t57.5 97t86 55.5t106.5 17.5t107 -17t87.5 -54.5t59.5 -98t22 -148.5q0 -125 -47 -212.5t-125 -147.5q20 -8 44 -11.5t46 -3.5q28 0 46 2.5t29.5 6t18.5 6t13 2.5q17 0 23.5 -13.5t6.5 -47.5q0 -25 -5 -40q-7 -20 -30 -28 t-51.5 -12t-57.5 -4q-62 0 -121 17.5t-110 49.5q-39 -13 -77.5 -19t-82.5 -6q-106 0 -191.5 31t-145.5 92t-92.5 150t-32.5 205zM650 449q0 -97 28.5 -163.5t74.5 -114.5q56 42 83.5 108t27.5 166q0 45 -7 82.5t-20.5 64.5t-33.5 42t-47 15t-47 -15t-33 -41.5t-19.5 -63.5 t-6.5 -80z" />
<glyph unicode="&#x4aa;" horiz-adv-x="1092" d="M97 630q0 161 41.5 287t116.5 213.5t179.5 133.5t231.5 46q56 0 109 -10.5t98 -26.5t80 -37t48.5 -34.5t17.5 -20.5t6.5 -16.5t4 -22.5t1.5 -31q0 -20 -2 -34t-6 -23.5t-9.5 -14t-13.5 -4.5q-14 0 -39 19.5t-64.5 43t-96 43t-135.5 19.5q-86 0 -156.5 -34.5 t-120.5 -101.5t-77.5 -163.5t-27.5 -220.5q0 -123 26.5 -217.5t76 -158t121.5 -96t163 -32.5q77 0 134.5 19t98 42.5t66.5 42.5t41 19q7 0 12 -3t8 -11.5t4.5 -23.5t1.5 -38q0 -16 -1 -28t-3.5 -21t-6.5 -16t-14 -17t-42 -30.5t-79.5 -40t-109 -33t-134.5 -13.5 q-126 0 -227.5 42t-173 124t-110 202.5t-38.5 277.5zM472 -291q0 15 1.5 24.5t5 14.5t9.5 7t13 2h114q37 0 55 13t18 39q0 17 -8.5 36.5t-38.5 49.5l-105 105h177l57 -57q26 -26 41.5 -47.5t23.5 -40.5t10.5 -35.5t2.5 -32.5q0 -38 -14.5 -66t-40.5 -47t-63.5 -29t-82.5 -10 q-40 0 -74.5 4.5t-67.5 13.5q-9 3 -16 6.5t-10 9.5t-5 15.5t-2 24.5z" />
<glyph unicode="&#x4ab;" horiz-adv-x="866" d="M90 464q0 133 32.5 228.5t89 156.5t133 90.5t165.5 29.5q43 0 83.5 -8t74.5 -21t60.5 -30t38.5 -29t16.5 -19t7.5 -16.5t4 -21.5t1 -30q0 -39 -9 -54.5t-22 -15.5q-15 0 -34.5 16.5t-49.5 36.5t-72.5 36.5t-100.5 16.5q-119 0 -182.5 -91.5t-63.5 -265.5 q0 -87 16.5 -152.5t48.5 -109.5t78.5 -65.5t106.5 -21.5q57 0 100 18t74.5 39.5t53 39t33.5 17.5q7 0 12 -4t8.5 -13.5t5 -24t1.5 -34.5q0 -17 -1 -29.5t-3.5 -21t-6 -15t-16 -19t-42.5 -31t-67.5 -33t-81.5 -23.5t-91 -9q-97 0 -172 32t-125.5 93.5t-77 151t-26.5 206.5z M300 -291q0 15 1.5 24.5t5 14.5t9.5 7t13 2h114q37 0 55 13t18 39q0 17 -8.5 36.5t-38.5 49.5l-105 105h177l57 -57q26 -26 41.5 -47.5t23.5 -40.5t10.5 -35.5t2.5 -32.5q0 -38 -14.5 -66t-40.5 -47t-63.5 -29t-82.5 -10q-40 0 -74.5 4.5t-67.5 13.5q-9 3 -16 6.5t-10 9.5 t-5 15.5t-2 24.5z" />
<glyph unicode="&#x4ac;" horiz-adv-x="998" d="M15 1220q0 19 2.5 33.5t6.5 23.5t10.5 13t14.5 4h900q8 0 14.5 -4t11 -13t6.5 -23.5t2 -33.5t-2 -33t-6.5 -22.5t-11 -12.5t-14.5 -4h-364v-1000h130q20 0 28.5 -11.5t8.5 -37.5v-414q0 -8 -3.5 -13t-11.5 -8t-22 -5t-38 -2q-20 0 -34 2t-23 5t-12.5 8t-3.5 13v309h-105 q-26 0 -42 2.5t-26 6t-14 9.5t-4 14v1122h-364q-8 0 -14.5 4t-10.5 12.5t-6.5 22.5t-2.5 33z" />
<glyph unicode="&#x4ad;" horiz-adv-x="793" d="M10 877q0 18 2.5 32t7 23.5t10.5 14t14 4.5h705q8 0 14.5 -4.5t10.5 -14t6.5 -24t2.5 -32.5q0 -20 -2 -34t-6.5 -23t-10.5 -13.5t-15 -4.5h-270v-659h122q23 0 33 -9t8 -32v-407q0 -6 -3.5 -10t-12 -6.5t-21 -4t-30.5 -1.5q-19 0 -33 1.5t-22.5 4.5t-12 6.5t-3.5 8.5v301 h-107q-25 0 -41 2t-25 6t-13 9.5t-4 13.5v776h-270q-8 0 -14.5 4.5t-10.5 13.5t-6.5 23.5t-2.5 34.5z" />
<glyph unicode="&#x4ae;" horiz-adv-x="998" d="M32.5 1269q-2.5 13 5 20t27 9t52.5 2q30 0 48.5 -2t29.5 -5.5t16.5 -10t10.5 -16.5l179 -372q25 -53 50 -111t51 -117h2q23 57 47.5 113.5t49.5 111.5l180 374q3 10 8.5 17t15 10.5t26.5 5.5t43 2q36 0 56.5 -2.5t28.5 -9.5t5.5 -20t-13.5 -35l-366 -730v-477 q0 -8 -4 -14t-14 -9.5t-27 -6t-41 -2.5q-25 0 -41.5 2.5t-27 6t-14.5 9.5t-4 14v477l-366 730q-11 23 -13.5 36z" />
<glyph unicode="&#x4af;" horiz-adv-x="925" d="M34 927q0 8 4 14t13.5 9.5t25 4.5t38.5 1q29 0 46.5 -1.5t27 -5.5t14 -10t8.5 -15l254 -692l4 -12l3 12l251 692q2 9 7 15t14.5 10t26 5.5t43.5 1.5q23 0 38 -1t23.5 -5t12 -9.5t3.5 -13.5q0 -4 -0.5 -8.5t-1.5 -9.5t-2.5 -11t-3.5 -13l-343 -885v-333q0 -8 -4 -13.5 t-13 -9.5t-25 -6t-41 -2q-24 0 -40 2t-25.5 6t-13 9.5t-3.5 13.5v337l-331 881q-4 12 -6.5 21t-3 13.5t-0.5 7.5z" />
<glyph unicode="&#x4b0;" horiz-adv-x="998" d="M32.5 1269q-2.5 13 5 20t27 9t52.5 2q30 0 48.5 -2t29.5 -5.5t16.5 -10t10.5 -16.5l179 -372q25 -53 50 -111t51 -117h2q23 57 47.5 113.5t49.5 111.5l180 374q3 10 8.5 17t15 10.5t26.5 5.5t43 2q36 0 56.5 -2.5t28.5 -9.5t5.5 -20t-13.5 -35l-366 -730v-51h266 q8 0 14.5 -4t11 -12.5t6.5 -22t2 -32.5t-2 -32t-6.5 -22t-11 -13t-14.5 -4h-266v-284q0 -8 -4 -14t-14 -9.5t-27 -6t-41 -2.5q-25 0 -41.5 2.5t-27 6t-14.5 9.5t-4 14v284h-264q-9 0 -15.5 4t-10.5 12.5t-6.5 22t-2.5 33.5q0 18 2.5 31.5t6.5 22t10.5 12.5t15.5 4h264v51 l-366 730q-11 23 -13.5 36z" />
<glyph unicode="&#x4b1;" horiz-adv-x="925" d="M34 927q0 8 4 14t13.5 9.5t25 4.5t38.5 1q29 0 46.5 -1.5t27 -5.5t14 -10t8.5 -15l254 -692l4 -12l3 12l251 692q2 9 7 15t14.5 10t26 5.5t43.5 1.5q23 0 38 -1t23.5 -5t12 -9.5t3.5 -13.5q0 -4 -0.5 -8.5t-1.5 -9.5t-2.5 -11t-3.5 -13l-343 -885h181q7 0 13 -3.5 t10.5 -10.5t6.5 -19.5t2 -30.5q0 -17 -2 -29.5t-6.5 -20t-10 -11t-13.5 -3.5h-181v-205q0 -8 -4 -13.5t-13 -9.5t-25 -6t-41 -2q-24 0 -40 2t-25.5 6t-13 9.5t-3.5 13.5v205h-176q-8 0 -14 3.5t-10.5 11t-6.5 20t-2 29.5q0 18 2 30.5t6.5 19.5t10.5 10.5t14 3.5h176v4 l-331 881q-4 12 -6.5 21t-3 13.5t-0.5 7.5z" />
<glyph unicode="&#x4b2;" horiz-adv-x="1142" d="M50.5 27q2.5 13 15.5 35l353 595l-337 575q-12 22 -15.5 35.5t4.5 21t28 9.5t55 2q30 0 49 -1.5t30 -5t16 -10t11 -14.5l278 -484l276 484q5 8 10 14.5t14.5 10t26.5 5t46 1.5q31 0 50.5 -2.5t28 -9.5t6.5 -20.5t-14 -35.5l-336 -571l300 -513h114q20 0 28.5 -11.5 t8.5 -37.5v-414q0 -8 -3.5 -13t-11.5 -8t-22 -5t-38 -2q-20 0 -34 2t-23 5t-12.5 8t-3.5 13v309h-39q-28 0 -45.5 2.5t-26.5 6.5t-14.5 12t-11.5 20l-283 505l-291 -515q-5 -9 -11 -15t-16.5 -9.5t-28.5 -5t-48 -1.5q-33 0 -52 2.5t-26.5 10t-5 20.5z" />
<glyph unicode="&#x4b3;" horiz-adv-x="946" d="M41.5 20.5q0.5 9.5 9.5 23.5l280 439l-265 423q-8 14 -8.5 23.5t9 16t29 8.5t51.5 2q29 0 46.5 -1.5t27.5 -4.5t15 -8t9 -12l205 -335l208 335q4 6 9 11t13.5 8.5t24 5t42.5 1.5q29 0 47.5 -2t27.5 -7.5t8 -15.5t-10 -25l-263 -418l218 -348h103q21 0 30 -8t9 -33v-401 q0 -7 -3 -11.5t-11.5 -7.5t-22.5 -5t-33 -2q-20 0 -33 2t-21.5 5t-12 7.5t-3.5 11.5v296h-40q-19 0 -33 1.5t-24.5 5t-16 8.5t-10.5 14l-216 356l-215 -357q-4 -7 -9.5 -12.5t-16 -9t-27.5 -5t-45 -1.5q-29 0 -47.5 2.5t-27 8.5t-8 15.5z" />
<glyph unicode="&#x4b4;" horiz-adv-x="1490" d="M15 1220q0 19 2.5 33.5t6.5 23.5t10.5 13t14.5 4h780q8 0 14.5 -4t11 -13t6.5 -23.5t2 -33.5t-2 -33t-6.5 -22.5t-11 -12.5t-14.5 -4h-304v-1000h580v1121q0 7 4 13t14.5 10t27 6t41.5 2q24 0 40.5 -2t26.5 -6t14 -10t4 -13v-1121h131q20 0 28.5 -11.5t8.5 -37.5v-414 q0 -8 -3.5 -13t-11.5 -8t-22 -5t-38 -2q-20 0 -34 2t-23 5t-12.5 8t-3.5 13v315h-883q-28 0 -44.5 17.5t-16.5 52.5v1078h-304q-8 0 -14.5 4t-10.5 12.5t-6.5 22.5t-2.5 33z" />
<glyph unicode="&#x4b5;" horiz-adv-x="1221" d="M10 877q0 18 2.5 32t7 23.5t10.5 14t14 4.5h605q8 0 14.5 -4.5t10.5 -14t6.5 -24t2.5 -32.5q0 -20 -2 -34t-6.5 -23t-10.5 -13.5t-15 -4.5h-220v-411v-248h431v783q0 8 4 13.5t13.5 10t25.5 6t40 1.5q25 0 41 -1.5t25 -6t13 -10t4 -13.5v-783h125q24 0 32 -9t8 -32v-407 q-1 -11 -18 -16.5t-51 -5.5q-37 0 -54 6t-17 16v306h-736q-24 0 -37.5 14.5t-13.5 43.5v743h-220q-8 0 -14.5 4.5t-10.5 13.5t-6.5 23.5t-2.5 34.5z" />
<glyph unicode="&#x4b6;" horiz-adv-x="1178" d="M116 901v368q0 14 17.5 22.5t66.5 8.5t68 -8.5t19 -22.5v-356q0 -60 13 -108t46 -82t90 -52t146 -18q55 0 107.5 4t104.5 9v603q0 14 19.5 22.5t67.5 8.5q50 0 67 -8.5t17 -22.5v-1121h131q20 0 28.5 -11.5t8.5 -37.5v-414q0 -8 -3.5 -13t-11.5 -8t-22 -5t-38 -2 q-20 0 -34 2t-23 5t-12.5 8t-3.5 13v309h-104q-48 0 -67.5 8.5t-19.5 22.5v496q-58 -6 -113 -10.5t-112 -4.5q-96 0 -179 15.5t-144 59t-95.5 120.5t-34.5 200z" />
<glyph unicode="&#x4b7;" horiz-adv-x="1002" d="M66 669v256q0 8 3.5 13.5t13.5 10t25.5 6t39.5 1.5q25 0 41 -1.5t25 -6t13.5 -10t4.5 -13.5v-230q0 -81 12 -121t35 -63.5t56.5 -33t78.5 -9.5q59 0 115.5 15t112.5 43v399q0 8 3.5 13.5t13 10t26 6t40.5 1.5t40 -1.5t25 -6t13 -10t4 -13.5v-783h125q24 0 32 -9t8 -32 v-407q-1 -11 -18 -16.5t-51 -5.5q-37 0 -54 6t-17 16v300h-107q-24 0 -40.5 2t-26 6t-13 9.5t-3.5 13.5v362q-56 -25 -118.5 -39.5t-135.5 -14.5q-93 0 -155 24t-99 66t-52.5 100t-15.5 146z" />
<glyph unicode="&#x4b8;" horiz-adv-x="1138" d="M116 901v368q0 7 4 13t13.5 9.5t26 6t40.5 2.5q25 0 41 -2.5t27 -6t15 -9.5t4 -13v-356q0 -60 13 -108t46 -82t90 -52q22 -7 50 -12v136q0 28 0.5 47t6 30t16.5 16t32 5t32 -4.5t16 -16t5.5 -29.5t0.5 -45v-145q48 0 94 4q53 4 105 9v603q0 7 4.5 13t15 9.5t27.5 6 t40 2.5q25 0 41 -2.5t25.5 -6t13.5 -9.5t4 -13v-1244q0 -7 -4 -13t-13.5 -9.5t-25.5 -6t-41 -2.5q-23 0 -40 2.5t-27.5 6t-15 9.5t-4.5 13v496q-58 -6 -113 -11q-43 -3 -86 -4v-129q0 -28 -1 -47t-6 -30t-16.5 -16t-32.5 -5q-20 0 -31 4.5t-16 16t-5.5 29.5t-0.5 45v135 q-50 4 -96 12q-83 16 -144 59.5t-95.5 120.5t-34.5 200z" />
<glyph unicode="&#x4b9;" horiz-adv-x="960" d="M66 669v256q0 8 3.5 13.5t13.5 10t25.5 6t39.5 1.5q25 0 41 -1.5t25 -6t13.5 -10t4.5 -13.5v-230q0 -81 12 -121t35 -63.5t56 -33.5q21 -6 47 -8v156q0 28 0.5 47t6 30t16.5 16t32 5t32 -4.5t16 -16t5.5 -29.5t0.5 -45v-154q19 4 38 9q57 15 113 43v399q0 8 3.5 13.5 t13 10t26 6t40.5 1.5t40 -1.5t25 -6t13 -10t4 -13.5v-900q0 -8 -4 -13.5t-13 -9.5t-25 -6t-40 -2t-40.5 2t-26 6t-13 9.5t-3.5 13.5v362q-56 -25 -119 -40l-32 -6v-134q0 -28 -1 -47t-6 -30t-16.5 -16t-32.5 -5q-20 0 -31 4.5t-16 16t-5.5 29.5t-0.5 45v129q-89 1 -149 24 q-62 24 -99 66t-52.5 100t-15.5 146z" />
<glyph unicode="&#x4ba;" horiz-adv-x="1138" d="M173 25v1244q0 7 4 13t13.5 9.5t25.5 6t41 2.5q23 0 40 -2.5t27.5 -6t15 -9.5t4.5 -13v-496q58 6 113 10.5t112 4.5q96 0 179 -15.5t144 -59t95.5 -120.5t34.5 -200v-368q0 -7 -4 -13t-13.5 -9.5t-26 -6t-40.5 -2.5q-25 0 -41 2.5t-27 6t-15 9.5t-4 13v356q0 60 -13 108 t-46 82t-90 52t-146 18q-55 0 -107.5 -4t-104.5 -9v-603q0 -7 -4.5 -13t-15 -9.5t-27.5 -6t-40 -2.5q-25 0 -41 2.5t-25.5 6t-13.5 9.5t-4 13z" />
<glyph unicode="&#x4bb;" horiz-adv-x="960" d="M153 25v900q0 8 4 13.5t13 9.5t25 6t40 2t40.5 -2t26 -6t13 -9.5t3.5 -13.5v-362q56 25 118.5 39.5t135.5 14.5q93 0 155 -24t99 -66t52.5 -100t15.5 -146v-256q0 -8 -3.5 -13.5t-13.5 -10t-25.5 -6t-39.5 -1.5q-25 0 -41 1.5t-25 6t-13.5 10t-4.5 13.5v230q0 81 -12 121 t-35 63.5t-56.5 33t-78.5 9.5q-59 0 -115.5 -15t-112.5 -43v-399q0 -8 -3.5 -13.5t-13 -10t-26 -6t-40.5 -1.5t-40 1.5t-25 6t-13 10t-4 13.5z" />
<glyph unicode="&#x4bc;" horiz-adv-x="1526" d="M40 831q0 32 4.5 66t13.5 57q4 11 8.5 18.5t13.5 12t23.5 6.5t39.5 2q34 0 45.5 -5.5t11.5 -16.5q0 -7 -3 -15t-6.5 -20.5t-6.5 -30.5t-3 -45q0 -57 34 -82t100 -31q12 130 54.5 235t115 178.5t175.5 113t235 39.5t231.5 -43.5t166.5 -127t100.5 -204.5t33.5 -276 q0 -28 -14 -45.5t-48 -17.5h-872q4 -104 28 -190t75 -148t132.5 -96.5t200.5 -34.5q86 0 152.5 17.5t115.5 38.5t80.5 38.5t48.5 17.5q16 0 22.5 -15t6.5 -61q0 -33 -4 -49t-23 -33q-12 -11 -46.5 -28.5t-87 -34t-120.5 -28.5t-147 -12q-154 0 -267.5 40.5t-189.5 118.5 t-115.5 193.5t-43.5 265.5q-70 3 -121 15.5t-84.5 39.5t-49.5 70.5t-16 106.5zM496 745h742q-7 90 -26.5 167t-59 133.5t-103 88.5t-157.5 32q-99 0 -170 -33t-118.5 -90t-73.5 -134t-34 -164z" />
<glyph unicode="&#x4bd;" horiz-adv-x="1224" d="M25 618q0 28 4.5 56.5t13.5 48.5q4 9 8.5 15.5t13.5 10t23.5 5.5t39.5 2q34 0 45.5 -4t11.5 -13q0 -5 -3 -11.5t-6.5 -16t-6.5 -24t-3 -35.5q0 -48 31.5 -67.5t105.5 -21.5q12 95 46.5 170.5t89.5 128t128.5 80.5t162.5 28q105 0 180 -33.5t123 -91.5t70.5 -135.5 t22.5 -165.5v-30q0 -39 -19.5 -55.5t-44.5 -16.5h-590q0 -75 15.5 -135t50 -103t90.5 -66t137 -23q64 0 114 10.5t86.5 23.5t60 23.5t35.5 10.5q15 0 21 -14t6 -50q0 -26 -3.5 -40t-14.5 -25q-5 -5 -32 -17t-70 -24.5t-99.5 -22t-120.5 -9.5q-215 0 -329 115t-121 346 q-89 0 -142.5 14t-82.5 38t-38.5 56t-9.5 68zM472 563h488q3 130 -57.5 204t-179.5 74q-61 0 -107 -23t-77.5 -61t-48 -88.5t-18.5 -105.5z" />
<glyph unicode="&#x4be;" horiz-adv-x="1526" d="M40 831q0 32 4.5 66t13.5 57q4 11 8.5 18.5t13.5 12t23.5 6.5t39.5 2q34 0 45.5 -5.5t11.5 -16.5q0 -7 -3 -15t-6.5 -20.5t-6.5 -30.5t-3 -45q0 -57 34 -82t100 -31q12 130 54.5 235t115 178.5t175.5 113t235 39.5t231.5 -43.5t166.5 -127t100.5 -204.5t33.5 -276 q0 -28 -14 -45.5t-48 -17.5h-872q4 -104 28 -190t75 -148t132.5 -96.5t200.5 -34.5q86 0 152.5 17.5t115.5 38.5t80.5 38.5t48.5 17.5q16 0 22.5 -15t6.5 -61q0 -33 -4 -49t-23 -33q-11 -10 -42.5 -26t-78.5 -32t-108.5 -28.5t-133.5 -15.5v-297q0 -8 -3.5 -13t-11.5 -8 t-22 -5t-38 -2q-20 0 -34 2t-23 5t-12.5 8t-3.5 13v302q-251 28 -374.5 184t-131.5 428q-70 3 -121 15.5t-84.5 39.5t-49.5 70.5t-16 106.5zM496 745h742q-7 90 -26.5 167t-59 133.5t-103 88.5t-157.5 32q-99 0 -170 -33t-118.5 -90t-73.5 -134t-34 -164z" />
<glyph unicode="&#x4bf;" horiz-adv-x="1224" d="M25 618q0 28 4.5 56.5t13.5 48.5q4 9 8.5 15.5t13.5 10t23.5 5.5t39.5 2q34 0 45.5 -4t11.5 -13q0 -5 -3 -11.5t-6.5 -16t-6.5 -24t-3 -35.5q0 -48 31.5 -67.5t105.5 -21.5q12 95 46.5 170.5t89.5 128t128.5 80.5t162.5 28q105 0 180 -33.5t123 -91.5t70.5 -135.5 t22.5 -165.5v-30q0 -39 -19.5 -55.5t-44.5 -16.5h-590q0 -75 15.5 -135t50 -103t90.5 -66t137 -23q64 0 114 10.5t86.5 23.5t60 23.5t35.5 10.5q15 0 21 -14t6 -50q0 -26 -3.5 -40t-14.5 -25q-5 -5 -27 -15t-57.5 -21t-82 -21t-100.5 -14v-285q0 -13 -14.5 -19.5t-55.5 -6.5 q-39 0 -54.5 6.5t-15.5 19.5v288q-174 22 -266.5 135.5t-98.5 320.5q-89 0 -142.5 14t-82.5 38t-38.5 56t-9.5 68zM472 563h488q3 130 -57.5 204t-179.5 74q-61 0 -107 -23t-77.5 -61t-48 -88.5t-18.5 -105.5z" />
<glyph unicode="&#x4c0;" horiz-adv-x="516" d="M172 26v1242q0 8 4.5 14t15 9.5t27 6t39.5 2.5q25 0 41.5 -2.5t26.5 -6t14 -9.5t4 -14v-1242q0 -8 -4 -14t-14 -9.5t-26.5 -6t-41.5 -2.5q-24 0 -41 2.5t-27 6t-14 9.5t-4 14z" />
<glyph unicode="&#x4c1;" horiz-adv-x="1640" d="M85 27q0 3 0.5 8t2 12t4 15.5t6.5 19.5l101 293q23 68 48.5 116.5t55.5 82.5t68 56.5t86 37.5v1q-40 10 -72.5 29t-59.5 51.5t-50 79.5t-45 113l-91 270q-6 18 -9.5 31.5t-3.5 24.5q0 8 3.5 14t13 10t25.5 6t41 2q29 0 46 -2.5t27 -7.5t14 -13t8 -18l94 -306 q17 -55 39 -95t54.5 -66.5t77.5 -39t108 -12.5h59v529q0 7 3.5 13t13 9.5t26 6t40.5 2.5q25 0 41.5 -2.5t26 -6t13.5 -9.5t4 -13v-529h59q60 0 105.5 14t79 42t56.5 68t38 91l94 304q3 10 7.5 18t14 13t27 7.5t45.5 2.5q26 0 42 -2t25.5 -6t12.5 -10t3 -14q0 -11 -4 -24.5 t-8 -31.5l-90 -264q-21 -61 -42.5 -106t-48 -76.5t-60 -53t-77.5 -34.5v-2q50 -17 88 -41t68 -59t54.5 -84t47.5 -117l99 -293q4 -11 7 -19.5t4.5 -15.5t2.5 -12t1 -8q0 -9 -4.5 -15t-14 -10t-26.5 -6t-43 -2q-28 0 -45.5 2.5t-28 7.5t-15 12.5t-8.5 18.5l-107 326 q-20 62 -47 105t-63 71.5t-83.5 41.5t-106.5 13h-59v-566q0 -8 -4 -14t-13.5 -9.5t-26 -6t-41.5 -2.5q-24 0 -40.5 2.5t-26 6t-13 9.5t-3.5 14v566h-59q-65 0 -113.5 -15.5t-84.5 -45t-61 -72.5t-43 -98l-105 -326q-4 -11 -9 -18.5t-15 -12.5t-27.5 -7.5t-46.5 -2.5 q-26 0 -42.5 2t-26.5 6t-14 10t-4 15zM381 1294zM513 1630q0 10 3.5 17t13 11t25 6t37.5 2q24 0 38 -2.5t21.5 -7.5t10 -13t2.5 -19q0 -25 10 -49t30.5 -42.5t49.5 -29.5t67 -11q37 0 65.5 11t48.5 29.5t30 43t10 52.5q0 9 2.5 16.5t10 12t21 7t36.5 2.5q24 0 39.5 -2t25 -6 t13.5 -11t4 -17q0 -51 -17 -98t-54 -82.5t-95 -57t-141 -21.5q-76 0 -133.5 18.5t-96 53t-58 82t-19.5 105.5z" />
<glyph unicode="&#x4c2;" horiz-adv-x="1411" d="M62 18q0 6 2.5 15.5t9.5 24.5l99 227q19 45 41 79t46.5 59t53 42.5t62.5 28.5v2q-24 8 -47.5 20.5t-46.5 35t-45 56.5t-43 84l-83 199q-5 13 -8 23t-3 19q0 5 3.5 9.5t12 7.5t24 4.5t39.5 1.5q27 0 45 -1.5t29 -5.5t16.5 -10t7.5 -14l79 -208q17 -43 35.5 -74t42.5 -50.5 t53.5 -28t68.5 -8.5h67v378q0 5 5 9.5t15 7t26 4t37 1.5t36.5 -1.5t25.5 -4t15 -7t5 -9.5v-378h67q39 0 69 9t54.5 28.5t44 50t36.5 73.5l84 208q4 8 8.5 14t14 10t26 5.5t43.5 1.5q24 0 39.5 -1.5t24 -4.5t12 -7.5t3.5 -9.5q0 -9 -3 -19t-8 -23l-86 -199 q-21 -50 -43.5 -83.5t-45.5 -55.5t-45.5 -35t-45.5 -20v-2q34 -12 62.5 -29t53 -42.5t45.5 -60t41 -79.5l98 -227q3 -7 5.5 -13t3.5 -11.5t2 -9t1 -6.5q0 -6 -4 -10.5t-13.5 -7.5t-25 -4.5t-39.5 -1.5q-28 0 -45.5 2t-28 5.5t-15.5 9t-8 12.5l-96 232q-19 45 -39.5 77.5 t-45.5 52.5t-57.5 29.5t-76.5 9.5h-67v-407q0 -5 -5 -9.5t-15 -7.5t-25.5 -4.5t-36.5 -1.5t-37 1.5t-26 4.5t-15 7.5t-5 9.5v407h-67q-44 0 -77 -9.5t-59 -29.5t-46.5 -52.5t-39.5 -77.5l-96 -232q-2 -7 -7.5 -12.5t-15 -9t-27 -5.5t-44.5 -2q-23 0 -39 1.5t-25.5 4.5 t-13.5 7.5t-4 10.5zM266 951zM398 1350q0 10 3.5 17t13 11t25 6t37.5 2q24 0 38 -2.5t21.5 -7.5t10 -13t2.5 -19q0 -32 10 -59t30.5 -47t49.5 -31t67 -11q37 0 65.5 11t48.5 31t30 48t10 60q0 10 2.5 17.5t10 12.5t21 7.5t36.5 2.5q24 0 39.5 -2t25 -6t13.5 -11t4 -17 q0 -57 -17 -107t-54 -87.5t-95 -59t-141 -21.5q-76 0 -133.5 19t-96 54.5t-58 86.5t-19.5 115z" />
<glyph unicode="&#x4c3;" horiz-adv-x="1119" d="M172 26v1243q0 14 18 22.5t68 8.5t68 -8.5t18 -22.5v-529h72q59 0 104.5 14t80.5 43.5t61 74t47 105.5l98 282q3 10 8 18t15 13t27.5 7.5t45.5 2.5q26 0 42 -2t25 -6t12.5 -10t3.5 -14q0 -11 -3.5 -24.5t-9.5 -31.5l-103 -269q-35 -97 -82 -157.5t-107 -88.5v-5 q86 -21 157 -63t121.5 -104t78.5 -145.5t28 -187.5q0 -138 -31 -242t-87.5 -173.5t-136.5 -105t-178 -35.5q-84 0 -129 11.5t-63 34.5q-10 14 -13.5 29.5t-3.5 42.5q0 41 4.5 53t16.5 12q4 0 15.5 -5t32.5 -10.5t52.5 -10.5t75.5 -5q57 0 104.5 25t82 75t53.5 126.5 t19 179.5q0 105 -30 180.5t-85 123.5t-132.5 71t-171.5 23h-117v-566q0 -16 -18 -24t-68 -8t-68 8t-18 24z" />
<glyph unicode="&#x4c4;" horiz-adv-x="975" d="M153 19v914q0 11 19 17t63 6q83 0 83 -23v-377h70q38 0 69.5 8.5t57 28t46.5 50.5t38 75l84 207q2 8 7 14t15 9.5t27 5.5t43 2q49 0 63.5 -6.5t14.5 -16.5q0 -18 -10 -42l-86 -198q-20 -50 -43 -83.5t-47.5 -55.5t-49.5 -34.5t-48 -19.5v-2q82 -15 146 -48.5t108 -84.5 t67 -117.5t23 -145.5q0 -107 -28.5 -193t-80 -146.5t-123 -93.5t-156.5 -33q-72 0 -109.5 8.5t-52.5 25.5q-4 5 -7 14.5t-4.5 21t-2 23.5t-0.5 22q0 31 3.5 41t14.5 10q3 0 13 -3.5t27.5 -8t43.5 -8t63 -3.5q52 0 94 19.5t72 60t46 102t16 144.5q0 152 -93 235.5t-267 83.5 h-64v-405q0 -11 -20 -18t-63 -7q-44 0 -63 7t-19 18z" />
<glyph unicode="&#x4c5;" horiz-adv-x="1294" d="M3 58q0 50 9 67.5t25 17.5q36 0 69 15t63 56.5t58 116t54 194t50.5 289.5t48.5 403q5 42 20 59.5t44 17.5h575q28 0 44 -17.5t16 -52.5v-1076h135q23 0 35 -2t16.5 -7t2.5 -13t-8 -21l-188 -410q-12 -26 -41 -32t-78 -6q-30 0 -46 3.5t-22 10t-4 16t9 21.5l156 286h-54 q-50 0 -67.5 8t-17.5 23v1121h-364q-27 -231 -53.5 -407t-57 -305t-66.5 -215.5t-82.5 -138.5t-105 -74t-133.5 -22q-21 0 -31.5 17t-10.5 57z" />
<glyph unicode="&#x4c6;" horiz-adv-x="1057" d="M22 57q0 48 6.5 63t22.5 15q34 0 63.5 15.5t55.5 51t48.5 93t42 141.5t36.5 196.5t32 258.5q4 59 50 59h462q24 0 37.5 -14.5t13.5 -44.5v-743h95q23 0 35 -2t16.5 -7t2.5 -13t-8 -21l-181 -395q-6 -13 -11.5 -20.5t-14.5 -11.5t-24 -5t-39 -1q-30 0 -46 3.5t-22 10 t-4 16t9 21.5l149 271h-39q-48 0 -66 7.5t-18 22.5v787h-248q-24 -240 -62 -399.5t-90.5 -254.5t-119.5 -134.5t-150 -39.5q-18 0 -26 14t-8 60z" />
<glyph unicode="&#x4c7;" horiz-adv-x="1276" d="M172 26v1242q0 16 18 24t68 8t68 -8t18 -24v-518h589v518q0 16 18 24t68 8q49 0 67 -8t18 -24v-1182q0 -111 -31 -195.5t-87.5 -141t-136.5 -85t-178 -28.5q-84 0 -129 11.5t-63 34.5q-10 14 -13.5 29.5t-3.5 42.5q0 41 4.5 53t16.5 12q4 0 15.5 -5t32.5 -10.5 t52.5 -10.5t75.5 -5q57 0 107 18t87 54.5t58.5 92.5t21.5 131v516h-589v-574q0 -16 -18 -24t-68 -8t-68 8t-18 24z" />
<glyph unicode="&#x4c8;" horiz-adv-x="1095" d="M153 25v900q0 16 16.5 23.5t65.5 7.5q50 0 66.5 -7.5t16.5 -23.5v-366h459v366q0 16 16.5 23.5t66.5 7.5q48 0 65 -7.5t17 -23.5v-893q0 -90 -28.5 -163.5t-78.5 -125t-119.5 -79.5t-151.5 -28q-72 0 -109.5 8.5t-52.5 25.5q-4 5 -7 14.5t-4.5 21t-2 23.5t-0.5 22 q0 31 3.5 41t14.5 10q3 0 13 -3.5t27.5 -8t43.5 -8t63 -3.5q48 0 89 14.5t71 44.5t47 75t17 106v401h-459v-395q0 -15 -16.5 -23t-66.5 -8q-49 0 -65.5 8t-16.5 23z" />
<glyph unicode="&#x4c9;" horiz-adv-x="1276" d="M172 26v1242q0 16 18 24t68 8t68 -8t18 -24v-518h589v518q0 16 18 24t68 8q49 0 67 -8t18 -24v-1120h136q23 0 35 -2t16.5 -7t2.5 -13t-8 -21l-188 -410q-12 -26 -41 -32t-78 -6q-30 0 -46 3.5t-22 10t-4 16t9 21.5l156 286h-54q-50 0 -67.5 8.5t-17.5 23.5v574h-589 v-574q0 -16 -18 -24t-68 -8t-68 8t-18 24z" />
<glyph unicode="&#x4ca;" horiz-adv-x="1108" d="M153 25v900q0 16 16.5 23.5t65.5 7.5q50 0 66.5 -7.5t16.5 -23.5v-366h459v366q0 16 16.5 23.5t66.5 7.5q48 0 65 -7.5t17 -23.5v-777h96q23 0 35 -2t16.5 -7t2.5 -13t-8 -21l-181 -395q-6 -13 -11.5 -20.5t-14.5 -11.5t-24 -5t-39 -1q-30 0 -46 3.5t-22 10t-4 16t9 21.5 l149 271h-39q-48 0 -66 8t-18 23v395h-459v-395q0 -15 -16.5 -23t-66.5 -8q-49 0 -65.5 8t-16.5 23z" />
<glyph unicode="&#x4cb;" horiz-adv-x="1138" d="M116 901v368q0 7 4 13t13.5 9.5t26 6t40.5 2.5q25 0 41 -2.5t27 -6t15 -9.5t4 -13v-356q0 -60 13 -108t46 -82t90 -52t146 -18q55 0 107.5 4t104.5 9v603q0 7 4.5 13t15 9.5t27.5 6t40 2.5q25 0 41 -2.5t25.5 -6t13.5 -9.5t4 -13v-1244q0 -7 -4 -13t-14 -9.5t-26 -6 t-42 -2.5h-105v-309q0 -8 -3.5 -13t-12.5 -8t-23 -5t-34 -2q-24 0 -38 2t-22 5t-11.5 8t-3.5 13v414q0 26 8.5 37.5t28.5 11.5h131v373q-58 -6 -113 -10.5t-112 -4.5q-96 0 -179 15.5t-144 59t-95.5 120.5t-34.5 200z" />
<glyph unicode="&#x4cc;" horiz-adv-x="960" d="M66 669v256q0 8 3.5 13.5t13.5 10t25.5 6t39.5 1.5q25 0 41 -1.5t25 -6t13.5 -10t4.5 -13.5v-230q0 -81 12 -121t35 -63.5t56.5 -33t78.5 -9.5q59 0 115.5 15t112.5 43v399q0 8 3.5 13.5t13 10t26 6t40.5 1.5t40 -1.5t25 -6t13 -10t4 -13.5v-900q0 -8 -4 -13.5t-13 -9.5 t-25 -6t-41 -2h-107v-301q0 -5 -3.5 -8.5t-12 -6.5t-22.5 -4.5t-33 -1.5q-18 0 -30.5 1.5t-21 4t-12 6.5t-3.5 10v407q-2 23 8 32t33 9h122v245q-56 -25 -118.5 -39.5t-135.5 -14.5q-93 0 -155 24t-99 66t-52.5 100t-15.5 146z" />
<glyph unicode="&#x4cd;" horiz-adv-x="1799" d="M172 26v1190q0 42 22 60t49 18h104q65 0 98 -25t51 -80l375 -937h5l390 934q22 61 52 84.5t79 23.5h109q30 0 51.5 -18t21.5 -60v-1068h140q23 0 35 -2t16.5 -7t2.5 -13t-8 -21l-188 -410q-12 -26 -41 -32t-78 -6q-30 0 -46 3.5t-22 10t-4 16t9 21.5l156 286h-54 q-50 0 -67.5 8t-17.5 23v1128h-2l-461 -1132q-6 -14 -24.5 -20.5t-59.5 -6.5q-42 0 -61 7.5t-23 19.5l-441 1132h-1v-1127q0 -16 -17.5 -24t-67.5 -8q-49 0 -65.5 8t-16.5 24z" />
<glyph unicode="&#x4ce;" horiz-adv-x="1462" d="M97 15.5q-2 7.5 0 18.5l99 852q5 32 22.5 48.5t52.5 16.5h79q29 0 49.5 -4.5t35 -15.5t24.5 -29.5t19 -46.5l133 -383q23 -71 45 -141t38 -130h2q18 62 40 135t44 138l133 381q8 25 17.5 43.5t23.5 30t33.5 17t47.5 5.5h78q36 0 54.5 -15t21.5 -48l87 -740h116 q23 0 35 -2t16.5 -7t2.5 -13t-8 -21l-181 -395q-6 -13 -11.5 -20.5t-14.5 -11.5t-24 -5t-39 -1q-30 0 -46 3.5t-22 10t-4 16t9 21.5l149 271h-39q-48 0 -66 7.5t-18 22.5l-65 523q-6 56 -11.5 125t-11.5 128l-1 23q-9 -29 -19.5 -61t-21.5 -65t-21.5 -66t-19.5 -62 l-189 -533q-4 -12 -9.5 -20t-15 -13t-24 -7t-35.5 -2q-41 0 -58.5 8.5t-25.5 32.5l-182 534q-10 27 -21 59.5t-21.5 66t-20 66.5t-16.5 62l-1 -23q-6 -59 -13.5 -128t-11.5 -125l-62 -516q-1 -12 -5 -19.5t-13.5 -11t-25.5 -5t-42 -1.5q-24 0 -39 2t-22.5 7t-9.5 12.5z" />
<glyph unicode="&#x4cf;" horiz-adv-x="516" d="M172 26v1242q0 8 4.5 14t15 9.5t27 6t39.5 2.5q25 0 41.5 -2.5t26.5 -6t14 -9.5t4 -14v-1242q0 -8 -4 -14t-14 -9.5t-26.5 -6t-41.5 -2.5q-24 0 -41 2.5t-27 6t-14 9.5t-4 14z" />
<glyph unicode="&#x4d0;" horiz-adv-x="1185" d="M35.5 26.5q0.5 13.5 8.5 35.5l434 1202q4 11 10.5 18t19 11t32 5.5t49.5 1.5q32 0 53 -1.5t34 -5.5t20 -11.5t11 -18.5l434 -1202q8 -22 8.5 -35.5t-7.5 -20.5t-26.5 -9t-49.5 -2t-49.5 1.5t-28 5t-14 9.5t-8.5 15l-111 315h-538l-106 -311q-3 -9 -8 -15.5t-14.5 -11 t-27 -6.5t-45.5 -2q-29 0 -47.5 2.5t-26 9.5t-7 20.5zM153 1294zM285 1630q0 10 3.5 17t13 11t25 6t37.5 2q24 0 38 -2.5t21.5 -7.5t10 -13t2.5 -19q0 -25 10 -49t30.5 -42.5t49.5 -29.5t67 -11q37 0 65.5 11t48.5 29.5t30 43t10 52.5q0 9 2.5 16.5t10 12t21 7t36.5 2.5 q24 0 39.5 -2t25 -6t13.5 -11t4 -17q0 -51 -17 -98t-54 -82.5t-95 -57t-141 -21.5q-76 0 -133.5 18.5t-96 53t-58 82t-19.5 105.5zM360 477h450l-226 645h-1z" />
<glyph unicode="&#x4d1;" horiz-adv-x="981" d="M46 951zM92 255q0 76 31 132t89 93t142 55.5t189 18.5h124v70q0 52 -11 92t-35.5 66.5t-63.5 40t-96 13.5q-61 0 -109.5 -14.5t-85 -32t-61 -32t-36.5 -14.5q-8 0 -14 4t-10.5 12t-6.5 20.5t-2 27.5q0 25 3.5 39.5t17 27.5t46.5 30.5t76 32t94 24t103 9.5q97 0 165 -22 t110 -64.5t61 -105.5t19 -147v-607q0 -12 -8 -18t-22 -9t-41 -3q-26 0 -41.5 3t-22.5 9t-7 18v90q-59 -63 -131.5 -98t-153.5 -35q-71 0 -128.5 18.5t-98 53.5t-63 86t-22.5 116zM178 1350q0 10 3.5 17t13 11t25 6t37.5 2q24 0 38 -2.5t21.5 -7.5t10 -13t2.5 -19 q0 -32 10 -59t30.5 -47t49.5 -31t67 -11q37 0 65.5 11t48.5 31t30 48t10 60q0 10 2.5 17.5t10 12.5t21 7.5t36.5 2.5q24 0 39.5 -2t25 -6t13.5 -11t4 -17q0 -57 -17 -107t-54 -87.5t-95 -59t-141 -21.5q-76 0 -133.5 19t-96 54.5t-58 86.5t-19.5 115zM261 263 q0 -70 44.5 -111.5t124.5 -41.5q65 0 120.5 33t116.5 101v191h-141q-68 0 -118 -11.5t-83 -34t-48.5 -54t-15.5 -72.5z" />
<glyph unicode="&#x4d2;" horiz-adv-x="1185" d="M35.5 26.5q0.5 13.5 8.5 35.5l434 1202q4 11 10.5 18t19 11t32 5.5t49.5 1.5q32 0 53 -1.5t34 -5.5t20 -11.5t11 -18.5l434 -1202q8 -22 8.5 -35.5t-7.5 -20.5t-26.5 -9t-49.5 -2t-49.5 1.5t-28 5t-14 9.5t-8.5 15l-111 315h-538l-106 -311q-3 -9 -8 -15.5t-14.5 -11 t-27 -6.5t-45.5 -2q-29 0 -47.5 2.5t-26 9.5t-7 20.5zM155 1294zM287 1527q0 56 20.5 76.5t76.5 20.5t76.5 -20t20.5 -75q0 -56 -21 -77t-77 -21t-76 20.5t-20 75.5zM360 477h450l-226 645h-1zM700 1527q0 56 21 76.5t76 20.5q57 0 77 -20t20 -75q0 -56 -20.5 -77t-77.5 -21 q-55 0 -75.5 20.5t-20.5 75.5z" />
<glyph unicode="&#x4d3;" horiz-adv-x="981" d="M88 951zM92 255q0 76 31 132t89 93t142 55.5t189 18.5h124v70q0 52 -11 92t-35.5 66.5t-63.5 40t-96 13.5q-61 0 -109.5 -14.5t-85 -32t-61 -32t-36.5 -14.5q-8 0 -14 4t-10.5 12t-6.5 20.5t-2 27.5q0 25 3.5 39.5t17 27.5t46.5 30.5t76 32t94 24t103 9.5q97 0 165 -22 t110 -64.5t61 -105.5t19 -147v-607q0 -12 -8 -18t-22 -9t-41 -3q-26 0 -41.5 3t-22.5 9t-7 18v90q-59 -63 -131.5 -98t-153.5 -35q-71 0 -128.5 18.5t-98 53.5t-63 86t-22.5 116zM220 1214q0 56 19.5 76t73.5 20q55 0 74 -20t19 -73q0 -55 -20 -75t-74 -20t-73 19.5 t-19 72.5zM261 263q0 -70 44.5 -111.5t124.5 -41.5q65 0 120.5 33t116.5 101v191h-141q-68 0 -118 -11.5t-83 -34t-48.5 -54t-15.5 -72.5zM574 1214q0 56 19.5 76t73.5 20q55 0 74 -20t19 -73q0 -55 -20 -75t-74 -20t-73 19.5t-19 72.5z" />
<glyph unicode="&#x4d4;" horiz-adv-x="1563" d="M-52 20q0 7 3.5 17t11.5 25l652 1195q6 12 14.5 19.5t21.5 11t32.5 5t48.5 1.5h680q8 0 14.5 -4t11 -13t6.5 -22.5t2 -33.5q0 -18 -2 -31.5t-6.5 -22t-11 -12.5t-14.5 -4h-506v-407h434q9 0 15.5 -4t10.5 -13t6.5 -22.5t2.5 -32.5t-2.5 -32t-6.5 -22t-10.5 -13t-15.5 -4 h-434v-458h514q7 0 13.5 -4t11 -12.5t6.5 -22t2 -33.5q0 -18 -2 -31.5t-6.5 -22.5t-11 -13t-13.5 -4h-621q-24 0 -44 15.5t-20 54.5v246h-446l-154 -288q-5 -10 -11 -16.5t-17.5 -10.5t-30 -5.5t-47.5 -1.5q-21 0 -36 1t-25.5 3.5t-15 8t-4.5 13.5zM354 454h381v697h-6z" />
<glyph unicode="&#x4d5;" horiz-adv-x="1583" d="M92 254q0 77 31 133t89 93t142 55.5t189 18.5h124v70q0 52 -11 92t-35.5 66.5t-63.5 40t-96 13.5q-61 0 -109.5 -14.5t-85.5 -32t-62 -32t-37 -14.5q-8 0 -13.5 4t-9.5 12t-6 20.5t-2 27.5q0 25 3.5 39.5t17 27.5t46.5 30.5t76 32t94 24t103 9.5q64 0 113 -11t85.5 -31 t62 -48.5t41.5 -62.5q48 74 130 113.5t186 39.5q103 0 177 -34t121.5 -92t70 -135.5t22.5 -164.5v-30q0 -39 -19.5 -55.5t-43.5 -16.5h-591q0 -75 15.5 -135t50.5 -103t91.5 -66t138.5 -23q63 0 112.5 10.5t86 23.5t60.5 23.5t35 10.5q7 0 12 -3.5t8.5 -10.5t5 -19.5 t1.5 -30.5q0 -13 -1 -22.5t-2.5 -17t-5 -13.5t-9 -11.5t-32.5 -18t-70 -24.5t-99 -21.5t-120 -9.5q-69 0 -124.5 11t-100 33t-79 53t-60.5 71q-33 -39 -71 -70t-81 -53.5t-90 -33.5t-99 -11q-71 0 -128.5 18.5t-98 53.5t-63 86t-22.5 115zM261 263q0 -70 44.5 -111.5 t124.5 -41.5q65 0 127 37t130 120q-11 34 -16.5 80t-5.5 88h-139q-68 0 -118 -11.5t-83 -34t-48.5 -54t-15.5 -72.5zM831 563h489q1 65 -13.5 116t-44.5 87t-75 55.5t-104 19.5q-61 0 -107 -23t-77.5 -61t-48 -88.5t-19.5 -105.5z" />
<glyph unicode="&#x4d6;" horiz-adv-x="1000" d="M89 1294zM172 70v1154q0 39 20.5 54.5t43.5 15.5h614q8 0 14.5 -4t10.5 -13t6.5 -22.5t2.5 -33.5q0 -18 -2.5 -31.5t-6.5 -22t-10.5 -12.5t-14.5 -4h-506v-406h434q8 0 14.5 -4.5t11 -12.5t6.5 -22t2 -33q0 -18 -2 -31t-6.5 -21t-11 -11.5t-14.5 -3.5h-434v-463h513 q8 0 14.5 -4t11.5 -12.5t7 -22t2 -33.5q0 -18 -2 -31.5t-7 -22.5t-11.5 -13t-14.5 -4h-621q-23 0 -43.5 15.5t-20.5 54.5zM221 1630q0 10 3.5 17t13 11t25 6t37.5 2q24 0 38 -2.5t21.5 -7.5t10 -13t2.5 -19q0 -25 10 -49t30.5 -42.5t49.5 -29.5t67 -11q37 0 65.5 11 t48.5 29.5t30 43t10 52.5q0 9 2.5 16.5t10 12t21 7t36.5 2.5q24 0 39.5 -2t25 -6t13.5 -11t4 -17q0 -51 -17 -98t-54 -82.5t-95 -57t-141 -21.5q-76 0 -133.5 18.5t-96 53t-58 82t-19.5 105.5z" />
<glyph unicode="&#x4d7;" horiz-adv-x="1019" d="M86 951zM93 471q0 116 30 208.5t86.5 157t136.5 99t179 34.5q106 0 180.5 -34t122.5 -91.5t70.5 -135t22.5 -165.5v-30q0 -39 -19.5 -55.5t-44.5 -16.5h-590q0 -75 15 -135t50 -103t91 -66t137 -23q64 0 114 10.5t86.5 23.5t60 23.5t35.5 10.5q7 0 12.5 -3.5t8.5 -10.5 t4.5 -19.5t1.5 -30.5q0 -13 -1 -22.5t-2.5 -17t-5 -13.5t-9 -11.5t-32.5 -18t-70 -24.5t-99.5 -21.5t-120.5 -9.5q-111 0 -194.5 31t-140.5 92t-86 153t-29 214zM218 1350q0 10 3.5 17t13 11t25 6t37.5 2q24 0 38 -2.5t21.5 -7.5t10 -13t2.5 -19q0 -32 10 -59t30.5 -47 t49.5 -31t67 -11q37 0 65.5 11t48.5 31t30 48t10 60q0 10 2.5 17.5t10 12.5t21 7.5t36.5 2.5q24 0 39.5 -2t25 -6t13.5 -11t4 -17q0 -57 -17 -107t-54 -87.5t-95 -59t-141 -21.5q-76 0 -133.5 19t-96 54.5t-58 86.5t-19.5 115zM267 563h488q3 130 -57.5 204t-179.5 74 q-61 0 -107 -23t-77 -61t-48 -88.5t-19 -105.5z" />
<glyph unicode="&#x4d8;" horiz-adv-x="1317" d="M100 630q0 28 14 45.5t48 17.5h872q-5 103 -29 189.5t-75 148.5t-132 96.5t-200 34.5q-86 0 -152.5 -17.5t-115.5 -38.5t-81 -38.5t-48 -17.5q-8 0 -13.5 3t-9 11.5t-5 23.5t-1.5 38q0 33 4 49t23 33q12 11 46.5 28.5t87 34t120.5 28.5t147 12q159 0 275 -43t192 -126.5 t113 -206.5t37 -283q0 -154 -37 -278.5t-110 -212t-183 -135t-255 -47.5q-132 0 -231.5 43.5t-166.5 126.5t-100.5 204.5t-33.5 276.5zM289 547q7 -90 26.5 -167t59 -133.5t103 -88.5t157.5 -32q99 0 170 33t118.5 90t73.5 133.5t34 164.5h-742z" />
<glyph unicode="&#x4d9;" horiz-adv-x="1019" d="M98 407v30q0 39 19.5 55.5t44.5 16.5h590q0 75 -15 135t-50 103t-91 66t-137 23q-64 0 -114 -10.5t-86.5 -23.5t-60 -23.5t-35.5 -10.5q-7 0 -12.5 3.5t-8.5 10.5t-4.5 19.5t-1.5 30.5q0 13 1 22.5t2.5 17t5 13.5t9 11.5t32.5 18t70 24.5t99.5 21.5t120.5 9.5 q111 0 194.5 -31t140.5 -92t86 -153t29 -214q0 -116 -30 -208.5t-86.5 -157t-136.5 -99t-179 -34.5q-106 0 -180.5 34t-122.5 91.5t-70.5 135t-22.5 165.5zM264 388q-3 -130 57.5 -204t179.5 -74q61 0 107 23t77 61t48 88.5t19 105.5h-488z" />
<glyph unicode="&#x4da;" horiz-adv-x="1317" d="M100 630q0 28 14 45.5t48 17.5h872q-5 103 -29 189.5t-75 148.5t-132 96.5t-200 34.5q-86 0 -152.5 -17.5t-115.5 -38.5t-81 -38.5t-48 -17.5q-8 0 -13.5 3t-9 11.5t-5 23.5t-1.5 38q0 33 4 49t23 33q12 11 46.5 28.5t87 34t120.5 28.5t147 12q159 0 275 -43t192 -126.5 t113 -206.5t37 -283q0 -154 -37 -278.5t-110 -212t-183 -135t-255 -47.5q-132 0 -231.5 43.5t-166.5 126.5t-100.5 204.5t-33.5 276.5zM213 1294zM289 547q7 -90 26.5 -167t59 -133.5t103 -88.5t157.5 -32q99 0 170 33t118.5 90t73.5 133.5t34 164.5h-742zM345 1527 q0 56 20.5 76.5t76.5 20.5t76.5 -20t20.5 -75q0 -56 -21 -77t-77 -21t-76 20.5t-20 75.5zM758 1527q0 56 21 76.5t76 20.5q57 0 77 -20t20 -75q0 -56 -20.5 -77t-77.5 -21q-55 0 -75.5 20.5t-20.5 75.5z" />
<glyph unicode="&#x4db;" horiz-adv-x="1019" d="M98 407v30q0 39 19.5 55.5t44.5 16.5h590q0 75 -15 135t-50 103t-91 66t-137 23q-64 0 -114 -10.5t-86.5 -23.5t-60 -23.5t-35.5 -10.5q-7 0 -12.5 3.5t-8.5 10.5t-4.5 19.5t-1.5 30.5q0 13 1 22.5t2.5 17t5 13.5t9 11.5t32.5 18t70 24.5t99.5 21.5t120.5 9.5 q111 0 194.5 -31t140.5 -92t86 -153t29 -214q0 -116 -30 -208.5t-86.5 -157t-136.5 -99t-179 -34.5q-106 0 -180.5 34t-122.5 91.5t-70.5 135t-22.5 165.5zM107 951zM239 1214q0 56 19.5 76t73.5 20q55 0 74 -20t19 -73q0 -55 -20 -75t-74 -20t-73 19.5t-19 72.5zM264 388 q-3 -130 57.5 -204t179.5 -74q61 0 107 23t77 61t48 88.5t19 105.5h-488zM593 1214q0 56 19.5 76t73.5 20q55 0 74 -20t19 -73q0 -55 -20 -75t-74 -20t-73 19.5t-19 72.5z" />
<glyph unicode="&#x4dc;" horiz-adv-x="1640" d="M85 27q0 3 0.5 8t2 12t4 15.5t6.5 19.5l101 293q23 68 48.5 116.5t55.5 82.5t68 56.5t86 37.5v1q-40 10 -72.5 29t-59.5 51.5t-50 79.5t-45 113l-91 270q-6 18 -9.5 31.5t-3.5 24.5q0 8 3.5 14t13 10t25.5 6t41 2q29 0 46 -2.5t27 -7.5t14 -13t8 -18l94 -306 q17 -55 39 -95t54.5 -66.5t77.5 -39t108 -12.5h59v529q0 7 3.5 13t13 9.5t26 6t40.5 2.5q25 0 41.5 -2.5t26 -6t13.5 -9.5t4 -13v-529h59q60 0 105.5 14t79 42t56.5 68t38 91l94 304q3 10 7.5 18t14 13t27 7.5t45.5 2.5q26 0 42 -2t25.5 -6t12.5 -10t3 -14q0 -11 -4 -24.5 t-8 -31.5l-90 -264q-21 -61 -42.5 -106t-48 -76.5t-60 -53t-77.5 -34.5v-2q50 -17 88 -41t68 -59t54.5 -84t47.5 -117l99 -293q4 -11 7 -19.5t4.5 -15.5t2.5 -12t1 -8q0 -9 -4.5 -15t-14 -10t-26.5 -6t-43 -2q-28 0 -45.5 2.5t-28 7.5t-15 12.5t-8.5 18.5l-107 326 q-20 62 -47 105t-63 71.5t-83.5 41.5t-106.5 13h-59v-566q0 -8 -4 -14t-13.5 -9.5t-26 -6t-41.5 -2.5q-24 0 -40.5 2.5t-26 6t-13 9.5t-3.5 14v566h-59q-65 0 -113.5 -15.5t-84.5 -45t-61 -72.5t-43 -98l-105 -326q-4 -11 -9 -18.5t-15 -12.5t-27.5 -7.5t-46.5 -2.5 q-26 0 -42.5 2t-26.5 6t-14 10t-4 15zM385 1294zM517 1527q0 56 20.5 76.5t76.5 20.5t76.5 -20t20.5 -75q0 -56 -21 -77t-77 -21t-76 20.5t-20 75.5zM930 1527q0 56 21 76.5t76 20.5q57 0 77 -20t20 -75q0 -56 -20.5 -77t-77.5 -21q-55 0 -75.5 20.5t-20.5 75.5z" />
<glyph unicode="&#x4dd;" horiz-adv-x="1411" d="M62 18q0 6 2.5 15.5t9.5 24.5l99 227q19 45 41 79t46.5 59t53 42.5t62.5 28.5v2q-24 8 -47.5 20.5t-46.5 35t-45 56.5t-43 84l-83 199q-5 13 -8 23t-3 19q0 5 3.5 9.5t12 7.5t24 4.5t39.5 1.5q27 0 45 -1.5t29 -5.5t16.5 -10t7.5 -14l79 -208q17 -43 35.5 -74t42.5 -50.5 t53.5 -28t68.5 -8.5h67v378q0 5 5 9.5t15 7t26 4t37 1.5t36.5 -1.5t25.5 -4t15 -7t5 -9.5v-378h67q39 0 69 9t54.5 28.5t44 50t36.5 73.5l84 208q4 8 8.5 14t14 10t26 5.5t43.5 1.5q24 0 39.5 -1.5t24 -4.5t12 -7.5t3.5 -9.5q0 -9 -3 -19t-8 -23l-86 -199 q-21 -50 -43.5 -83.5t-45.5 -55.5t-45.5 -35t-45.5 -20v-2q34 -12 62.5 -29t53 -42.5t45.5 -60t41 -79.5l98 -227q3 -7 5.5 -13t3.5 -11.5t2 -9t1 -6.5q0 -6 -4 -10.5t-13.5 -7.5t-25 -4.5t-39.5 -1.5q-28 0 -45.5 2t-28 5.5t-15.5 9t-8 12.5l-96 232q-19 45 -39.5 77.5 t-45.5 52.5t-57.5 29.5t-76.5 9.5h-67v-407q0 -5 -5 -9.5t-15 -7.5t-25.5 -4.5t-36.5 -1.5t-37 1.5t-26 4.5t-15 7.5t-5 9.5v407h-67q-44 0 -77 -9.5t-59 -29.5t-46.5 -52.5t-39.5 -77.5l-96 -232q-2 -7 -7.5 -12.5t-15 -9t-27 -5.5t-44.5 -2q-23 0 -39 1.5t-25.5 4.5 t-13.5 7.5t-4 10.5zM303 951zM435 1214q0 56 19.5 76t73.5 20q55 0 74 -20t19 -73q0 -55 -20 -75t-74 -20t-73 19.5t-19 72.5zM789 1214q0 56 19.5 76t73.5 20q55 0 74 -20t19 -73q0 -55 -20 -75t-74 -20t-73 19.5t-19 72.5z" />
<glyph unicode="&#x4de;" horiz-adv-x="970" d="M21 1294zM75 163q0 31 6 42t18 11t33.5 -13t56.5 -30.5t85.5 -30.5t120.5 -13q66 0 120.5 16.5t93 46.5t60 72t21.5 93q0 55 -20 100t-59.5 77t-98.5 50t-136 18h-152q-12 0 -19 3.5t-12 11.5t-7 21.5t-2 33.5q0 19 2 32t7 21.5t12.5 12.5t17.5 4h143q66 0 120.5 15 t93 44t59.5 71.5t21 97.5q0 44 -14.5 81t-44 62.5t-73 39.5t-102.5 14q-64 0 -114 -13.5t-86 -30t-61 -30.5t-37 -14q-7 0 -11 3t-7 10.5t-4 20.5t-1 32q0 13 1 25.5t3.5 22.5t6.5 18.5t12 16.5t38 23.5t74 29t99.5 23t119.5 9.5q96 0 167.5 -23t120 -65t72 -101t23.5 -131 q0 -66 -19.5 -118.5t-53 -91t-78.5 -63t-95 -33.5v-3q60 -7 112 -34t90 -69.5t60 -98t22 -119.5q0 -86 -31.5 -156.5t-93 -121t-151.5 -77.5t-207 -27q-65 0 -117 10t-90 24t-59.5 26t-30 19.5t-13 15t-6.5 19t-4 28t-2 40.5zM153 1527q0 56 20.5 76.5t76.5 20.5t76.5 -20 t20.5 -75q0 -56 -21 -77t-77 -21t-76 20.5t-20 75.5zM566 1527q0 56 21 76.5t76 20.5q57 0 77 -20t20 -75q0 -56 -20.5 -77t-77.5 -21q-55 0 -75.5 20.5t-20.5 75.5z" />
<glyph unicode="&#x4df;" horiz-adv-x="866" d="M8 951zM75 141q0 16 2 27t5 18t7 10.5t11 3.5q11 0 30.5 -13.5t52.5 -30t81.5 -30.5t119.5 -14q50 0 90 10.5t68 31t43.5 51.5t15.5 72q0 35 -15 63t-47 47.5t-82 30.5t-121 11h-100q-10 0 -16 3.5t-10.5 11t-6 20t-1.5 29.5q0 16 2 28t6 19t10 10.5t15 3.5h97 q63 0 108.5 10t76 29.5t45 48t14.5 65.5q0 33 -14 58t-37.5 41.5t-57.5 25t-73 8.5q-61 0 -108.5 -14t-82 -30.5t-56.5 -30t-31 -13.5q-5 0 -9.5 2.5t-8 9t-5 18t-1.5 27.5q0 29 4.5 46t16.5 29t42 28t70.5 28.5t88 21t97.5 8.5q73 0 134 -15.5t104.5 -47t67.5 -78 t24 -108.5q0 -37 -12 -70.5t-34.5 -61.5t-55.5 -50t-73 -34l-2 -1q39 -4 77 -22.5t68 -48t48.5 -70t18.5 -89.5q0 -68 -27 -122t-77.5 -92.5t-123.5 -58.5t-166 -20q-52 0 -97.5 7.5t-83 19t-63 25t-36 22.5t-15.5 16.5t-7 16.5t-3.5 22t-1.5 31zM140 1214q0 56 19.5 76 t73.5 20q55 0 74 -20t19 -73q0 -55 -20 -75t-74 -20t-73 19.5t-19 72.5zM494 1214q0 56 19.5 76t73.5 20q55 0 74 -20t19 -73q0 -55 -20 -75t-74 -20t-73 19.5t-19 72.5z" />
<glyph unicode="&#x4e0;" horiz-adv-x="970" d="M75 163q0 31 6 42t18 11t33.5 -13.5t56.5 -30t85.5 -30t120.5 -13.5q65 0 119 16t93 46.5t61 76.5t22 106q0 51 -16 96t-53 78.5t-97 53.5t-148 20h-46q-16 0 -28 11.5t-12 51.5q0 35 13.5 56t22.5 33l301 374h-501q-38 0 -38 71q0 75 38 75h631q29 0 40.5 -15t11.5 -59 q0 -25 -4 -49.5t-24 -50.5l-287 -357v-7q85 -10 156 -38.5t122 -75.5t79.5 -114t28.5 -155q0 -92 -31.5 -164.5t-93 -123t-151.5 -77.5t-207 -27q-66 0 -117.5 10t-89 23.5t-60.5 26.5t-30 19q-7 7 -12 15t-8 19.5t-4 28t-1 40.5z" />
<glyph unicode="&#x4e1;" horiz-adv-x="956" d="M75 -199q0 31 6 42t18 11q9 0 30 -13.5t57 -30t87.5 -30t121.5 -13.5q73 0 127.5 19t90.5 53.5t54 83.5t18 108q0 52 -15.5 99t-51.5 82.5t-95 56t-147 20.5h-46q-16 0 -28 9t-12 44t13.5 56t22.5 33l281 383h-471q-19 0 -28.5 13t-9.5 49q0 75 38 75h601q29 0 40.5 -15 t11.5 -59q0 -25 -9 -45t-29 -46l-267 -365v-8q85 -10 154.5 -38.5t118.5 -75.5t76 -114t27 -155q0 -92 -28.5 -165t-86 -124t-144.5 -78t-204 -27q-66 0 -117.5 9t-89 21t-60.5 23.5t-30 16.5q-7 6 -12 13t-8 17.5t-4 26t-1 38.5z" />
<glyph unicode="&#x4e2;" horiz-adv-x="1314" d="M172 28v1241q0 7 4.5 13t15 10t27 6t39.5 2q25 0 41.5 -2t26.5 -6t14 -10t4 -13v-854q0 -27 -0.5 -58t-3.5 -60h2q16 25 37.5 60.5t45.5 70.5l559 843q5 7 11 12.5t15.5 9t22.5 5.5t33 2q23 0 37.5 -2t23 -6.5t12 -10t3.5 -14.5v-1242q0 -8 -4 -13.5t-14 -9.5t-26.5 -6 t-41.5 -2q-24 0 -41 2t-26.5 6t-13.5 9.5t-4 13.5v849q0 31 1 64.5t3 60.5h-2q-8 -14 -17.5 -30t-20.5 -33.5l-22 -35t-22 -34.5l-560 -842q-6 -8 -12 -14t-15.5 -9.5t-22.5 -5t-33 -1.5q-23 0 -37.5 2t-23 6.5t-12 10.5t-3.5 15zM220 1294zM352 1524q0 16 2 29t6 21 t10.5 12t14.5 4h546q7 0 13 -4t10.5 -12t6 -20.5t1.5 -29.5t-1.5 -29.5t-6 -21t-10.5 -12.5t-13 -4h-546q-8 0 -14.5 4t-10.5 12.5t-6 21t-2 29.5z" />
<glyph unicode="&#x4e3;" horiz-adv-x="1107" d="M149 951zM153 24v902q0 7 3.5 13t13 10t25.5 5.5t39 1.5q48 0 66 -7.5t18 -22.5v-521q0 -39 -2 -77.5t-5 -76.5q23 38 46.5 74.5t50.5 71.5l387 529q6 8 12.5 14t16 9.5t22.5 5t34 1.5t35.5 -1.5t23 -5.5t12 -10t3.5 -14v-901q0 -7 -4 -13t-13 -9.5t-25 -5.5t-40 -2 t-40 2t-26 5.5t-14 9.5t-4 13v518q0 39 2 79.5t5 79.5q-23 -40 -50.5 -78.5t-55.5 -76.5l-382 -522q-7 -8 -12.5 -14t-14 -9.5t-21.5 -5t-32 -1.5q-22 0 -36 2t-22.5 5.5t-12 9.5t-3.5 13zM281 1228q0 18 2 30.5t6 20t10.5 11t14.5 3.5h479q8 0 14 -3.5t9.5 -11t6 -20 t2.5 -30.5q0 -17 -2.5 -28.5t-6 -19.5t-9.5 -12t-14 -4h-479q-8 0 -14.5 4t-10.5 12t-6 19.5t-2 28.5z" />
<glyph unicode="&#x4e4;" horiz-adv-x="1314" d="M172 28v1241q0 7 4.5 13t15 10t27 6t39.5 2q25 0 41.5 -2t26.5 -6t14 -10t4 -13v-854q0 -27 -0.5 -58t-3.5 -60h2q16 25 37.5 60.5t45.5 70.5l559 843q5 7 11 12.5t15.5 9t22.5 5.5t33 2q23 0 37.5 -2t23 -6.5t12 -10t3.5 -14.5v-1242q0 -8 -4 -13.5t-14 -9.5t-26.5 -6 t-41.5 -2q-24 0 -41 2t-26.5 6t-13.5 9.5t-4 13.5v849q0 31 1 64.5t3 60.5h-2q-8 -14 -17.5 -30t-20.5 -33.5l-22 -35t-22 -34.5l-560 -842q-6 -8 -12 -14t-15.5 -9.5t-22.5 -5t-33 -1.5q-23 0 -37.5 2t-23 6.5t-12 10.5t-3.5 15zM222 1294zM354 1527q0 56 20.5 76.5 t76.5 20.5t76.5 -20t20.5 -75q0 -56 -21 -77t-77 -21t-76 20.5t-20 75.5zM767 1527q0 56 21 76.5t76 20.5q57 0 77 -20t20 -75q0 -56 -20.5 -77t-77.5 -21q-55 0 -75.5 20.5t-20.5 75.5z" />
<glyph unicode="&#x4e5;" horiz-adv-x="1107" d="M151 951zM153 24v902q0 7 3.5 13t13 10t25.5 5.5t39 1.5q48 0 66 -7.5t18 -22.5v-521q0 -39 -2 -77.5t-5 -76.5q23 38 46.5 74.5t50.5 71.5l387 529q6 8 12.5 14t16 9.5t22.5 5t34 1.5t35.5 -1.5t23 -5.5t12 -10t3.5 -14v-901q0 -7 -4 -13t-13 -9.5t-25 -5.5t-40 -2 t-40 2t-26 5.5t-14 9.5t-4 13v518q0 39 2 79.5t5 79.5q-23 -40 -50.5 -78.5t-55.5 -76.5l-382 -522q-7 -8 -12.5 -14t-14 -9.5t-21.5 -5t-32 -1.5q-22 0 -36 2t-22.5 5.5t-12 9.5t-3.5 13zM283 1214q0 56 19.5 76t73.5 20q55 0 74 -20t19 -73q0 -55 -20 -75t-74 -20 t-73 19.5t-19 72.5zM637 1214q0 56 19.5 76t73.5 20q55 0 74 -20t19 -73q0 -55 -20 -75t-74 -20t-73 19.5t-19 72.5z" />
<glyph unicode="&#x4e6;" horiz-adv-x="1356" d="M99 640q0 153 37 278t111 212.5t185 135t259 47.5q143 0 249 -43t176.5 -125.5t105 -204t34.5 -278.5t-37 -283t-110.5 -214.5t-184.5 -136t-259 -47.5q-146 0 -252.5 43.5t-176 126.5t-103.5 206t-34 283zM246 1294zM281 652q0 -114 19 -210t64 -165.5t120.5 -108 t189.5 -38.5q113 0 190 42t124 113.5t67 165.5t20 199q0 110 -19.5 204.5t-65 164t-121.5 108.5t-188 39t-188 -42t-123.5 -112t-68 -163.5t-20.5 -196.5zM378 1527q0 56 20.5 76.5t76.5 20.5t76.5 -20t20.5 -75q0 -56 -21 -77t-77 -21t-76 20.5t-20 75.5zM791 1527 q0 56 21 76.5t76 20.5q57 0 77 -20t20 -75q0 -56 -20.5 -77t-77.5 -21q-55 0 -75.5 20.5t-20.5 75.5z" />
<glyph unicode="&#x4e7;" horiz-adv-x="1080" d="M90 467q0 110 28.5 202.5t86 159.5t143.5 104t201 37q111 0 193.5 -33t137.5 -96t82.5 -153t27.5 -203q0 -110 -29 -202.5t-86.5 -159.5t-144 -104.5t-200.5 -37.5q-111 0 -193.5 33t-137.5 96t-82 153t-27 204zM138 951zM263 478q0 -74 13.5 -139t45 -113.5t84.5 -77 t132 -28.5q72 0 125 26t87 73t50 112t16 143q0 73 -13.5 138t-44.5 114t-84 77.5t-132 28.5q-73 0 -125.5 -26t-86.5 -73.5t-50.5 -112.5t-16.5 -142zM270 1214q0 56 19.5 76t73.5 20q55 0 74 -20t19 -73q0 -55 -20 -75t-74 -20t-73 19.5t-19 72.5zM624 1214q0 56 19.5 76 t73.5 20q55 0 74 -20t19 -73q0 -55 -20 -75t-74 -20t-73 19.5t-19 72.5z" />
<glyph unicode="&#x4e8;" horiz-adv-x="1356" d="M99 640q0 155 37.5 279.5t112.5 212t185.5 134.5t256.5 47q140 0 246 -42t177 -124.5t106.5 -204t35.5 -279.5t-37 -284t-111 -214.5t-185 -136t-258 -47.5q-145 0 -251.5 42.5t-176 126t-104 206.5t-34.5 284zM281 584q5 -102 27.5 -187t68.5 -145t119 -93.5t178 -33.5 q106 0 180.5 35t122.5 97t71.5 145.5t26.5 181.5h-794zM281 722h793q-5 97 -28.5 179t-70 142t-119 94t-175.5 34t-177.5 -34.5t-122.5 -95t-72 -142.5t-28 -177z" />
<glyph unicode="&#x4e9;" horiz-adv-x="1073" d="M90 470q0 110 28.5 201.5t85.5 158t142 103.5t199 37q109 0 191.5 -34t137 -97t82 -153.5t27.5 -202.5q0 -111 -28.5 -203t-85.5 -158.5t-142.5 -103.5t-199.5 -37q-112 0 -194 35t-136 98.5t-80.5 154.5t-26.5 201zM260 419q2 -69 19.5 -125.5t51 -97.5t85 -63 t120.5 -22q64 0 114.5 20t86 59t55 96.5t21.5 132.5h-553zM260 540h553q-3 61 -19 115t-48.5 95t-83.5 65.5t-125 24.5q-70 0 -121 -24t-85 -65t-51 -95.5t-20 -115.5z" />
<glyph unicode="&#x4ea;" horiz-adv-x="1356" d="M99 640q0 155 37.5 279.5t112.5 212t185.5 134.5t256.5 47q140 0 246 -42t177 -124.5t106.5 -204t35.5 -279.5t-37 -284t-111 -214.5t-185 -136t-258 -47.5q-145 0 -251.5 42.5t-176 126t-104 206.5t-34.5 284zM243 1294zM281 584q5 -102 27.5 -187t68.5 -145t119 -93.5 t178 -33.5q106 0 180.5 35t122.5 97t71.5 145.5t26.5 181.5h-794zM281 722h793q-5 97 -28.5 179t-70 142t-119 94t-175.5 34t-177.5 -34.5t-122.5 -95t-72 -142.5t-28 -177zM375 1527q0 56 20.5 76.5t76.5 20.5t76.5 -20t20.5 -75q0 -56 -21 -77t-77 -21t-76 20.5t-20 75.5z M788 1527q0 56 21 76.5t76 20.5q57 0 77 -20t20 -75q0 -56 -20.5 -77t-77.5 -21q-55 0 -75.5 20.5t-20.5 75.5z" />
<glyph unicode="&#x4eb;" horiz-adv-x="1073" d="M90 470q0 110 28.5 201.5t85.5 158t142 103.5t199 37q109 0 191.5 -34t137 -97t82 -153.5t27.5 -202.5q0 -111 -28.5 -203t-85.5 -158.5t-142.5 -103.5t-199.5 -37q-112 0 -194 35t-136 98.5t-80.5 154.5t-26.5 201zM134 951zM260 419q2 -69 19.5 -125.5t51 -97.5t85 -63 t120.5 -22q64 0 114.5 20t86 59t55 96.5t21.5 132.5h-553zM260 540h553q-3 61 -19 115t-48.5 95t-83.5 65.5t-125 24.5q-70 0 -121 -24t-85 -65t-51 -95.5t-20 -115.5zM266 1214q0 56 19.5 76t73.5 20q55 0 74 -20t19 -73q0 -55 -20 -75t-74 -20t-73 19.5t-19 72.5z M620 1214q0 56 19.5 76t73.5 20q55 0 74 -20t19 -73q0 -55 -20 -75t-74 -20t-73 19.5t-19 72.5z" />
<glyph unicode="&#x4ec;" horiz-adv-x="1122" d="M76 1294zM93 184q0 30 6 46t22 16q11 0 34 -18t63 -40t101 -40t147 -18q87 0 155 30t115.5 89t73 146t27.5 204h-618q-8 0 -14 4t-10.5 12.5t-6.5 22t-2 31.5q0 20 2 33.5t6.5 22t10.5 13t14 4.5h616q-7 98 -35 176.5t-77 133t-119 83.5t-159 29q-70 0 -124 -17 t-93.5 -36.5t-64 -36.5t-34.5 -17q-6 0 -10.5 3t-8 10.5t-5.5 20t-2 32.5q0 19 1 33t4 24t6.5 17.5t11 15t37 24.5t75 33.5t103.5 29t125 12.5q133 0 237.5 -44.5t175.5 -128.5t108 -206.5t37 -277.5q0 -161 -35.5 -286.5t-106.5 -211t-175.5 -130.5t-243.5 -45 q-52 0 -105 8.5t-100.5 23t-84 33.5t-51 32t-18.5 20.5t-6.5 18t-3.5 26.5t-1 40zM208 1527q0 56 20.5 76.5t76.5 20.5t76.5 -20t20.5 -75q0 -56 -21 -77t-77 -21t-76 20.5t-20 75.5zM621 1527q0 56 21 76.5t76 20.5q57 0 77 -20t20 -75q0 -56 -20.5 -77t-77.5 -21 q-55 0 -75.5 20.5t-20.5 75.5z" />
<glyph unicode="&#x4ed;" horiz-adv-x="907" d="M4 951zM77 149q0 38 7.5 51.5t19.5 13.5q11 0 29.5 -16t50.5 -34.5t80.5 -34.5t119.5 -16q119 0 188.5 77.5t76.5 235.5h-453q-14 0 -22 14.5t-8 47.5t8 47.5t22 14.5h452q-6 66 -26 119t-55 90.5t-83.5 58t-110.5 20.5q-59 0 -103.5 -16.5t-76.5 -36t-51.5 -36 t-29.5 -16.5q-6 0 -10.5 3.5t-8 10.5t-5 20t-1.5 32q0 17 1.5 28.5t3.5 19.5t5 13.5t11 13t32.5 24t62 32.5t87.5 28t109 12q92 0 169 -31.5t132.5 -92t86 -148.5t30.5 -201q0 -123 -28 -219t-82 -162t-135 -100.5t-186 -34.5q-54 0 -101 8.5t-83.5 21.5t-62 29t-36 25.5 t-15 15.5t-7 15t-3.5 21.5t-1 31.5zM136 1214q0 56 19.5 76t73.5 20q55 0 74 -20t19 -73q0 -55 -20 -75t-74 -20t-73 19.5t-19 72.5zM490 1214q0 56 19.5 76t73.5 20q55 0 74 -20t19 -73q0 -55 -20 -75t-74 -20t-73 19.5t-19 72.5z" />
<glyph unicode="&#x4ee;" horiz-adv-x="1080" d="M16.5 1268q-1.5 13 7 20t27.5 9.5t50 2.5q29 0 46.5 -2t28.5 -6.5t17.5 -12t11.5 -19.5l231 -472q39 -79 73.5 -152.5t67.5 -146.5h3q27 76 55.5 151.5t64.5 165.5l181 462q3 9 8.5 15t16 10t29 5.5t47.5 1.5q30 0 48 -3t26 -9t8 -16t-6 -24l-366 -888 q-47 -116 -87 -189.5t-82 -114.5t-91 -56t-113 -15q-22 0 -44.5 3t-42.5 8.5t-35.5 12.5t-22.5 12.5t-10.5 12t-6 16.5t-3.5 25t-1 36q0 38 7.5 55t22.5 17q8 0 18.5 -6t25.5 -14t36.5 -14t50.5 -6q25 0 46.5 5.5t41 23.5t40.5 50.5t46 88.5l-461 924q-9 20 -10.5 33z M103 1294zM235 1524q0 16 2 29t6 21t10.5 12t14.5 4h546q7 0 13 -4t10.5 -12t6 -20.5t1.5 -29.5t-1.5 -29.5t-6 -21t-10.5 -12.5t-13 -4h-546q-8 0 -14.5 4t-10.5 12.5t-6 21t-2 29.5z" />
<glyph unicode="&#x4ef;" horiz-adv-x="927" d="M34 925q0 12 8 19t26 9.5t48 2.5t47 -1.5t27 -5.5t14.5 -11.5t9.5 -20.5l257 -722h3l248 726q6 19 14.5 24.5t25.5 8t49 2.5q28 0 46 -2.5t26.5 -9.5t8.5 -19t-6 -30l-323 -895l-120 -331q-6 -16 -30.5 -24.5t-74.5 -8.5q-26 0 -42 2.5t-24.5 8.5t-9.5 16t5 24l124 313 q-9 4 -17 13t-11 19l-321 860q-8 21 -8 33zM59 951zM191 1228q0 18 2 30.5t6 20t10.5 11t14.5 3.5h479q8 0 14 -3.5t9.5 -11t6 -20t2.5 -30.5q0 -17 -2.5 -28.5t-6 -19.5t-9.5 -12t-14 -4h-479q-8 0 -14.5 4t-10.5 12t-6 19.5t-2 28.5z" />
<glyph unicode="&#x4f0;" horiz-adv-x="1080" d="M16.5 1268q-1.5 13 7 20t27.5 9.5t50 2.5q29 0 46.5 -2t28.5 -6.5t17.5 -12t11.5 -19.5l231 -472q39 -79 73.5 -152.5t67.5 -146.5h3q27 76 55.5 151.5t64.5 165.5l181 462q3 9 8.5 15t16 10t29 5.5t47.5 1.5q30 0 48 -3t26 -9t8 -16t-6 -24l-366 -888 q-47 -116 -87 -189.5t-82 -114.5t-91 -56t-113 -15q-22 0 -44.5 3t-42.5 8.5t-35.5 12.5t-22.5 12.5t-10.5 12t-6 16.5t-3.5 25t-1 36q0 38 7.5 55t22.5 17q8 0 18.5 -6t25.5 -14t36.5 -14t50.5 -6q25 0 46.5 5.5t41 23.5t40.5 50.5t46 88.5l-461 924q-9 20 -10.5 33z M106 1294zM238 1527q0 56 20.5 76.5t76.5 20.5t76.5 -20t20.5 -75q0 -56 -21 -77t-77 -21t-76 20.5t-20 75.5zM651 1527q0 56 21 76.5t76 20.5q57 0 77 -20t20 -75q0 -56 -20.5 -77t-77.5 -21q-55 0 -75.5 20.5t-20.5 75.5z" />
<glyph unicode="&#x4f1;" horiz-adv-x="927" d="M34 925q0 12 8 19t26 9.5t48 2.5t47 -1.5t27 -5.5t14.5 -11.5t9.5 -20.5l257 -722h3l248 726q6 19 14.5 24.5t25.5 8t49 2.5q28 0 46 -2.5t26.5 -9.5t8.5 -19t-6 -30l-323 -895l-120 -331q-6 -16 -30.5 -24.5t-74.5 -8.5q-26 0 -42 2.5t-24.5 8.5t-9.5 16t5 24l124 313 q-9 4 -17 13t-11 19l-321 860q-8 21 -8 33zM61 951zM193 1214q0 56 19.5 76t73.5 20q55 0 74 -20t19 -73q0 -55 -20 -75t-74 -20t-73 19.5t-19 72.5zM547 1214q0 56 19.5 76t73.5 20q55 0 74 -20t19 -73q0 -55 -20 -75t-74 -20t-73 19.5t-19 72.5z" />
<glyph unicode="&#x4f2;" horiz-adv-x="1080" d="M16.5 1268q-1.5 13 7 20t27.5 9.5t50 2.5q29 0 46.5 -2t28.5 -6.5t17.5 -12t11.5 -19.5l231 -472q39 -79 73.5 -152.5t67.5 -146.5h3q27 76 55.5 151.5t64.5 165.5l181 462q3 9 8.5 15t16 10t29 5.5t47.5 1.5q30 0 48 -3t26 -9t8 -16t-6 -24l-366 -888 q-47 -116 -87 -189.5t-82 -114.5t-91 -56t-113 -15q-22 0 -44.5 3t-42.5 8.5t-35.5 12.5t-22.5 12.5t-10.5 12t-6 16.5t-3.5 25t-1 36q0 38 7.5 55t22.5 17q8 0 18.5 -6t25.5 -14t36.5 -14t50.5 -6q25 0 46.5 5.5t41 23.5t40.5 50.5t46 88.5l-461 924q-9 20 -10.5 33z M121 1294zM258 1429l169 234q6 8 14 13.5t20 9t29.5 5t42.5 1.5q38 0 60.5 -3t31.5 -9t6 -15t-14 -20l-223 -229q-7 -7 -14.5 -11.5t-18 -6.5t-24.5 -2.5t-33 -0.5q-32 0 -44 9.5t-2 24.5zM626 1413.5q-1 6.5 4 13.5l179 237q5 7 13.5 12.5t21.5 9t32 5t46 1.5q33 0 53 -3.5 t29 -9.5t8.5 -13t-9.5 -16l-229 -233q-7 -8 -14 -12.5t-16.5 -6.5t-23 -2.5t-33.5 -0.5q-19 0 -32 2t-20.5 6t-8.5 10.5z" />
<glyph unicode="&#x4f3;" horiz-adv-x="927" d="M34 925q0 12 8 19t26 9.5t48 2.5t47 -1.5t27 -5.5t14.5 -11.5t9.5 -20.5l257 -722h3l248 726q6 19 14.5 24.5t25.5 8t49 2.5q28 0 46 -2.5t26.5 -9.5t8.5 -19t-6 -30l-323 -895l-120 -331q-6 -16 -30.5 -24.5t-74.5 -8.5q-26 0 -42 2.5t-24.5 8.5t-9.5 16t5 24l124 313 q-9 4 -17 13t-11 19l-321 860q-8 21 -8 33zM63 951zM196 1083q0 6 4 14l171 258q5 8 12 13.5t18 9t26.5 5t38.5 1.5q31 0 50 -3t27 -9.5t6 -15.5t-13 -22l-211 -246q-5 -6 -11 -10t-14.5 -6.5t-20.5 -3.5t-29 -1q-19 0 -30.5 1.5t-17.5 5t-6 9.5zM533 1096l182 262 q5 8 11.5 12.5t17.5 7.5t28 4.5t43 1.5q28 0 45.5 -3t25 -9.5t5.5 -16t-13 -20.5l-215 -247q-6 -7 -13 -11t-16 -6t-21 -3t-29 -1q-34 0 -47.5 7t-3.5 22z" />
</font>
</defs>
</svg>
